<svg xmlns="http://www.w3.org/2000/svg" viewBox="0 0 1756 925"><defs><style>.cls-1{fill:#ffffff;}.cls-2{fill:#ffffff;}.cls-3{fill:#ffffff;}</style></defs><g id="Layer_1" data-name="Layer 1"><path class="cls-1" d="M1371.9,175.78c-.51,25.75-1.65,76.12-2.67,112-4.82,171.77-5,201.33-.5,268.31.76,11.8,1.77,33.37,2.15,47.83s1.4,26.64,1.9,27.28c3,2.91,4.32-4.32,5.08-27.79.51-13.44,1.78-38.82,2.79-56.2,3-51,3.68-100,2-152.87-2.79-88.67-4.06-142-4.82-204-.76-56.71-.89-61.15-2.92-61.15S1372.66,132.9,1371.9,175.78Z"/><path class="cls-1" d="M1411.35,182.76c-.89,53.91-2.28,109.61-4.69,183.31-2.54,75.49-.64,182.81,3.8,224.55.76,6.34,1.27,17.89,1.27,25.63,0,13.7,1.4,18.52,3.68,12.56.51-1.65,1.65-15.74,2.54-31.47s2-38.56,2.66-50.74c3.81-66.86,3.68-114.18-1.14-265.78-.76-22.33-1.78-65.59-2.16-96.16-.76-50.87-1-55.44-3-55.44S1412.11,133.66,1411.35,182.76Z"/><path class="cls-1" d="M1332.57,245.55c-.51,8.25-1.4,32.35-2,53.67s-2.16,62.67-3.3,92c-2.16,55.31-1.78,130.67.64,167.46.63,9.77,1.9,27.66,2.66,39.84,1.65,25,2.66,32.47,4.44,32.47.76,0,1.4-2.92,1.52-6.34s1.65-24.61,3.17-46.94c3.68-51.13,3.94-148.3.64-222-1.27-25.88-2.54-64.45-3-86-.63-29.18-1.14-39-2.28-39S1333.2,235.28,1332.57,245.55Z"/><path class="cls-1" d="M1453.09,346.28c-.26,1-.89,8.88-1.4,17.64-1.39,27.65-3,59.11-5.07,98.95-2.28,41.36-2,61.65,1.39,110.37,2.8,40.34,4.82,59,6.22,59s1.9-4.82,5.84-56.45c3.29-42.12,3.8-85,1.39-120.52-.76-12.18-2.41-41.61-3.55-65.34C1456,351.1,1454.86,340.83,1453.09,346.28Z"/><path class="cls-1" d="M1293.24,430c-.25,1-.89,14.59-1.39,30.32s-1.27,39.71-1.65,53.28-.51,32.48,0,41.87c3.8,78.53,3.68,76.75,6.59,75.74.89-.26,1.65-7.11,2.29-19.41.38-10.41,1.39-31.72,2.15-47.45C1303.39,520.21,1297.3,417.2,1293.24,430Z"/><path class="cls-2" d="M892,666.74c-6.85,26-8.38,33.49-7.23,34.5.63.64,4,1.53,7.73,2,6.6.89,6.6.89,9.65-5.32a44.59,44.59,0,0,1,6.85-9.52c4.69-4.57,17.12-9.89,24.73-10.78,6.22-.76,6.22-.76,5.84,48.84-.38,48.71-.38,49.73-3,52.39a18.25,18.25,0,0,1-7,3.56c-3.81.76-4.32,1.39-4.7,5.2-.38,4.44-.38,4.44,34.64,4.44s35,0,34.63-4.44c-.25-3.3-1-4.57-2.92-4.82-5.58-.89-9.39-3.18-10.65-6.35-1.78-4.56-2.54-99.2-.76-99.33,6.21-.76,22.07,4.57,27.65,9.13a36.24,36.24,0,0,1,7.87,10c3.93,7.86,4.44,8.12,12.81,6.34s8.25.89.89-26.64c-5-18.4-5-18.4-9.77-18.78a26.4,26.4,0,0,0-9.77,1.52c-7.23,2.92-91.47,3-98.44.13a33.32,33.32,0,0,0-10.53-1.9C894.51,657,894.51,657,892,666.74Z"/><path class="cls-2" d="M499.59,659.63c-3.3.76-28,1.14-58.1.89-52.4-.38-52.4-.38-52,4.06.39,3.68.89,4.44,4.19,5.07,6.47,1.4,9.39,3.56,10.15,8,.38,2.15.63,25.37.38,51.38-.38,47.44-.38,47.44-3.93,50.49-2,1.65-5.2,3-7.23,3-3.94,0-5.84,3.17-4.57,7.23.63,2.16,4.19,2.29,54.17,1.91,45.92-.38,54.42-.13,59.63,1.52,8.37,2.79,16.23,2.66,17.12-.25.38-1.15,2.79-7,5.2-12.94,7.49-17.77,13.07-33.5,13.07-36.54,0-2.28-.76-2.79-3.93-2.79a16.35,16.35,0,0,1-6.09-1.14c-2.79-1.53-4.06-.64-8.12,6.34-10,17.51-35.4,30.32-60.13,30.32-15.35,0-14.85,1-15.61-33.87-.38-15.73-.25-29.18.26-29.94,1.39-2.41,19.41-.13,25.24,3.17,4.82,2.66,9.77,9.51,11.93,16.74.63,2,1.52,2.29,7.23,1.65,10.15-1.26,10.15-1.39,6-21.82-5.58-27.53-5.71-27.78-13.57-28.29-6-.38-6.6-.12-7.36,2.79-1.65,7-6,9-18.65,9-11.67,0-11.67,0-11.29-6.34.51-8.75,2.28-11.8,7.61-12.81,6.6-1.27,25.63.25,32.86,2.66,8.24,2.66,19.66,12.69,22.45,19.79,2.16,5.2,2.16,5.2,8.76,4.31,9.76-1.27,10.4-2.28,7.1-12.81-1.52-4.82-4.06-14-5.58-20.17-2.79-11.42-2.79-11.42-7.11-11.67A49.66,49.66,0,0,0,499.59,659.63Z"/><path class="cls-2" d="M215.67,664.58c.38,4.06.76,4.44,5.59,5.46,9.64,1.77,9.64,1.77,9.13,58.23-.38,55.31,0,52.9-10.15,54.17-5.2.76-5.45,1-5.45,5.07,0,4.31,0,4.31,35.52,4.31s35.52,0,35.9-2.79a5.36,5.36,0,0,0-5.58-6.47c-1.53,0-4.57-1.39-6.47-3-3.56-3-3.56-3-3.94-25.88s-.38-22.84,6.47-24.87a58.51,58.51,0,0,1,8.25-2c1.14,0,16.11,18.78,25.88,32.35,9.9,13.83,11.42,21.32,4.82,23.73-3.55,1.14-6.47,6.34-4.69,8.24.38.38,15.22.76,32.85.76,32.1.13,32.1.13,32.35-3.3.26-3.67-1.26-5.2-6.09-6.47-5.07-1.14-8.24-5.2-16.23-20.55-9.39-18.14-17.51-30.32-26.26-39.07-7.49-7.61-7.74-8.88-2-10,9.38-1.91,22.7-14.85,24.35-23.6,2-11.29-1.77-19.16-12.05-24.61-5.58-3-7.61-3-84.11-3.68C215.29,660.14,215.29,660.14,215.67,664.58Zm92.11,14.84c4.56,3.3,5.2,10,1.52,14.59-1.4,1.91-6,5.46-10.15,8-7.61,4.57-27.91,12.44-29,11.3-.38-.39-.51-7.62-.26-16.12.51-21.18.64-21.18,22.08-20.67C302.07,676.76,305,677.39,307.78,679.42Z"/><path class="cls-2" d="M602.73,661.66c-1.27,3.3.25,7.36,3.17,7.74,4.06.64,3.55,4.44-2.15,16.87-2.67,5.84-6.47,14.09-8.38,18.27-12,26.9-30.7,66.73-33.24,70.66-2.28,3.68-4.31,5.08-8.88,6.47-5.7,1.65-6.09,2-6.09,5.84,0,4.19,0,4.19,31.72,4.31s31.72.13,32.1-2.91c.5-3.43-2.54-6.35-6.73-6.35-1.52,0-4.06-1.27-5.58-2.66-3.68-3.55-3.42-5.2,5.2-25.63,7.61-18.27,7.36-18.14,20.17-13.7C645.1,747.8,662,762.65,662,774.06c0,3.55-4.82,8.5-8.37,8.5-3.93,0-5.83,1.91-5.33,5.71.38,3.55.38,3.55,35.27,3.43s34.89,0,34.89-4.06c0-3.56-.64-4.19-4.95-5.71a29.35,29.35,0,0,1-6.72-3.43C704.22,776,662,677.14,662,673.84c0-1.9,1.15-3.42,3.18-4.44,3-1.39,5.58-6.6,3.93-8.24S603.36,660,602.73,661.66Zm28,34.89A105.69,105.69,0,0,0,638,716.09c5.2,11,4.69,13.06-2,8.62-1.65-1.14-6.47-2.28-10.79-2.66-8.49-.76-8.75-1.4-5.07-8.63a67.81,67.81,0,0,0,4.57-11.8C626.58,695.41,629.75,692.74,630.77,696.55Z"/><path class="cls-2" d="M734.29,664c0,3.42.63,4.06,6,5.7,9.51,3.05,9.26,1.53,9,58.11-.38,49.85-.38,49.85-3.56,52.27a17.77,17.77,0,0,1-7,2.79c-3.3.38-3.81.88-4.19,4.82-.38,4.44-.38,4.44,49,4.06,42.75-.38,50-.13,54.17,1.52,6.6,2.79,15.73,2.66,16.62-.13.38-1.27,4.69-12.43,9.64-24.74s8.63-23.47,8.37-24.73-2.15-2.67-4.82-3.3c-7.48-1.78-9.39-1.65-10.65,1-10,19.16-27.66,32.61-45.42,34.64-11.29,1.26-16.11.25-19.28-3.94-2.54-3.42-2.67-5.2-3-47.82-.38-51.64-.38-51.89,9.14-54.56,5.32-1.52,5.83-1.9,5.83-5.58,0-3.93,0-3.93-34.89-3.93S734.29,660.14,734.29,664Z"/><path class="cls-2" d="M766,758.84c0,1.14.64,2.16,1.27,2.16s1.27,1.39,1.27,3-.51,3.55-1.27,3.93-1.27,2.41-1.27,4.57.64,3.68,1.27,3.68,1.27-1.4,1.27-3.05.51-3.42,1.14-3.8c1.4-.89-.38-9.39-2.28-11.29C766.38,757.06,766,757.32,766,758.84Z"/><path class="cls-2" d="M1041.93,660.77a14.67,14.67,0,0,0-.13,3.81c.13,2.66,1.14,3.55,6.09,5.07,7.74,2.42,8.37,3.18,32.6,35.4,20.43,27.27,20.43,27.27,20.43,48.46,0,20.3-.13,21.44-2.92,24.61a14.57,14.57,0,0,1-7.23,4.32c-4.06.76-4.44,1.26-4.44,5.07,0,4.19,0,4.19,34.89,4.19s34.88,0,34.88-4.19c0-3.3-.63-4.31-2.53-4.69-4.7-.77-9.65-3.18-10.79-5.21-.5-1.14-1.27-12.05-1.39-24.23-.38-22.2-.38-22.2,21.18-50.61,21.82-28.93,25.38-32.61,33.88-33.88,2.53-.5,4.82-1.14,4.82-1.65,1.52-7.48,3-7.1-29.94-7-30.45.12-30.45.12-30.45,3.8,0,3.3.51,3.68,5.07,4.32,7.87,1,7.11,3.68-5.07,20.93-5.84,8.37-11.54,16.36-12.43,17.63-1.52,2.29-1.91,2-5-3.17-1.78-3-7.1-10.91-11.67-17.25-10.78-15.1-10.78-16.11-.51-17.89,5-.89,5.46-1.27,5.46-4.69,0-3.68,0-3.68-37.17-3.68C1059.05,660.14,1042.18,660.39,1041.93,660.77Z"/><path class="cls-3" d="M1245.8,659.25c-1.15.89-1.53,5.33-1.27,18.14.38,17,.38,17,4.18,17s3.81,0,3.81-7.61,0-7.61,7.36-8,7.23-.38,7.23,8,0,8.37,3.55,8,3.43-.38,3.68-17.63c.38-16.87.25-17.38-2.41-18-4.19-1.15-4.82-.13-4.82,7.48,0,7,0,7-7.23,6.6s-7.36-.38-7-6.6C1253.28,659.13,1250.49,656.33,1245.8,659.25Z"/><path class="cls-3" d="M1286.77,660.27c-5.33,2.79-5.71,3.68-5.71,17.12,0,15.61,1.14,17,14.08,17,11.42,0,13.71-2,14.59-13.44,1-12.31-.5-17.77-5.83-20.43S1291.72,657.6,1286.77,660.27Zm13.45,5.58c3.17,1.78,3.68,19,.63,21.44s-9.76,2.16-11.67-.51c-2.53-3.42-2.28-17.63.26-20.17C1291.72,664.33,1296.54,664,1300.22,665.85Z"/><path class="cls-3" d="M1316.84,659.25c-1.14.76-1.52,5.46-1.27,18.14.38,17,.38,17,12.18,17.38,9.64.26,11.8,0,12.43-1.65,1.52-3.8-1.9-5.7-9.51-5.32-7.11.25-7.11.25-7.23-13.2C1323.31,658.49,1322.17,656,1316.84,659.25Z"/><path class="cls-3" d="M1343.73,660.14c-.38.76-.38,8.75-.25,17.76.38,16.37.38,16.37,7.61,16.87,15.86.89,21.31-3.42,21.31-16.87,0-9.13-2.53-15-7.1-16.87C1360.1,659.13,1344.37,658.36,1343.73,660.14Zm19.54,7.23c.89.89,1.52,4.57,1.52,10,0,9.9-1.65,11.67-9.89,11-4.7-.38-4.7-.38-4.7-11.16,0-6,.51-11.17,1.27-11.8C1353,664.33,1361,665.6,1363.27,667.37Z"/><path class="cls-3" d="M1419.47,659.38c-1.4.89-1.52,3.42-.76,12,.51,7,.38,10.91-.38,10.91s-5.08-5.2-9.77-11.42c-7.36-9.76-9-11.41-12.18-11.41-3.68,0-3.68,0-3.68,17.88s0,17.76,3.55,17.38,3.43-.38,3-11.54c-.13-6.09.25-11,.89-11s5.07,5.2,9.89,11.42c7.23,9.64,9.14,11.42,11.8,11.16,3.17-.38,3.17-.38,3.55-17.38.26-12.68-.12-17.38-1.27-18.14C1422.13,658,1421.63,658,1419.47,659.38Z"/><path class="cls-3" d="M1440.28,659.13c-6.73,1.77-8.25,5.07-8.25,18.14,0,16.36.76,17.12,17,17.12,11.54,0,11.54,0,11.54-8.24s0-8.25-6.34-8.25c-5.07,0-6.34.51-6.72,2.28-.38,1.53.5,2.54,2.28,3.05,4.57,1.27,2.54,4.82-3.17,5.2-6.6.63-8.25-1.78-8.25-11.92s2.41-12.31,11.55-11.17c5.2.76,6,.51,6.59-1.9.38-1.4.13-2.92-.5-3.3C1454.36,659,1443.19,658.36,1440.28,659.13Z"/><path class="cls-3" d="M1374.31,660.65c-.38.76.38,2.28,1.9,3.55,2.28,2,2.54,3.68,2.54,16.62,0,14.33,0,14.33,3.55,13.95s3.42-.38,3.17-17.5-.25-17.13-5.33-17.51C1377.48,659.51,1374.81,660,1374.31,660.65Z"/><path class="cls-3" d="M1486.07,662.17c-3.55,2.79-4.18,6.09-1.65,10.15,1.15,2.16,1.15,2.92,0,3.3-4.56,1.65-7.23,5.33-7.23,9.77,0,8.24,2.92,9.51,20.17,8.37a37.25,37.25,0,0,1,6.73.76c4.82.89,5.58-1.52,1.52-5.2-3.81-3.43-3.55-12.94.38-13.58s4.69-6.09.63-6.09c-2.79,0-4.69-2.15-6.85-8C1498.63,658.49,1490.39,658.74,1486.07,662.17Zm10.41,6.6c.38,2.66-.13,3.42-2,3.42-3.94,0-5.84-3.17-3.3-5.58C1493.94,663.82,1496,664.71,1496.48,668.77Zm.25,12.68c0,4.82-1.9,7.23-5.84,7.23-7.74,0-9.26-4.94-2.66-8.88C1494.45,676,1496.73,676.51,1496.73,681.45Z"/><path class="cls-3" d="M1215.09,710.5c0,.26-.25,7.74-.38,16.88-.25,16.49-.25,16.49,3.3,16.87,3.81.51,3.81.51,3.43-9.64-.13-3.55.38-6.6,1-6.6,1,0,3.81,6.34,6.09,13.7.64,2.16,4.19,3.43,5.71,1.91.64-.64,2.28-4.19,3.55-8,3.3-9.38,5.59-9.89,5.2-1.14-.38,9.52-.25,10,2.41,10,3.68,0,3.81-.63,4.06-17.88.13-15.73.13-15.73-3.67-16.12s-3.94-.12-7.87,10.41c-2.28,6-4.82,10.91-5.71,10.91s-3.3-4.7-5.33-10.53c-3.55-9.77-4.06-10.4-7.86-10.79C1216.87,710.25,1215.09,710.25,1215.09,710.5Z"/><path class="cls-3" d="M1262.79,711.77c-.25.89-2.53,7.74-5.07,15.23-5.58,16.62-5.58,17.76-1.27,17.25,2.54-.25,3.68-1.4,4.82-4.82,2.29-7.23,11.93-7.11,14.08.25,1,3.3,1.91,4.19,4.44,4.19,4.19,0,3.94-1.78-2.28-19-5.07-14-5.07-14-9.64-14.34C1265,710.25,1263.05,710.63,1262.79,711.77Zm8,12.69c1.14,3,1,4.31-.13,5.07-4.31,2.67-7-.25-5.58-6C1266.22,719.13,1269.14,719.64,1270.79,724.46Z"/><path class="cls-3" d="M1287.28,711.14c-.13.63-.25,8-.38,16.62-.13,13.7.13,15.6,2,16.24,4.44,1.39,5.2-.64,4.44-11-.38-5.58-.25-10.28.38-10.66s4.69,4.57,9.39,10.79c7.86,10.53,11.92,13.57,13.83,10.4.38-.51.88-8,1-16.75.51-15.85.51-15.85-3.81-16.24s-4.18-.38-3.29,9.65c.5,5.58.38,10.4-.26,10.78s-4.69-4.19-9-10c-6.21-8.25-8.75-10.66-11.16-10.66C1288.8,710.25,1287.28,710.63,1287.28,711.14Z"/><path class="cls-3" d="M1331.17,711.77c-8.12,24-10.4,31.47-9.76,32,2.15,2.29,6.59.51,7.35-2.79,1.27-5.07,2.92-6.6,7.49-6.6s6.21,1.53,7.48,6.73c.76,3,1.4,3.55,4.32,3.17,4.31-.51,4.18-.63-2-18.78-5.08-14.58-5.08-14.58-9.64-15C1333.46,710.25,1331.55,710.63,1331.17,711.77Zm7.62,12.56c.88,4.06,0,6.22-2.54,6.22s-3.55-2.28-2.67-7C1334.6,718.37,1337.64,718.75,1338.79,724.33Z"/><path class="cls-3" d="M1356.55,713.42c-2.79,2.67-3.18,4.19-3.18,11.93,0,15.6,3.56,19.28,17.89,18.65,8.12-.38,8.12-.38,8.12-7.87s0-7.48-6-7.86c-7-.51-8.63,2.66-2.79,4.82,4.57,1.77,1.9,5.07-4.06,5.07-5.33,0-6.6-2.66-6.09-12.56.38-8.37.76-8.75,8.75-9.26,5.46-.38,6.35-.76,6.73-3.3s0-2.79-8-2.79C1360.73,710.25,1359.21,710.63,1356.55,713.42Z"/><path class="cls-3" d="M1385.09,726.74c0,9,.38,16.5,1,16.62,12.17,1.27,20.42.89,21.05-1,1.27-3.3-1.39-4.82-8.5-4.82-6.47,0-6.59,0-7-4.19-.38-3.81-.26-4.06,3.93-4.06,4.57,0,8.12-2.66,6.6-5.07-.38-.64-3-1.27-5.84-1.27-4.82,0-5.07-.26-4.69-3.56s.5-3.42,7.48-3c5.71.38,7.23,0,8-1.65,1.4-3.68-.38-4.44-11.41-4.44C1385.09,710.25,1385.09,710.25,1385.09,726.74Z"/><path class="cls-3" d="M1412,727c.38,15.85.5,16.87,2.91,16.87s2.54-.89,2.67-8c.12-4.44.5-8.38,1-8.76.89-.88,5.71,9.52,5.84,12.31a5.4,5.4,0,0,0,5.33,5.07c1.52,0,2.66-1.65,3.67-5.45,1.78-6.47,4.83-12.81,5.84-11.8.51.38.63,4.44.51,9.13-.26,8-.13,8.25,2.66,7.87s2.92-.76,3.3-17.25c.38-16.75.38-16.75-3.42-16.75-3.43,0-3.94.64-8.12,11-2.41,6.21-5,11-5.46,11s-2.92-5.07-5.07-10.78c-3.81-10-4.32-10.65-8-11C1411.6,710.12,1411.6,710.12,1412,727Z"/><path class="cls-3" d="M1452.58,727c.38,16.74.38,16.74,10.66,17.12,8.75.38,10.53.13,11.16-1.77,1.27-3.3-1.27-4.82-8.5-4.82-6.47,0-6.6-.13-7-4.06s-.12-4.06,4.44-4.44c3.94-.26,5-.89,5.21-3.3s-.13-2.79-4.7-2.79-5.2-.26-5.2-3.17c0-3.43.38-3.68,9.26-3.18,5.71.26,6,0,6-3,0-3.3,0-3.3-10.78-3.3S1452.2,710.25,1452.58,727Z"/><path class="cls-3" d="M1479.22,727c.38,16.87.38,16.87,3.55,16.87s3.18,0,2.8-10.53c-.26-6.6,0-10.4.88-10.4.64,0,4.57,4.56,8.63,10.15,12.31,17.12,15.22,15.6,14.59-7.36-.51-15.35-.51-15.48-3.43-15.48s-3,.38-3.42,11c-.38,11.16-.38,11.16-8.63.12-6.85-9.38-8.88-11.16-11.8-11.16C1478.84,710.25,1478.84,710.25,1479.22,727Z"/><path class="cls-3" d="M1512.33,712.28c-.88,2.54,1.65,4.31,6.35,4.31,3.42,0,3.42,0,3.42,14.09s0,14,3.55,13.57,3.43-.38,3.56-13.7.25-13.32,5.45-13.7c4.57-.38,5.2-.76,5.2-3.55,0-3,0-3-13.32-3C1515.38,710.25,1513,710.63,1512.33,712.28Z"/><path class="cls-3" d="M1220.93,758.59c-7.74,1.26-9.64,4.56-9.64,16.87,0,14.71,3.3,17.89,17.25,17,5.71-.38,6.22-.64,6.22-3.55s-.26-3.18-6.47-2.8c-8.5.64-9.64-.88-9.14-12.05.38-8.62.38-8.62,7.62-9,6.85-.39,9.89-2.29,8-5.33C1233.87,758.2,1226.64,757.7,1220.93,758.59Z"/><path class="cls-3" d="M1247.57,758.59c-7.86,1.26-9.64,4.56-9.64,17,0,10.28.13,10.66,3.93,13.83,5.46,4.57,15.73,4.7,20.68.13,3-2.79,3.3-3.81,3.3-13.7C1265.84,760.62,1261.15,756.18,1247.57,758.59Zm10.4,7.86c2,1.52,2,16.37,0,18.4-2.41,2.41-10.91,1.9-12.3-.77s-1.4-14.08,0-17C1247.44,763.66,1253.91,763.41,1258,766.45Z"/><path class="cls-3" d="M1316.84,758.46c-5.58,1.27-9.14,4.69-9.14,8.88s3.18,6.47,12.56,9.64c7,2.28,9.9,5.46,7.49,7.87-2.16,2.15-10.53,1.9-12.43-.38a6.84,6.84,0,0,0-4.57-1.91c-8.5,0-1.78,8.76,7.48,9.77,19.92,2.28,24.23-14.59,5.33-20.55-11.54-3.55-10.78-9,.89-7.49,5,.64,6.22.51,6.85-1.26.51-1.27.38-2.67-.25-3.18C1329.27,758.2,1321.41,757.44,1316.84,758.46Z"/><path class="cls-3" d="M1525.27,758.2c-10,.64-15.35,6.47-11.41,12.56,1.14,1.65,2.79,3.3,3.55,3.56,14.46,4.94,16.24,6,15.86,8.62-.51,3.56-11,4.82-13.71,1.53-1.9-2.29-7.1-2.54-8.37-.39-.51.77.76,2.92,3.17,5.08,7.11,6.34,24.36,4.19,26.26-3.43,1.91-7.35-3.42-12.56-15.6-15.22-9.13-1.9-6.09-6.34,4.44-6.34,6.34,0,7.23-.26,7.23-2.41C1536.69,758.84,1532.76,757.7,1525.27,758.2Z"/><path class="cls-3" d="M1271.55,775.2c0,16.88,0,16.88,3.17,16.88s3.17,0,2.79-10.53c-.38-12.94.13-12.94,10.4.38,6.09,7.74,8.63,10.15,10.91,10.15,3.18,0,3.18,0,3.56-16.88s.38-16.74-3.68-16.74-4.06,0-3.3,10.15c.51,5.45.38,10.4-.26,10.65s-4.69-4.18-9.13-10c-6.34-8.62-8.63-10.78-11.16-10.78C1271.55,758.46,1271.55,758.46,1271.55,775.2Z"/><path class="cls-3" d="M1339.42,768.23c0,15.35,1,19.28,5.58,22.07,5.46,3.3,14.59,3.17,19-.25,3.17-2.54,3.3-2.92,3.3-17.13,0-14.46,0-14.46-3.17-14.46s-3.17,0-3.17,12.43c0,13.7-.76,15.48-7,15.48s-7-1.78-7-15.48c0-12.43,0-12.43-3.8-12.43S1339.42,758.46,1339.42,768.23Z"/><path class="cls-3" d="M1373.93,775.2c.38,16.88.38,16.88,11.54,17.26,7,.25,11.16-.13,11.29-1,.51-4.18.13-4.44-7.86-5.07-8.25-.64-8.25-.64-8.25-14s0-13.32-3.55-13.7S1373.55,758.33,1373.93,775.2Z"/><path class="cls-3" d="M1391.43,761.5c0,2.79.64,3.17,5.46,3.56,5.33.38,5.33.38,5.33,13.7s0,13.32,3.8,13.32,3.81,0,3.3-13.58-.38-13.57,4.44-14c4.06-.26,5.08-.89,5.33-3.3.38-2.79.25-2.79-13.57-2.79C1391.43,758.46,1391.43,758.46,1391.43,761.5Z"/><path class="cls-3" d="M1426.83,761.88c-7.23,18.27-10.79,29.06-10,29.94,2.28,2.54,6.85.26,8.12-3.93,1-3.81,1.52-4.06,6.72-4.06s5.71.38,7.48,4.44c1.4,3.43,2.54,4.44,5.08,4.44,4.06,0,4.06-.13-3-19.66-4.82-13.45-5.07-14-9-14.34C1428.86,758.33,1428,758.84,1426.83,761.88Zm7.1,10.53c2.41,4.57,1.65,6.35-2.66,6.35-3.3,0-3.81-1.65-1.78-6.85C1431,767.72,1431.52,767.72,1433.93,772.41Z"/><path class="cls-3" d="M1450.55,759.47c-.38.64-.25,8.38.13,17.26.76,16.11.76,16.11,4.06,15.73s3.68-2.16,2.28-18.27c-.51-4.69,2.67-2.28,10.4,8,6.09,8.12,8.63,10.53,11,10.53,3,0,3,0,3-17.25s0-17.13-3.43-16.75-3.55.38-3,10.79c.12,5.83-.13,10.53-.77,10.53s-4.69-4.83-9.13-10.79c-6.09-8.24-8.63-10.78-10.91-10.78C1452.58,758.46,1450.93,759,1450.55,759.47Z"/><path class="cls-3" d="M1484.55,760.36c-1.14,2.92.63,4.44,5.46,4.44,4.44,0,4.44,0,4.06,13.58s-.51,13.7,3.29,13.7,3.81,0,3.81-13.32.13-13.32,4.44-14c3.42-.51,4.57-1.27,4.82-3.55.38-2.79.13-2.79-12.43-2.79C1488,758.46,1485.06,758.84,1484.55,760.36Z"/></g></svg>