<svg xmlns="http://www.w3.org/2000/svg" viewBox="0 0 1768 1026"><defs><style>.cls-1{fill:#b18e30;}.cls-2{fill:#542222;}.cls-3{fill:#0e3f23;}</style></defs><g id="Layer_1" data-name="Layer 1"><path class="cls-1" d="M1401.86,198.33c-.53,27-1.72,79.73-2.79,117.34-5,179.93-5.18,210.89-.53,281.06.8,12.35,1.86,34.95,2.26,50.09s1.46,27.91,2,28.58c3.19,3.05,4.52-4.52,5.32-29.11.53-14.08,1.86-40.66,2.92-58.87,3.19-53.42,3.86-104.71,2.13-160.13-2.92-92.89-4.25-148.7-5.05-213.68-.8-59.4-.93-64.06-3.06-64.06S1402.66,153.41,1401.86,198.33Z"/><path class="cls-1" d="M1443.19,205.63c-.93,56.48-2.39,114.82-4.91,192-2.66,79.07-.67,191.49,4,235.21.8,6.65,1.33,18.74,1.33,26.84,0,14.36,1.46,19.41,3.85,13.16.54-1.73,1.73-16.48,2.66-33s2.13-40.39,2.79-53.15c4-70,3.86-119.6-1.19-278.4-.8-23.39-1.86-68.71-2.26-100.73-.8-53.29-1.07-58.08-3.19-58.08S1444,154.21,1443.19,205.63Z"/><path class="cls-1" d="M1360.67,271.41c-.53,8.64-1.46,33.89-2.13,56.22s-2.26,65.64-3.45,96.34c-2.26,57.94-1.86,136.88.66,175.41.67,10.24,2,29,2.79,41.73,1.73,26.18,2.79,34,4.65,34,.8,0,1.46-3.06,1.6-6.64s1.73-25.78,3.32-49.17c3.85-53.56,4.12-155.35.66-232.56-1.32-27.11-2.65-67.51-3.19-90.1-.66-30.56-1.19-40.79-2.39-40.79S1361.33,260.65,1360.67,271.41Z"/><path class="cls-1" d="M1486.91,376.93c-.26,1.06-.93,9.3-1.46,18.47-1.46,29-3.19,61.93-5.31,103.65-2.4,43.32-2.13,64.59,1.46,115.62,2.92,42.25,5.05,61.79,6.51,61.79s2-5.05,6.11-59.14c3.46-44.12,4-89,1.46-126.24-.79-12.76-2.52-43.59-3.72-68.44C1490,382,1488.77,371.21,1486.91,376.93Z"/><path class="cls-1" d="M1319.47,464.63c-.26,1.07-.93,15.29-1.46,31.76s-1.33,41.6-1.73,55.82-.53,34,0,43.85c4,82.26,3.86,80.4,6.91,79.34.93-.27,1.73-7.45,2.4-20.34.39-10.89,1.46-33.22,2.25-49.7C1330.1,559.12,1323.72,451.21,1319.47,464.63Z"/><path class="cls-2" d="M899.15,712.6c-7.18,27.25-8.78,35.09-7.58,36.15.67.66,4.25,1.6,8.11,2.13,6.91.93,6.91.93,10.1-5.58a47,47,0,0,1,7.17-10c4.92-4.79,17.94-10.37,25.92-11.3,6.51-.79,6.51-.79,6.11,51.17-.4,51-.4,52.09-3.19,54.88a19.1,19.1,0,0,1-7.31,3.72c-4,.8-4.52,1.46-4.92,5.45-.4,4.65-.4,4.65,36.28,4.65s36.68,0,36.28-4.65c-.26-3.46-1.06-4.79-3.06-5-5.84-.93-9.83-3.32-11.16-6.65-1.86-4.78-2.66-103.92-.8-104,6.52-.8,23.13,4.79,29,9.57a37.81,37.81,0,0,1,8.24,10.5c4.12,8.24,4.65,8.5,13.43,6.64s8.63.93.93-27.9c-5.19-19.27-5.19-19.27-10.24-19.67a27.43,27.43,0,0,0-10.23,1.59c-7.57,3.06-95.81,3.19-103.12.14a34.57,34.57,0,0,0-11-2C901.8,702.37,901.8,702.37,899.15,712.6Z"/><path class="cls-2" d="M488.12,705.16c-3.45.8-29.37,1.2-60.86.93-54.89-.4-54.89-.4-54.49,4.26.4,3.85.93,4.65,4.39,5.31,6.78,1.46,9.83,3.72,10.63,8.37.4,2.26.66,26.58.4,53.82-.4,49.7-.4,49.7-4.12,52.89-2.13,1.73-5.45,3.19-7.58,3.19-4.12,0-6.11,3.32-4.78,7.58.66,2.26,4.39,2.39,56.74,2,48.11-.4,57-.13,62.46,1.59,8.77,2.93,17,2.8,17.94-.26.4-1.2,2.92-7.31,5.45-13.56C522.14,812.67,528,796.19,528,793c0-2.39-.8-2.92-4.12-2.92a16.94,16.94,0,0,1-6.38-1.2c-2.92-1.59-4.25-.66-8.51,6.65-10.49,18.34-37.07,31.76-63,31.76-16.07,0-15.54,1.06-16.34-35.48-.4-16.48-.27-30.57.27-31.37,1.46-2.52,20.33-.13,26.44,3.33,5.05,2.79,10.23,10,12.49,17.54.67,2.12,1.6,2.39,7.58,1.73,10.63-1.33,10.63-1.47,6.24-22.86-5.85-28.84-6-29.1-14.22-29.64-6.24-.39-6.91-.13-7.7,2.93-1.73,7.31-6.25,9.43-19.54,9.43-12.23,0-12.23,0-11.83-6.64.54-9.17,2.4-12.36,8-13.42,6.91-1.33,26.84.26,34.42,2.79,8.63,2.79,20.59,13.29,23.52,20.73,2.26,5.45,2.26,5.45,9.17,4.52,10.23-1.33,10.89-2.4,7.44-13.43-1.6-5-4.25-14.61-5.85-21.12-2.92-12-2.92-12-7.44-12.23A52.47,52.47,0,0,0,488.12,705.16Z"/><path class="cls-2" d="M190.72,710.35c.39,4.25.79,4.65,5.84,5.71,10.1,1.86,10.1,1.86,9.57,61-.4,57.94,0,55.41-10.63,56.74-5.45.8-5.71,1.06-5.71,5.31,0,4.52,0,4.52,37.2,4.52s37.21,0,37.61-2.92c.67-3.85-2-6.78-5.85-6.78-1.59,0-4.78-1.46-6.77-3.19-3.72-3.19-3.72-3.19-4.12-27.11s-.4-23.92,6.77-26a60.8,60.8,0,0,1,8.64-2.13c1.2,0,16.88,19.67,27.11,33.89,10.37,14.48,12,22.32,5.05,24.85-3.72,1.19-6.78,6.64-4.92,8.64.4.39,15.95.79,34.42.79,33.62.14,33.62.14,33.89-3.45.27-3.86-1.33-5.45-6.38-6.78-5.31-1.2-8.64-5.45-17-21.53-9.83-19-18.34-31.76-27.51-40.93-7.84-8-8.1-9.3-2.12-10.5,9.83-2,23.78-15.54,25.51-24.71,2.13-11.83-1.86-20.07-12.62-25.78-5.85-3.19-8-3.19-88.11-3.86C190.32,705.69,190.32,705.69,190.72,710.35Zm96.47,15.54c4.79,3.46,5.45,10.5,1.6,15.29-1.46,2-6.25,5.71-10.63,8.37-8,4.78-29.24,13-30.44,11.82-.39-.39-.53-8-.26-16.87.53-22.19.66-22.19,23.12-21.66C281.21,723.1,284.27,723.77,287.19,725.89Z"/><path class="cls-2" d="M596.16,707.29c-1.33,3.45.26,7.71,3.32,8.11,4.25.66,3.72,4.65-2.26,17.67-2.79,6.11-6.78,14.75-8.77,19.14-12.62,28.17-32.16,69.9-34.82,74-2.39,3.86-4.51,5.32-9.3,6.78-6,1.73-6.38,2.13-6.38,6.11,0,4.39,0,4.39,33.23,4.52s33.22.14,33.62-3c.53-3.59-2.66-6.65-7-6.65-1.59,0-4.25-1.33-5.84-2.79-3.86-3.72-3.59-5.45,5.44-26.84,8-19.14,7.71-19,21.13-14.35,22.06,7.57,39.74,23.12,39.74,35.08,0,3.72-5.05,8.9-8.77,8.9-4.12,0-6.12,2-5.58,6,.39,3.72.39,3.72,36.94,3.59s36.54,0,36.54-4.25c0-3.72-.66-4.39-5.18-6a30.88,30.88,0,0,1-7-3.59c-2.66-2.66-46.91-106.18-46.91-109.63,0-2,1.19-3.59,3.32-4.65,3.19-1.47,5.85-6.91,4.12-8.64S596.82,705.56,596.16,707.29Zm29.37,36.54a110.47,110.47,0,0,0,7.57,20.47c5.45,11.56,4.92,13.69-2.12,9-1.73-1.19-6.78-2.39-11.3-2.79-8.9-.79-9.17-1.46-5.32-9a70.12,70.12,0,0,0,4.79-12.36C621.14,742.64,624.46,739.85,625.53,743.83Z"/><path class="cls-2" d="M734,709.68c0,3.59.67,4.25,6.25,6,10,3.19,9.7,1.6,9.44,60.86-.4,52.23-.4,52.23-3.73,54.75a18.48,18.48,0,0,1-7.3,2.93c-3.46.4-4,.93-4.39,5-.4,4.65-.4,4.65,51.3,4.25,44.78-.4,52.35-.13,56.74,1.59,6.91,2.93,16.48,2.8,17.41-.13.4-1.33,4.91-13,10.1-25.91s9-24.59,8.77-25.91-2.26-2.8-5-3.46c-7.84-1.86-9.84-1.73-11.16,1.06-10.5,20.07-29,34.16-47.58,36.28-11.83,1.33-16.88.27-20.2-4.12-2.66-3.59-2.79-5.45-3.19-50.1-.4-54.08-.4-54.35,9.57-57.14,5.58-1.59,6.11-2,6.11-5.85,0-4.12,0-4.12-36.54-4.12S734,705.69,734,709.68Z"/><path class="cls-2" d="M767.19,809.08c0,1.2.66,2.26,1.33,2.26s1.32,1.46,1.32,3.19-.53,3.72-1.32,4.12-1.33,2.52-1.33,4.78.66,3.86,1.33,3.86,1.32-1.46,1.32-3.19.54-3.59,1.2-4c1.46-.93-.4-9.83-2.39-11.83C767.59,807.22,767.19,807.49,767.19,809.08Z"/><path class="cls-2" d="M1056.22,706.36a15.56,15.56,0,0,0-.13,4c.13,2.79,1.19,3.72,6.38,5.31,8.1,2.53,8.77,3.32,34.15,37.08C1118,781.31,1118,781.31,1118,803.5c0,21.26-.13,22.46-3,25.78a15.33,15.33,0,0,1-7.58,4.52c-4.25.8-4.65,1.33-4.65,5.31,0,4.39,0,4.39,36.55,4.39s36.54,0,36.54-4.39c0-3.45-.66-4.51-2.66-4.91-4.91-.8-10.1-3.32-11.29-5.45-.54-1.2-1.33-12.62-1.47-25.38-.39-23.26-.39-23.26,22.2-53,22.85-30.3,26.57-34.16,35.48-35.49,2.66-.53,5.05-1.19,5.05-1.72,1.59-7.84,3.19-7.45-31.36-7.31-31.9.13-31.9.13-31.9,4,0,3.46.53,3.86,5.32,4.52,8.24,1.07,7.44,3.86-5.32,21.93-6.11,8.77-12.09,17.14-13,18.47-1.59,2.39-2,2.13-5.18-3.32-1.86-3.19-7.44-11.43-12.23-18.07-11.29-15.82-11.29-16.88-.53-18.74,5.18-.93,5.71-1.33,5.71-4.92,0-3.85,0-3.85-38.93-3.85C1074.16,705.69,1056.49,706,1056.22,706.36Z"/><path class="cls-3" d="M1269.77,704.76c-1.19.93-1.59,5.59-1.33,19,.4,17.8.4,17.8,4.39,17.8s4,0,4-8,0-8,7.7-8.37,7.58-.4,7.58,8.37,0,8.77,3.72,8.37,3.59-.4,3.85-18.47c.4-17.67.27-18.2-2.52-18.87-4.39-1.19-5.05-.13-5.05,7.84,0,7.31,0,7.31-7.58,6.91s-7.7-.4-7.31-6.91C1277.61,704.63,1274.69,701.71,1269.77,704.76Z"/><path class="cls-3" d="M1312.7,705.83c-5.59,2.92-6,3.85-6,17.94,0,16.34,1.19,17.8,14.75,17.8,12,0,14.35-2.12,15.28-14.08,1.06-12.89-.53-18.61-6.11-21.4S1317.88,703,1312.7,705.83Zm14.08,5.84c3.32,1.86,3.86,19.94.67,22.46s-10.24,2.26-12.23-.53c-2.66-3.59-2.39-18.47.27-21.13C1317.88,710.08,1322.93,709.68,1326.78,711.67Z"/><path class="cls-3" d="M1344.19,704.76c-1.2.8-1.59,5.72-1.33,19,.4,17.8.4,17.8,12.76,18.2,10.1.27,12.36,0,13-1.72,1.6-4-2-6-10-5.59-7.44.27-7.44.27-7.57-13.82C1351,704,1349.77,701.31,1344.19,704.76Z"/><path class="cls-3" d="M1372.36,705.69c-.4.8-.4,9.17-.26,18.61.4,17.14.4,17.14,8,17.67,16.61.93,22.33-3.58,22.33-17.67,0-9.57-2.66-15.68-7.45-17.68C1389.5,704.63,1373,703.83,1372.36,705.69Zm20.47,7.58c.93.93,1.59,4.78,1.59,10.5,0,10.36-1.73,12.22-10.36,11.56-4.92-.4-4.92-.4-4.92-11.7,0-6.24.53-11.69,1.33-12.35C1382.06,710.08,1390.44,711.41,1392.83,713.27Z"/><path class="cls-3" d="M1451.7,704.9c-1.46.93-1.6,3.59-.8,12.62.53,7.31.4,11.43-.4,11.43s-5.31-5.45-10.23-12c-7.71-10.23-9.44-12-12.76-12-3.85,0-3.85,0-3.85,18.74s0,18.6,3.72,18.2,3.59-.4,3.19-12.09c-.14-6.38.26-11.56.93-11.56s5.31,5.45,10.36,12c7.58,10.1,9.57,12,12.36,11.69,3.32-.4,3.32-.4,3.72-18.2.27-13.29-.13-18.21-1.33-19C1454.49,703.44,1454,703.44,1451.7,704.9Z"/><path class="cls-3" d="M1473.49,704.63c-7,1.86-8.64,5.32-8.64,19,0,17.15.8,17.94,17.81,17.94,12.09,0,12.09,0,12.09-8.63s0-8.64-6.64-8.64c-5.32,0-6.65.53-7,2.39-.4,1.6.53,2.66,2.39,3.19,4.78,1.33,2.66,5-3.32,5.45-6.92.66-8.64-1.86-8.64-12.49s2.52-12.89,12.09-11.7c5.45.8,6.25.53,6.91-2,.4-1.46.13-3.06-.53-3.46C1488.24,704.5,1476.55,703.83,1473.49,704.63Z"/><path class="cls-3" d="M1404.39,706.23c-.4.79.4,2.39,2,3.72,2.39,2.12,2.66,3.85,2.66,17.41,0,15,0,15,3.72,14.61s3.59-.4,3.32-18.34-.26-17.94-5.58-18.33C1407.71,705,1404.92,705.56,1404.39,706.23Z"/><path class="cls-3" d="M1521.46,707.82c-3.72,2.92-4.38,6.38-1.72,10.63,1.19,2.26,1.19,3.06,0,3.46-4.79,1.72-7.58,5.58-7.58,10.23,0,8.64,3.06,10,21.13,8.77a39.34,39.34,0,0,1,7,.8c5.05.93,5.85-1.6,1.6-5.45-4-3.59-3.72-13.56.4-14.22s4.91-6.38.66-6.38c-2.92,0-4.92-2.26-7.17-8.37C1534.62,704,1526,704.23,1521.46,707.82Zm10.9,6.91c.4,2.79-.13,3.59-2.13,3.59-4.12,0-6.11-3.32-3.45-5.85C1529.7,709.55,1531.83,710.48,1532.36,714.73Zm.27,13.29c0,5.05-2,7.57-6.12,7.57-8.1,0-9.7-5.18-2.79-9.3C1530.23,722.31,1532.63,722.84,1532.63,728Z"/><path class="cls-3" d="M1237.61,758.45c0,.27-.26,8.11-.4,17.68-.26,17.27-.26,17.27,3.46,17.67,4,.53,4,.53,3.59-10.1-.14-3.72.4-6.91,1.06-6.91,1.06,0,4,6.64,6.38,14.35.66,2.26,4.38,3.59,6,2,.66-.67,2.39-4.39,3.72-8.38,3.46-9.83,5.85-10.36,5.45-1.19-.4,10-.27,10.5,2.52,10.5,3.86,0,4-.67,4.26-18.74.13-16.48.13-16.48-3.86-16.88s-4.12-.13-8.24,10.9c-2.39,6.24-5,11.43-6,11.43s-3.45-4.92-5.58-11c-3.72-10.24-4.25-10.9-8.24-11.3C1239.47,758.19,1237.61,758.19,1237.61,758.45Z"/><path class="cls-3" d="M1287.58,759.78c-.27.93-2.66,8.11-5.32,16-5.84,17.41-5.84,18.6-1.33,18.07,2.66-.27,3.86-1.46,5-5,2.4-7.57,12.5-7.44,14.76.27,1.06,3.45,2,4.38,4.65,4.38,4.38,0,4.12-1.86-2.4-19.93-5.31-14.62-5.31-14.62-10.1-15C1289.84,758.19,1287.85,758.58,1287.58,759.78Zm8.37,13.29c1.2,3.19,1.06,4.52-.13,5.31-4.52,2.8-7.31-.26-5.85-6.24C1291.17,767.49,1294.22,768,1296,773.07Z"/><path class="cls-3" d="M1313.23,759.12c-.14.66-.27,8.37-.4,17.4-.13,14.36.13,16.35,2.12,17,4.66,1.47,5.45-.66,4.66-11.56-.4-5.84-.27-10.76.39-11.16s4.92,4.78,9.84,11.3c8.24,11,12.49,14.21,14.48,10.89.4-.53.93-8.37,1.07-17.54.53-16.61.53-16.61-4-17s-4.39-.4-3.46,10.1c.54,5.85.4,10.9-.26,11.3s-4.92-4.39-9.44-10.5c-6.51-8.64-9.17-11.16-11.69-11.16C1314.82,758.19,1313.23,758.58,1313.23,759.12Z"/><path class="cls-3" d="M1359.21,759.78c-8.51,25.12-10.9,33-10.24,33.49,2.26,2.39,6.91.53,7.71-2.93,1.33-5.31,3.06-6.91,7.84-6.91s6.51,1.6,7.84,7.05c.8,3.19,1.46,3.72,4.52,3.32,4.52-.53,4.39-.66-2.13-19.67-5.31-15.28-5.31-15.28-10.1-15.68C1361.6,758.19,1359.6,758.58,1359.21,759.78Zm8,13.16c.93,4.25,0,6.51-2.66,6.51s-3.72-2.39-2.79-7.31C1362.79,766.69,1366,767.09,1367.18,772.94Z"/><path class="cls-3" d="M1385.78,761.51c-2.92,2.79-3.32,4.38-3.32,12.49,0,16.34,3.72,20.2,18.74,19.53,8.5-.39,8.5-.39,8.5-8.24s0-7.84-6.24-8.23c-7.31-.54-9,2.79-2.93,5.05,4.79,1.86,2,5.31-4.25,5.31-5.58,0-6.91-2.79-6.38-13.15.4-8.78.8-9.17,9.17-9.71,5.72-.39,6.65-.79,7-3.45s0-2.92-8.38-2.92C1390.17,758.19,1388.57,758.58,1385.78,761.51Z"/><path class="cls-3" d="M1415.68,775.46c0,9.44.4,17.28,1.07,17.41,12.75,1.33,21.39.93,22.06-1.06,1.33-3.46-1.47-5-8.91-5-6.77,0-6.91,0-7.31-4.39-.39-4-.26-4.25,4.12-4.25,4.79,0,8.51-2.79,6.91-5.32-.39-.66-3.19-1.33-6.11-1.33-5,0-5.31-.26-4.92-3.72s.54-3.58,7.84-3.19c6,.4,7.58,0,8.38-1.72,1.46-3.86-.4-4.65-12-4.65C1415.68,758.19,1415.68,758.19,1415.68,775.46Z"/><path class="cls-3" d="M1443.86,775.73c.4,16.61.53,17.67,3.05,17.67s2.66-.93,2.79-8.37c.14-4.65.54-8.77,1.07-9.17.93-.93,6,10,6.11,12.89a5.67,5.67,0,0,0,5.58,5.32c1.6,0,2.79-1.73,3.85-5.72,1.87-6.78,5-13.42,6.12-12.36.53.4.66,4.65.53,9.57-.27,8.37-.13,8.64,2.79,8.24s3.06-.8,3.45-18.07c.4-17.54.4-17.54-3.58-17.54-3.59,0-4.12.66-8.51,11.56-2.52,6.51-5.18,11.56-5.71,11.56s-3.06-5.32-5.32-11.3c-4-10.5-4.52-11.16-8.37-11.56C1443.46,758.05,1443.46,758.05,1443.86,775.73Z"/><path class="cls-3" d="M1486.38,775.73c.4,17.54.4,17.54,11.16,17.94,9.17.4,11,.13,11.7-1.86,1.33-3.46-1.33-5-8.91-5-6.77,0-6.91-.14-7.3-4.26s-.14-4.25,4.65-4.65c4.12-.26,5.18-.93,5.44-3.45s-.13-2.93-4.91-2.93-5.45-.26-5.45-3.32c0-3.59.4-3.85,9.7-3.32,6,.27,6.25,0,6.25-3.19,0-3.45,0-3.45-11.3-3.45S1486,758.19,1486.38,775.73Z"/><path class="cls-3" d="M1514.29,775.73c.4,17.67.4,17.67,3.72,17.67s3.32,0,2.92-11c-.39-13.56.14-13.56,10.9.4,6.38,8.1,9,10.63,11.43,10.63,3.32,0,3.32,0,3.72-17.68s.4-17.54-3.85-17.54-4.26,0-3.46,10.63c.53,5.72.4,10.9-.26,11.17s-4.92-4.39-9.57-10.5c-6.65-9-9-11.3-11.7-11.3C1514.29,758.19,1513.89,758.19,1514.29,775.73Z"/><path class="cls-3" d="M1549,760.31c-.93,2.66,1.73,4.52,6.65,4.52,3.58,0,3.58,0,3.58,14.75s0,14.62,3.72,14.22,3.59-.4,3.73-14.35.26-14,5.71-14.35c4.78-.4,5.45-.8,5.45-3.73,0-3.18,0-3.18-14-3.18C1552.16,758.19,1549.64,758.58,1549,760.31Z"/><path class="cls-3" d="M1243.73,808.82c-8.11,1.33-10.1,4.78-10.1,17.67,0,15.42,3.45,18.74,18.07,17.81,6-.4,6.51-.67,6.51-3.72s-.26-3.33-6.78-2.93c-8.9.67-10.1-.93-9.56-12.62.39-9,.39-9,8-9.44,7.17-.4,10.36-2.39,8.37-5.58C1257.28,808.42,1249.71,807.89,1243.73,808.82Z"/><path class="cls-3" d="M1271.63,808.82c-8.24,1.33-10.1,4.78-10.1,17.8,0,10.77.14,11.17,4.12,14.49,5.72,4.78,16.48,4.92,21.66.13,3.19-2.92,3.46-4,3.46-14.35C1290.77,810.94,1285.85,806.29,1271.63,808.82Zm10.9,8.24c2.13,1.59,2.13,17.14,0,19.26-2.53,2.53-11.43,2-12.89-.79s-1.46-14.75,0-17.81C1271.5,814.13,1278.28,813.87,1282.53,817.06Z"/><path class="cls-3" d="M1344.19,808.68c-5.85,1.33-9.57,4.92-9.57,9.31s3.32,6.77,13.16,10.1c7.31,2.39,10.36,5.71,7.84,8.23-2.26,2.26-11,2-13-.39a7.18,7.18,0,0,0-4.79-2c-8.9,0-1.86,9.17,7.84,10.23,20.87,2.4,25.38-15.28,5.58-21.52-12.09-3.72-11.29-9.44.93-7.84,5.19.66,6.51.53,7.18-1.33.53-1.33.4-2.79-.27-3.32C1357.21,808.42,1349,807.62,1344.19,808.68Z"/><path class="cls-3" d="M1562.53,808.42c-10.5.66-16.08,6.77-12,13.15,1.19,1.73,2.92,3.46,3.72,3.72,15.15,5.19,17,6.25,16.61,9-.53,3.72-11.56,5-14.35,1.6-2-2.4-7.45-2.66-8.77-.4-.54.79.79,3.05,3.32,5.31,7.44,6.65,25.51,4.39,27.51-3.59,2-7.7-3.59-13.15-16.35-15.94-9.57-2-6.38-6.65,4.65-6.65,6.65,0,7.58-.26,7.58-2.52C1574.49,809.08,1570.37,807.89,1562.53,808.42Z"/><path class="cls-3" d="M1296.75,826.22c0,17.68,0,17.68,3.32,17.68s3.32,0,2.92-11c-.39-13.56.14-13.56,10.9.4,6.38,8.1,9,10.63,11.43,10.63,3.32,0,3.32,0,3.72-17.68s.4-17.54-3.85-17.54-4.26,0-3.46,10.63c.53,5.72.4,10.9-.26,11.17s-4.92-4.39-9.57-10.5c-6.65-9-9-11.3-11.7-11.3C1296.75,808.68,1296.75,808.68,1296.75,826.22Z"/><path class="cls-3" d="M1367.84,818.92c0,16.08,1.07,20.19,5.85,23.12,5.72,3.45,15.28,3.32,19.93-.27,3.33-2.66,3.46-3,3.46-17.94,0-15.15,0-15.15-3.32-15.15s-3.32,0-3.32,13c0,14.35-.8,16.21-7.31,16.21s-7.31-1.86-7.31-16.21c0-13,0-13-4-13S1367.84,808.68,1367.84,818.92Z"/><path class="cls-3" d="M1404,826.22c.4,17.68.4,17.68,12.09,18.08,7.31.26,11.7-.14,11.83-1.07.53-4.38.13-4.65-8.24-5.31-8.64-.67-8.64-.67-8.64-14.62s0-13.95-3.72-14.35S1403.59,808.55,1404,826.22Z"/><path class="cls-3" d="M1422.33,811.87c0,2.93.66,3.32,5.71,3.72,5.58.4,5.58.4,5.58,14.36s0,13.95,4,13.95,4,0,3.46-14.22-.4-14.22,4.65-14.62c4.25-.26,5.31-.93,5.58-3.45.4-2.93.26-2.93-14.22-2.93C1422.33,808.68,1422.33,808.68,1422.33,811.87Z"/><path class="cls-3" d="M1459.4,812.27c-7.57,19.14-11.29,30.43-10.49,31.36,2.39,2.66,7.17.27,8.5-4.12,1.06-4,1.6-4.25,7-4.25s6,.4,7.84,4.65c1.47,3.59,2.66,4.65,5.32,4.65,4.25,0,4.25-.13-3.19-20.59-5.05-14.09-5.31-14.62-9.43-15C1461.53,808.55,1460.6,809.08,1459.4,812.27Zm7.45,11c2.52,4.79,1.72,6.65-2.79,6.65-3.46,0-4-1.73-1.86-7.18C1463.79,818.38,1464.32,818.38,1466.85,823.3Z"/><path class="cls-3" d="M1484.25,809.75c-.39.66-.26,8.77.14,18.07.79,16.88.79,16.88,4.25,16.48s3.85-2.26,2.39-19.14c-.53-4.92,2.79-2.39,10.9,8.37,6.38,8.51,9,11,11.56,11,3.19,0,3.19,0,3.19-18.07s0-17.94-3.59-17.54-3.72.4-3.19,11.29c.14,6.12-.13,11-.8,11s-4.91-5-9.56-11.29c-6.38-8.64-9-11.3-11.43-11.3C1486.38,808.68,1484.65,809.21,1484.25,809.75Z"/><path class="cls-3" d="M1519.87,810.68c-1.2,3.05.66,4.65,5.71,4.65,4.65,0,4.65,0,4.26,14.22s-.54,14.35,3.45,14.35,4,0,4-13.95.13-14,4.65-14.62c3.59-.53,4.78-1.33,5-3.72.4-2.93.13-2.93-13-2.93C1523.46,808.68,1520.4,809.08,1519.87,810.68Z"/></g></svg>