<svg xmlns="http://www.w3.org/2000/svg" viewBox="0 0 1200 630" width="1200" height="630">
  <rect width="1200" height="630" fill="#F4F4F0"/>
  <pattern id="grid" width="40" height="40" patternUnits="userSpaceOnUse">
    <path d="M 40 0 L 0 0 0 40" fill="none" stroke="#EAEAE5" stroke-width="1"/>
  </pattern>
  <rect width="1200" height="630" fill="url(#grid)"/>
  
  <text x="60" y="100" font-family="'Helvetica Neue', Helvetica, Arial, sans-serif" font-size="52" font-weight="bold" fill="#1A1A1A" letter-spacing="-1">THE 1% ILLUSION</text>
  <text x="62" y="140" font-family="'Helvetica Neue', Helvetica, Arial, sans-serif" font-size="18" font-weight="normal" fill="#1A1A1A" letter-spacing="4">STRUCTURE / RISK / REALITY</text>
  
  <g transform="translate(600, 115)">
    <rect x="0" y="0" width="35" height="35" fill="#D94F33"/>
    <rect x="40" y="0" width="35" height="35" fill="#8A9A86"/>
    <rect x="80" y="0" width="35" height="35" fill="#8A9A86"/>
    <rect x="120" y="0" width="35" height="35" fill="#8A9A86"/>
    <rect x="160" y="0" width="35" height="35" fill="#8A9A86"/>
    <rect x="200" y="0" width="35" height="35" fill="#8A9A86"/>
    <rect x="240" y="0" width="35" height="35" fill="#8A9A86"/>
    <rect x="280" y="0" width="35" height="35" fill="#8A9A86"/>
    <rect x="320" y="0" width="35" height="35" fill="#8A9A86"/>
    <rect x="360" y="0" width="35" height="35" fill="#8A9A86"/>
    <rect x="0" y="40" width="35" height="35" fill="#8A9A86"/>
    <rect x="40" y="40" width="35" height="35" fill="#8A9A86"/>
    <rect x="80" y="40" width="35" height="35" fill="#8A9A86"/>
    <rect x="120" y="40" width="35" height="35" fill="#8A9A86"/>
    <rect x="160" y="40" width="35" height="35" fill="#8A9A86"/>
    <rect x="200" y="40" width="35" height="35" fill="#8A9A86"/>
    <rect x="240" y="40" width="35" height="35" fill="#8A9A86"/>
    <rect x="280" y="40" width="35" height="35" fill="#8A9A86"/>
    <rect x="320" y="40" width="35" height="35" fill="#8A9A86"/>
    <rect x="360" y="40" width="35" height="35" fill="#8A9A86"/>
    <rect x="0" y="80" width="35" height="35" fill="#8A9A86"/>
    <rect x="40" y="80" width="35" height="35" fill="#8A9A86"/>
    <rect x="80" y="80" width="35" height="35" fill="#8A9A86"/>
    <rect x="120" y="80" width="35" height="35" fill="#8A9A86"/>
    <rect x="160" y="80" width="35" height="35" fill="#8A9A86"/>
    <rect x="200" y="80" width="35" height="35" fill="#8A9A86"/>
    <rect x="240" y="80" width="35" height="35" fill="#8A9A86"/>
    <rect x="280" y="80" width="35" height="35" fill="#8A9A86"/>
    <rect x="320" y="80" width="35" height="35" fill="#8A9A86"/>
    <rect x="360" y="80" width="35" height="35" fill="#8A9A86"/>
    <rect x="0" y="120" width="35" height="35" fill="#8A9A86"/>
    <rect x="40" y="120" width="35" height="35" fill="#8A9A86"/>
    <rect x="80" y="120" width="35" height="35" fill="#8A9A86"/>
    <rect x="120" y="120" width="35" height="35" fill="#8A9A86"/>
    <rect x="160" y="120" width="35" height="35" fill="#8A9A86"/>
    <rect x="200" y="120" width="35" height="35" fill="#8A9A86"/>
    <rect x="240" y="120" width="35" height="35" fill="#8A9A86"/>
    <rect x="280" y="120" width="35" height="35" fill="#8A9A86"/>
    <rect x="320" y="120" width="35" height="35" fill="#8A9A86"/>
    <rect x="360" y="120" width="35" height="35" fill="#8A9A86"/>
    <rect x="0" y="160" width="35" height="35" fill="#8A9A86"/>
    <rect x="40" y="160" width="35" height="35" fill="#8A9A86"/>
    <rect x="80" y="160" width="35" height="35" fill="#8A9A86"/>
    <rect x="120" y="160" width="35" height="35" fill="#8A9A86"/>
    <rect x="160" y="160" width="35" height="35" fill="#8A9A86"/>
    <rect x="200" y="160" width="35" height="35" fill="#8A9A86"/>
    <rect x="240" y="160" width="35" height="35" fill="#8A9A86"/>
    <rect x="280" y="160" width="35" height="35" fill="#8A9A86"/>
    <rect x="320" y="160" width="35" height="35" fill="#8A9A86"/>
    <rect x="360" y="160" width="35" height="35" fill="#8A9A86"/>
    <rect x="0" y="200" width="35" height="35" fill="#8A9A86"/>
    <rect x="40" y="200" width="35" height="35" fill="#8A9A86"/>
    <rect x="80" y="200" width="35" height="35" fill="#8A9A86"/>
    <rect x="120" y="200" width="35" height="35" fill="#8A9A86"/>
    <rect x="160" y="200" width="35" height="35" fill="#8A9A86"/>
    <rect x="200" y="200" width="35" height="35" fill="#8A9A86"/>
    <rect x="240" y="200" width="35" height="35" fill="#8A9A86"/>
    <rect x="280" y="200" width="35" height="35" fill="#8A9A86"/>
    <rect x="320" y="200" width="35" height="35" fill="#8A9A86"/>
    <rect x="360" y="200" width="35" height="35" fill="#8A9A86"/>
    <rect x="0" y="240" width="35" height="35" fill="#1A1A1A"/>
    <rect x="40" y="240" width="35" height="35" fill="#1A1A1A"/>
    <rect x="80" y="240" width="35" height="35" fill="#1A1A1A"/>
    <rect x="120" y="240" width="35" height="35" fill="#1A1A1A"/>
    <rect x="160" y="240" width="35" height="35" fill="#1A1A1A"/>
    <rect x="200" y="240" width="35" height="35" fill="#1A1A1A"/>
    <rect x="240" y="240" width="35" height="35" fill="#1A1A1A"/>
    <rect x="280" y="240" width="35" height="35" fill="#1A1A1A"/>
    <rect x="320" y="240" width="35" height="35" fill="#1A1A1A"/>
    <rect x="360" y="240" width="35" height="35" fill="#1A1A1A"/>
    <rect x="0" y="280" width="35" height="35" fill="#1A1A1A"/>
    <rect x="40" y="280" width="35" height="35" fill="#1A1A1A"/>
    <rect x="80" y="280" width="35" height="35" fill="#1A1A1A"/>
    <rect x="120" y="280" width="35" height="35" fill="#1A1A1A"/>
    <rect x="160" y="280" width="35" height="35" fill="#1A1A1A"/>
    <rect x="200" y="280" width="35" height="35" fill="#1A1A1A"/>
    <rect x="240" y="280" width="35" height="35" fill="#1A1A1A"/>
    <rect x="280" y="280" width="35" height="35" fill="#1A1A1A"/>
    <rect x="320" y="280" width="35" height="35" fill="#1A1A1A"/>
    <rect x="360" y="280" width="35" height="35" fill="#1A1A1A"/>
    <rect x="0" y="320" width="35" height="35" fill="#1A1A1A"/>
    <rect x="40" y="320" width="35" height="35" fill="#1A1A1A"/>
    <rect x="80" y="320" width="35" height="35" fill="#1A1A1A"/>
    <rect x="120" y="320" width="35" height="35" fill="#1A1A1A"/>
    <rect x="160" y="320" width="35" height="35" fill="#1A1A1A"/>
    <rect x="200" y="320" width="35" height="35" fill="#1A1A1A"/>
    <rect x="240" y="320" width="35" height="35" fill="#1A1A1A"/>
    <rect x="280" y="320" width="35" height="35" fill="#1A1A1A"/>
    <rect x="320" y="320" width="35" height="35" fill="#1A1A1A"/>
    <rect x="360" y="320" width="35" height="35" fill="#1A1A1A"/>
    <rect x="0" y="360" width="35" height="35" fill="#1A1A1A"/>
    <rect x="40" y="360" width="35" height="35" fill="#1A1A1A"/>
    <rect x="80" y="360" width="35" height="35" fill="#1A1A1A"/>
    <rect x="120" y="360" width="35" height="35" fill="#1A1A1A"/>
    <rect x="160" y="360" width="35" height="35" fill="#1A1A1A"/>
    <rect x="200" y="360" width="35" height="35" fill="#1A1A1A"/>
    <rect x="240" y="360" width="35" height="35" fill="#1A1A1A"/>
    <rect x="280" y="360" width="35" height="35" fill="#1A1A1A"/>
    <rect x="320" y="360" width="35" height="35" fill="#1A1A1A"/>
    <rect x="360" y="360" width="35" height="35" fill="#1A1A1A"/>
  </g>
  <rect x="60" y="475" width="20" height="20" fill="#D94F33"/>
  <text x="95" y="490" font-family="'Helvetica Neue', Helvetica, Arial, sans-serif" font-size="14" fill="#1A1A1A">THE 1% MONTHLY PROMISE</text>
  <rect x="60" y="515" width="20" height="20" fill="#8A9A86"/>
  <text x="95" y="530" font-family="'Helvetica Neue', Helvetica, Arial, sans-serif" font-size="14" fill="#1A1A1A">ACCUMULATED EQUITY</text>
  <rect x="60" y="555" width="20" height="20" fill="#1A1A1A"/>
  <text x="95" y="570" font-family="'Helvetica Neue', Helvetica, Arial, sans-serif" font-size="14" fill="#1A1A1A">LOCKED MINIMUM RESALE THRESHOLD / FORFEITURE RISK</text>
</svg>