<svg xmlns="http://www.w3.org/2000/svg" viewBox="0 0 3482.04 1189.23"><defs><style>.cls-1{fill:#fff;}</style></defs><g id="Layer_2" data-name="Layer 2"><g id="Layer_1-2" data-name="Layer 1"><path class="cls-1" d="M885.69,509.82c-1.05-231-3.67-305-11-304.53-4.73.53-41,29.4-79.81,64.06L724,332.88v38.33c0,21,1,169.58,2.1,330.25,1.57,275.12,2.1,290.87,15.23,283,72.45-44.11,147.53-117.09,147-142.29C887.27,827.47,886.22,677.83,885.69,509.82Z"/><path class="cls-1" d="M1883.8,891.52c-5.77-5.77-35.18-9.45-77.18-9.45s-71.4,3.68-77.18,9.45c-11,11-12.6,99.24-2.63,115.51,7.36,11,141.77,15.23,158,5.26C1896.4,1004.93,1895.35,903.08,1883.8,891.52ZM1846,984.46h-78.76V954.53c0-16.8,2.63-33.08,5.25-35.7,3.15-3.15,20.48-5.25,39.38-5.25H1846Z"/><path class="cls-1" d="M2254,954.53c-29.93,73.51-63.53,88.73-74,33.6-7.35-38.85-16.8-40.43-27.3-4.72-8.93,29.93-34.66,48.3-48.31,34.13-6.3-6.3-53.55-120.76-53.55-129.69,0-19.43,40.95-3.68,50.4,19.95,5.78,14.18,13.13,32.55,16.28,41,4.72,13.13,8.4,9.46,19.42-23.62,10-27.83,17.86-39.38,28.36-39.38,10,0,17.85,11.55,27.82,39.38,11,33.08,14.71,36.75,19.43,23.62,24.15-63,26.78-66.68,46.73-66.68C2283.89,882.07,2284.41,880.5,2254,954.53Z"/><path class="cls-1" d="M2584.74,1002.31c-2.1,16.8-5.25,17.33-73,16.28l-70.88-1.05-2.63-67.74-2.1-68.25,73,2.1c67.21,2.1,73.51,3.67,73.51,17.85,0,14.7,4.73,15.75-49.36,14.18-39.37-1.58-49.35.52-49.35,10,0,8.4,8.93,11.55,31.5,11.55s31.5,3.15,31.5,11.55c0,8.93-8.92,12.08-31.5,12.08s-31.5,3.15-31.5,11.55c0,9.45,11,12.08,52,12.08C2584.74,984.46,2587.36,985.51,2584.74,1002.31Z"/><path class="cls-1" d="M2891.36,994.43c-16.27-17.85-16.27-19.42-3.67-26.77,16.28-8.93,18.9-61.43,4.2-76.14-5.78-5.77-34.65-9.45-74.56-9.45H2751.7V953c0,70.35,0,70.88,20,69.3,15.76-1.57,19.43-6.3,19.43-23.63,0-31,30.45-29.92,54.08,1.58,10.5,14.18,24.15,23.63,35.18,23.63C2908.17,1023.84,2911.32,1015.44,2891.36,994.43Zm-31-67.2c-1.58,9.45-11.55,14.7-28.88,16.27-28.35,2.63-45.68-7.35-36.75-21.52C2804.21,906.75,2863.54,911.48,2860.39,927.23Z"/><path class="cls-1" d="M3137.61,1017c-64.58,2.63-67.21,2.1-69.31-14.7-2.62-17.33,0-17.85,53.56-17.85,68.25,0,76.13-18.9,9.45-21-63-1.58-89.78-37.28-54.6-72.46,16.8-16.8,136-8.4,136,10,0,12.6-6.82,14.7-47.25,15.75-63,1-64.58,15.75-2.63,20.47l49.88,3.68,2.1,31C3218.47,1012.29,3215.32,1013.86,3137.61,1017Z"/><path class="cls-1" d="M3208.49,286.15V409.53h204.77V538.17l-102.38-4.73-102.39-4.72V663.66L3344,660.51l135.46-3.16.53,61.44c0,33.6-2.63,60.9-5.78,60.9H3082.48V165.39H3482l-1.58,60.9-1.57,60.91-135.46-.53Z"/><path class="cls-1" d="M3019.48,165.39V778.64l-59.86,2.63c-74.56,3.15-69.83,17.32-63-179.57,3.15-88.21,2.63-160.66-1.05-160.66s-24.67,39.9-46.72,88.73-55.66,122.86-74.56,164.86l-34.13,76.66h-59.33l-58.8.52L2551.66,616.4c-97.13-214.74-92.93-214.22-89.78-7.35l2.62,171.69-61.43,1.58-60.9,1v-618H2474l100.81,216.32c56.18,119.18,104,216.84,106.59,216.84s15.75-24.15,28.87-53c13.13-29.4,58.28-127.06,100.81-216.84l77.71-163.29Z"/><path class="cls-1" d="M2286,675.21l-33.08,31.5c-218.94,209-583.33,16.28-534-282.48,34.13-205.29,258.32-327.1,444.19-241,50.4,23.1,116,73,116,88.21,0,8.4-87.16,82.95-97.13,82.95-2.1,0-15.23-10.5-28.88-23.62C2034,219.47,1834.45,325,1848.1,492c12.08,154.36,200,227.87,309.78,121.81L2182,590.15l52,42.53Z"/><path class="cls-1" d="M1562.48,882.07V901.5c0,17.33-3.15,20-27.31,20h-27.82v103.44l-21.53-2.63c-21-2.1-22-4.2-24.15-50.93-2.1-48.83-2.63-48.83-27.31-51.45-19.42-1.58-26.25-6.83-27.82-20-2.63-17.33-1-17.86,76.65-17.86Z"/><path class="cls-1" d="M1697.94,692.53c-16.28-45.15-63.53-182.19-104.49-304.52l-74-222.62H1361.91l-67.21,199c-36.75,109.21-83.48,246.77-104,305-21,58.28-37.8,108.69-37.8,111.31,0,3.15,27.3,4.2,60.91,2.1,33.6-1.57,63.53-3.15,66.68-3.15s15.22-29.93,26.77-67.21l21-66.68H1553l22.58,67.73,22.58,67.21,64.58,2.1c35.7,1,65.1,0,65.1-3.15C1727.86,777.07,1714.21,737.69,1697.94,692.53ZM1440.67,527.67c-37.28,0-67.21-2.63-67.21-5.78S1388.16,472,1406,419c17.33-53.55,34.13-95,36.23-92.93,4.73,4.73,65.11,186.39,65.11,195.84C1507.35,525,1477.42,527.67,1440.67,527.67Z"/><path class="cls-1" d="M651,1066.89l-73,58.28c-40.43,31.5-77.19,59.33-81.91,60.91-6.3,2.62-8.4-147-6.83-526.62l1.58-529.78,69.3-64.58C598,29.4,632.1.52,635.25,0,638.4,0,641,176.41,641,392.73c0,215.8,2.1,455.74,4.73,533.45Z"/><path class="cls-1" d="M394.78,1189.23c-3.68,0-40.43-27.31-81.39-60.38l-75.6-60.91,2.62-534c2.1-349.16,5.78-534,11-533.45,4.2,0,38.33,29.41,76.13,65.11l68.78,65.1L398.45,660C400,950.86,397.93,1189.23,394.78,1189.23Z"/><path class="cls-1" d="M162.71,336.55l-1.58,326.06c-1,179-2.62,326.57-4.2,328.15s-31-19.43-64.58-47.26C58.22,916.2,23,888.37,14.12,882.07-1.63,870.52-5.83,195.84,9.92,197.42c2.62,0,38.33,31.5,78.75,69.83Z"/></g></g></svg>