<svg id="Layer_1" data-name="Layer 1" xmlns="http://www.w3.org/2000/svg" viewBox="0 0 4186.55 2157.65"><defs><style>.cls-1{fill:#d4b300;}</style></defs><g id="_1b1b1bff" data-name="#1b1b1bff"><path class="cls-1" d="M2755.13,553.18c19.26,30,35.41,61.93,53.49,92.65q56.21,99.34,112.49,198.58-165.45.26-330.88,0C2645,747.24,2700.28,650.36,2755.13,553.18Z"/><path class="cls-1" d="M680.11,1460.49c35.15-210,69.58-420.13,105.22-630,67.63.36,135.29,0,202.95.13,57.14.29,115.28-2.61,171.15,11.92,45.74,11.17,90.14,34.89,118.35,73.53,31.6,42.57,41.14,97.27,40.36,149.23-.94,71.17-19.64,141.44-49.25,205.91-22.25,46.32-53.43,89-94.21,120.76-47.76,37.56-107.08,58.41-167.12,65.15-35.57,4.43-71.5,3.29-107.3,3.42H680.11M953.45,977.65q-28.05,167.89-56,335.79c35-.62,71.14,3,105-8.17,37.6-11,68.54-39.06,86.66-73.4,24.72-46.91,33.35-100.72,34.27-153.24-.59-29-5.45-63.94-32.71-80.3C1049.78,972.93,999.45,978.43,953.45,977.65Z"/><path class="cls-1" d="M1412.12,830.6q96.42,0,192.89,0-40.27,241.44-80.43,482.87c88.31-.09,176.62,0,264.94-.06-8.21,49-16.19,98.12-24.63,147.15q-228.83-.25-457.66-.07Q1359.52,1145.52,1412.12,830.6Z"/><path class="cls-1" d="M1923,830.6q229,0,457.92,0c-8.05,49-16.38,97.86-24.4,146.82-88.34.55-176.69,0-265.07.29q-9.43,57.22-19.06,114.44c70.3,0,140.6.3,210.9-.16-7.62,49.09-16.35,98-24.24,147.11-70.36.17-140.76,0-211.12.1q-18.37,110.63-36.81,221.29-96.51,0-193,0Q1870.55,1145.53,1923,830.6Z"/><path class="cls-1" d="M2603.13,866.6q152.57-.11,305.11,0-76.12,134.67-152.49,269.18Q2679.13,1001.37,2603.13,866.6Z"/><path class="cls-1" d="M2419.05,1146.46q79.65-139.85,158.9-280,79.61,140,159,280.15C2631,1146.56,2525,1146.91,2419.05,1146.46Z"/><path class="cls-1" d="M2773.93,1146.56q79.61-139.9,158.91-280.06,79.54,140,158.93,280.19C2985.8,1146.56,2879.87,1146.85,2773.93,1146.56Z"/><path class="cls-1" d="M2406.6,1168.58c55.58,97,110.5,194.51,165.62,291.81q-165.51.1-330.94,0Q2323.81,1314.4,2406.6,1168.58Z"/><path class="cls-1" d="M2432,1168.74c101.74.16,203.47,0,305.21.06-49.91,88.35-100.24,176.47-150,264.88-1.53,5.83-5.63.33-6.45-2.28C2531.4,1343.71,2481.5,1256.34,2432,1168.74Z"/><path class="cls-1" d="M2774.19,1168.84q152.55-.1,305.17,0-76.28,134.63-152.62,269.21Q2850.52,1303.4,2774.19,1168.84Z"/><path class="cls-1" d="M3104,1169c27.3,44.63,51.8,91,78.09,136.23q43.92,77.65,88,155.16-165.54,0-331.06,0C2994,1363.19,3049.23,1266.24,3104,1169Z"/><path class="cls-1" d="M2755.75,1180.08c53.79,92.94,105.91,186.88,158.81,280.34q-158.66.06-317.29,0C2650,1366.9,2703.34,1273.76,2755.75,1180.08Z"/></g></svg>