<svg id="Layer_1" data-name="Layer 1" xmlns="http://www.w3.org/2000/svg" viewBox="0 0 4284.6 2208.18"><defs><style>.cls-1{fill:#d4b300;}</style></defs><g id="Page-1"><path id="Shape" class="cls-1" d="M895.32,1507.85l-11.52,76.34H332.68c22.8-52.81,21.36-82.58,21.36-120.74V938.73c0-37,1.44-69.37-21.36-120.74H870.35l1,77.77c-10.08-4.08-18.24-7.68-25.68-11-19.92-7.44-45.13-14.4-71.29-14.16H479.58v300H825.47l-17,59.05H479.58v300.29h311.8c52.57,1,104.9-28.81,104.9-28.81l-1.44,6.48C894.84,1507.85,895.08,1507.85,895.32,1507.85Zm829.56,76.34c7.44-37.69,7.44-91,1.44-134.42l-49-361L1410,1584h-50.88l-271.72-517.52-52.81,391.26c-5.76,45.12-7.44,102.25-2.64,126.5H936.36c18.49-39.13,23-56.17,31.69-120.5L1054.46,818h43.93l317.08,602.49L1732.32,818h33.13l89.29,644.26c8.88,64.09,15.6,82.57,33.36,121.94Zm804.84,0L2402.5,1303.58H2146.62l-125.54,280.61h-99.85c31.68-39.37,42.48-57.61,64.81-106.58L2282.72,818h33.37L2608,1459.13c31.2,62.65,45.85,82.09,90.49,125.06Zm800.51,0L3203,1303.58H2947.14L2821.6,1584.19h-99.85c31.68-39.37,42.48-57.61,64.8-106.58L3083.24,818h33.36l292.13,641.14c31.2,62.65,45.84,82.09,90.49,125.06Zm725.39.48c-76.57-69.86-175.71-162.51-299.8-309.41-35.53-41.53-60.49-46.81-76.57-47.77v236c0,37.92,0,67.93,21.6,120.74H3532.34c22.81-52.81,21.37-82.58,21.37-120.74V938.25c0-37,1.44-69.37-21.37-120.74h165.15c112.81,0,379.49-10.08,379.49,210.27,0,116.42-92.41,179.07-200.91,194.91l-32.16,3.12s351.89,344,367,358.86Zm-199.47-405.9-.24.24c71.05-26.89,95.06-94.34,92.65-151.47-2.64-55-27.36-174.5-269.07-164.9v326.69s135.38,7.44,173.3-9.12C3855,1179.25,3856.15,1178.77,3856.15,1178.77Zm-884.53,71.29h206.67L3074.12,1021.3Zm-800.28,0H2378L2273.84,1021.3Z"/></g></svg>