<svg id="Layer_1" data-name="Layer 1" xmlns="http://www.w3.org/2000/svg" viewBox="0 0 4366.3 2250.28"><defs><style>.cls-1{fill:#d4b300;}</style></defs><path class="cls-1" d="M645.83,698a265.2,265.2,0,0,1-31.76,2.58c-9.73.28-22.32,2.28-27.76,4.57-5.72,2.29-15.16,4.3-21.17,4.3s-13.45,2-16.31,4.29A25.59,25.59,0,0,1,536,718a40.45,40.45,0,0,0-14.59,4.29,39.22,39.22,0,0,1-13.17,4.3,14.62,14.62,0,0,0-9.73,4.29c-2,2.29-7.15,4.29-11.73,4.29-4.29,0-8.87,1.14-9.73,2.86-.86,1.43-8.87,6.3-17.17,10.3-8.58,4-16.31,8.3-17.17,10-1.14,1.43-4.29,2.57-7.44,2.57-2.86,0-5.43,1.43-5.43,2.86,0,1.72-2.86,4.3-6.3,5.73-12.87,5.72-36.34,22.32-48.93,34.91-4.29,4.29-8.87,8-10,8s-4.3,2.29-6.59,4.86c-2.57,2.87-7.72,7.73-11.44,11.16-9.73,8.59-31.19,31.77-31.19,33.77,0,.86-2.29,4-4.87,7.15-12.87,13.17-20.89,24-20.89,27.76a8.1,8.1,0,0,1-3.72,6c-2.28,1.14-7.72,8.58-12.3,16.6-4.58,7.72-9.73,16.88-11.73,20a66.29,66.29,0,0,0-5.15,10c-1.15,2.29-3.15,6.3-4.58,8.59A59.2,59.2,0,0,0,247.8,967a134.74,134.74,0,0,1-5.73,12.31c-2,4.57-4,10-4,12s-1.72,7.44-4,12c-6.29,12.88-10.59,26.9-13.73,43.78-1.43,8.59-3.72,16.89-5.44,18.32-1.43,1.71-2.58,8.87-2.58,16s-2,20.89-4.57,30c-6.59,23.18-6.59,81.26,0,110.17,2.57,11.73,4.57,25.46,4.57,30.33s2,13.73,4.3,19.17c2.29,5.72,4.29,14.88,4.29,20,0,5.44,2,11.45,4.29,13.45s4.29,7.72,4.29,12.88,2,10.87,4.3,12.87,4.29,6.58,4.29,10,2,8,4.29,10,4.29,6.58,4.29,10,2,8,4.29,10,4.3,6,4.3,8.87,1.43,6,3.14,6.87a27.72,27.72,0,0,1,5.73,8,118.57,118.57,0,0,0,8.3,14.88,136.66,136.66,0,0,1,7.72,12.88,79.85,79.85,0,0,0,4.29,7.15c1.43,1.43,8.59,11.16,16.31,21.47s19.75,24.89,27.19,32.62c7.15,7.44,13.16,14.88,13.16,16.31a2.33,2.33,0,0,0,2.29,2.57c1.15,0,6.58,4.29,12.31,9.45,22.6,20,39.48,33.47,42.06,33.47,1.72,0,3.43,2,4.58,4.3a6.84,6.84,0,0,0,5.72,4.29,9.34,9.34,0,0,1,6.58,3.43c2.29,3.72,6,6,40.92,24.33,10.3,5.43,19.75,10.87,21.46,12.59,1.43,1.43,6,2.57,10.3,2.57s9.16,2,11.16,4.29a14.63,14.63,0,0,0,9.73,4.3,39,39,0,0,1,13.17,4.29,40.45,40.45,0,0,0,14.59,4.29,25.59,25.59,0,0,1,12.88,4.29c2.86,2.29,10.3,4.3,16,4.3a69.36,69.36,0,0,1,21.46,4c18.89,6.87,85.85,10,133.92,6,23.75-2,48.65-5.15,55.8-7.15s20.6-5.44,30.05-7.73,20.88-6,25.18-8.3c4.58-2.29,11.16-4,14.88-4,3.43,0,8-2,10-4.3s5.15-4.29,6.87-4.29c4.86.29,57.23-26.61,59.8-30.9,1.15-1.72,4.87-3.44,8-3.44s6.29-2,7.15-4.29c1.15-2.29,3.72-4.29,5.72-4.29a6.85,6.85,0,0,0,5.73-4.29c1.14-2.29,3.14-4.3,4.86-4.3,2.86,0,23.75-16,35.2-27.18,3.15-3.15,11.44-10.87,18.31-16.88s18.89-18.89,26.61-28.62c8-9.73,16.31-18.88,18.6-20.89s3.44-5.43,2.58-8c-1.15-2.57-.29-4.29,2.57-4.29,2.29,0,5.44-3.15,6.87-7.15s4-7.16,5.44-7.16,3.15-2.29,4.29-5.15c.86-2.57,4.29-8.87,7.44-13.45,3.15-4.86,6.3-10.3,7.15-12,.86-2,2-5.43,2.87-7.15.85-2,4.57-9.44,8.58-16.31s7.15-14.31,7.15-16c0-2,2-5.16,4.3-7.16s4.29-7.15,4.29-11.44,2-9.45,4.29-11.45,4.29-6.87,4.29-11.16c0-4,2-11.16,4.3-15.74,2.28-4.29,4.29-11.73,4.29-16.31,0-4.29,1.71-13.73,4-20.32,2.29-6.86,4.87-21.46,5.73-32.33.86-11.16,2.57-29.47,3.72-41.21,2-23.75-3.44-100.15-8.3-113.31-1.72-4.87-4-15.45-4.87-23.75-1.14-8-3.43-16.31-5.43-18.32s-3.44-6.86-3.44-10.87a26.56,26.56,0,0,0-4.29-13.16c-2.29-2.86-4.29-8.87-4.29-12.88,0-4.29-2-9.16-4.29-11.16s-4.3-5.72-4.3-8.58-2-6.59-4.29-8.59-4.29-6.58-4.29-10.59c0-3.72-2-7.44-4.29-8.29a8.21,8.21,0,0,1-4.29-6.87c0-3.15-1.44-6.3-3.15-7.16-1.43-1.14-4-4.86-5.73-8-3.43-8-7.72-15.16-17.45-28-4.58-5.72-8-11.45-8-12.59,0-2-1.15-3.44-30.62-35.48-20.32-22.61-66.67-63.24-71.54-63.24-2,0-3.72-1.43-3.72-2.86,0-1.72-2.29-4-4.86-4.87-4.58-1.72-20.32-11.73-23.75-15.17-.86-.85-6.58-4-12.88-7.15s-17.74-9.16-25.18-13.45c-7.44-4.58-16-8-18.89-8s-6.87-2-8.87-4.29-6.87-4.29-11.16-4.29c-4,0-10-2-12.87-4.3A25.62,25.62,0,0,0,819.24,718a40.55,40.55,0,0,1-14.6-4.29c-4-2.29-12-4-18-4.29-6,0-13.74-1.43-17.17-3.44C758.86,700.29,667,694.28,645.83,698ZM762,733.77c6.58,2.29,15.16,4.29,19.46,4.29,4,0,11.16,2,15.73,4.29,4.3,2.29,11.74,4.3,16,4.3s9.44,2,11.45,4.29,7.15,4.29,11.44,4.29,9.44,2,11.45,4.29,5.15,4.29,7.15,4.29c4.29,0,35.48,16.32,41.78,21.75a15.43,15.43,0,0,0,9.16,4c2.57,0,5.15,1.14,6,2.57s8.58,7.16,16.59,12.59c8.3,5.73,20,14.6,25.76,20,6,5.16,17.16,14.6,24.89,20.89,8,6,14.31,12.31,14.59,14,0,1.43,3.44,6,7.44,9.72,4,4,12,12.88,17.75,20,6,7.16,12.3,14.31,14.3,15.46,1.72,1.14,3.44,3.72,3.44,5.43,0,1.43,4,7.73,8.58,13.74,4.87,6,8.59,12.88,8.59,15.45s1.14,4.58,2.57,4.58,6,6.87,10,15.45,8.87,16.6,10.3,17.46c1.71.86,2.86,4.86,2.86,8.3,0,3.72,2,8.29,4.29,10.3s4.29,6.58,4.29,10,2,8,4.3,10,4.29,7.72,4.29,12.59,2,11.44,4.29,14.31c2.29,3.14,4.29,10,4.29,15.16a65.51,65.51,0,0,0,4,20c10.87,29.19,10.87,160,0,177.41-2.29,3.44-4,11.45-4,17.46s-2,13.45-4.29,16.6c-2.29,2.86-4.29,8.87-4.29,12.87a25.59,25.59,0,0,1-4.29,12.88c-2.29,2.86-4.3,7.73-4.3,10.3,0,4-3.14,11.73-11.73,28-1.43,2.29-5.72,10.59-9.73,18.6-8,15.46-11.44,21.18-28,45.5-28.9,42.35-85.27,95.29-133.06,125.34-14.88,9.15-46.93,25.18-50.65,25.18-2,0-5.15,2-7.15,4.29s-7.16,4.29-11.45,4.29-9.44,1.72-11.16,4-7.44,4.58-12.59,5.43-14.88,3.15-22,4.87c-34.63,9.16-47.22,11.16-83,13.73-22.6,1.72-45.21,2-54.36.58a248.64,248.64,0,0,0-33.48-2.58c-9.73-.28-21.18-1.72-25.76-3.72-4.29-1.72-14.31-4-22.32-5.15a143.24,143.24,0,0,1-42.35-13.16c-4.58-2.29-10-4-12.59-4-3.72,0-10.59-2.86-26.61-11.73-2.29-1.15-11.45-5.72-20-9.73a194.17,194.17,0,0,1-24.32-13.73,129.48,129.48,0,0,0-16-10c-4-2-12-8.3-18-13.74-5.72-5.43-11.44-9.72-12.59-9.72s-4.29-2.29-6.58-5.16c-2.57-2.57-12.87-12-22.6-20.6-17.74-15.45-63-72.39-74.4-93.57-3.44-6-7.16-12.88-8.59-15.17a57.43,57.43,0,0,1-4-8.58c-.86-2.29-2.86-6.29-4-8.58a146.28,146.28,0,0,1-7.44-15.74c-2.86-6.3-6.87-15.17-9.16-19.46-2.29-4.58-4-10.87-4-14.31a22.68,22.68,0,0,0-4.29-11.73c-2.29-3.15-4.3-9.73-4.3-14.31-.28-4.86-2-12-4.29-16s-4.29-13.74-4.29-21.46c0-8-2-21.46-4.29-30-4.87-17.74-5.44-65.24-1.15-87.28,1.43-8,3.72-23.46,4.87-34.62s3.43-22.32,5.43-24.32c1.72-2.29,3.72-9.16,4.58-15.45,1.43-12,5.72-26,12.31-39.49,2.29-4.58,4-10.59,4-13.74s2-6.29,4.29-7.15c2.29-1.15,4.3-4.58,4.3-8.3,0-3.43,2-8,4.29-10s4.29-6,4.29-8.87,1.43-6,3.15-6.86a27.65,27.65,0,0,0,5.72-8c4.58-10,10.3-19.74,13.17-21.74,1.14-.86,4.57-6,7.72-11.45,2.86-5.44,7.44-12,10-14.59,14.88-16,20.31-22.61,20.31-24.9,0-6.58,83-78.12,91-78.12,1.72,0,3.43-1.14,3.43-2.57s6.87-6,15.17-10c8-4.29,16.88-8.58,19.17-10a60.42,60.42,0,0,1,8.59-4.3,59.71,59.71,0,0,0,8.58-4.29c14-7.72,22.89-11.73,28-11.73a13.79,13.79,0,0,0,9.16-4.29c2-2.29,7.15-4.29,11.45-4.29s11.73-2,16-4.3A46.05,46.05,0,0,1,572,738.06a51,51,0,0,0,17.17-3.43c12.88-5.44,49.51-7.44,107.31-6.3C733.39,729.19,753.71,730.91,762,733.77Z"/><path class="cls-1" d="M607.2,874.55v95c0,65.53-.86,93.57-3.15,96.43-2.57,3.15-11.73,4-37.48,4-23.75,0-36.92,1.43-44.36,4.29-5.43,2.29-13.73,4.29-18,4.29s-9.45,2-11.45,4.29-5.72,4.29-8.58,4.29-6.58,2-8.59,4.3-4.86,4.29-6.29,4.29c-4.3,0-24.9,16.6-38.06,30.9-11.16,11.74-24.32,32-30.05,46.36a95.73,95.73,0,0,1-5.72,12c-1.72,2.86-2.86,8.3-2.86,12.3s-2,12-4.29,17.74c-5.73,14-6,80.41,0,96.72a86.47,86.47,0,0,1,4.29,20.32c0,4.86,2,10.59,4.29,12.59s4.29,6.58,4.29,10.3c0,3.44,1.15,7.15,2.58,8.3,1.72.86,5.72,7.73,9.44,14.88,6.87,14,45.79,55.23,52.37,55.23,2,0,5.15,2,7.15,4.29s5.72,4.29,8.59,4.29,6.58,2,8.58,4.29,7.44,4.3,12,4.3a33.24,33.24,0,0,1,14.88,4.29c5.72,3.72,21.75,4.29,110.17,3.72l103.58-.86v-82.41l.29-82.41-60.67-.58c-37.77-.28-61.52.58-62.95,2.29-1.14,1.43-2,8-1.72,14.31l.29,11.45,44.35.86c24.33.28,46.07,1.43,48.08,2,2.86,1.14,3.43,13.16,2.86,53.51l-.86,52.36-85.85.86c-71.82.57-87.27,0-95-3.72-5.15-2.29-14.3-6.58-20-9.15-17.45-8-52.36-36.92-52.36-43.79a4.35,4.35,0,0,0-2-3.43c-4.57-1.72-15.16-19.46-15.16-24.61a13.77,13.77,0,0,0-4.29-9.15c-2.29-2-4.3-7.73-4.3-12.6-.28-4.86-2-12-4.29-16-5.15-8.87-5.72-65.24-1.14-80.12,1.71-5.44,4.29-14.6,5.43-20,4.58-18.6,10-30.62,22-46.36,21.17-28,31.19-37.48,46.64-43.78,2.29-1.14,6.58-3.15,9.44-4.58,16.31-8.87,42.07-14,69.25-14,15.74,0,30.62,1.43,32.91,2.86,3.72,2.29,4.29,14.31,4.86,76.4l.58,73.83,14.59.86,14.31.86.57-76.69.86-76.69,119.61-.86c103-.57,120.47,0,125.9,3.72,3.44,2.29,8.3,4.3,10.88,4.3,5.72,0,31.19,24.32,31.19,29.75,0,2,2,5.44,4.29,7.44s4.29,6.87,4.29,11.16c0,4,2,10,4.29,12.88,5.73,7.44,5.44,33.19,0,46.64-2.28,5.44-4.29,13.74-4.29,18s-2,9.44-4.29,11.45-4.29,5.43-4.29,7.72c0,2-2,4.58-4.29,5.44-2.29,1.14-4.3,2.86-4.3,4.29,0,3.15-10.58,14-13.73,14-1.15,0-3.72,1.43-5.44,3.15-2,2-10.3,5.72-18.6,8.87-12.88,4.58-22.32,5.15-61,4.87l-45.78-.58-.86,14.88-.86,14.6h48.07c34.34-.29,51.22-1.43,59.52-4.29,6.3-2.29,15.17-4.3,19.46-4.3s8.59-2,9.44-4.29a8.14,8.14,0,0,1,6.59-4.29c2.57,0,10.58-6,17.74-13.16,6.86-7.16,14.88-15.17,17.74-17.75,2.57-2.57,4.86-7.44,4.86-10.87s1.43-6.87,2.86-7.44c3.72-1.14,11.16-31.48,13.45-54.65,1.72-17.17-4.57-50.37-12.3-65.82-2.29-4.58-4-10-4-12s-2-4.29-4.29-5.43c-2.29-.86-4.29-3.15-4.29-5.15,0-4.87-19.46-22.32-30.62-26.9-10.3-4.58-12.59-12.88-5.44-20.89,9.73-10.87,18.89-32,18.89-42.92,0-6.59,1.14-11.74,2.57-11.74,4,0,5.73-26.61,2.87-38.91-1.72-6-4-16.31-5.15-22.61-3.72-19.74-14.6-38.34-31.19-52.94-8.88-8-18.32-14.3-20.89-14.3s-6.3-2-8.3-4.3c-3.15-3.72-21.46-4.29-131.92-4.29C665,872.55,607.2,873.41,607.2,874.55ZM859,905.46c2,2.29,4.87,4.29,6.3,4.29,3.72,0,25.18,21.46,25.18,25.18,0,1.43,1.72,4.29,4,6s4.57,7.44,5.43,12.59,2.86,16,4.58,24.61c2.29,12,2,17.46-1.14,25.47-2.29,5.44-4.3,12.88-4.3,16.31s-2,8-4.29,10-4.29,5.16-4.29,6.87c0,4.87-19.74,22.61-31.48,28.62-9.15,4.29-20,4.86-115.89,4l-105.87-.86-.86-80.12c-.29-44.06,0-81.55.86-83.55.86-2.86,24.89-3.72,109.59-3.72C839.84,901.17,855.87,901.74,859,905.46Z"/><path class="cls-1" d="M1391.51,908.73c-38.28,11.72-62.88,23.83-89,43.36-22.66,16.79-66.8,72.65-66.8,84,0,3.51-2,8.59-4.3,10.94-5.86,5.85-15.23,57-15.23,83.2,0,30.07,9,69.52,21.09,94.13,33.2,65.63,80.86,103.52,160.54,127,31.25,9,139.45,9.38,166,.39,9.77-3.12,22.66-7,28.91-8.2,5.86-1.56,15.23-5.47,20.31-9l9.38-5.86-.78-114.06-1.18-113.67-82-1.17c-44.92-.39-85.93,0-90.62,1.17-7.81,1.95-8.59,4.3-8.2,36.33,0,18.75,2,36.32,3.91,38.67,2.73,3.51,16.79,5.08,44.53,5.08h40.62v40.62c0,32.81-1.17,41.4-6.64,45.7-9.77,8.59-80.08,7-104.69-1.56-76.16-27.74-116.79-90.62-103.51-161.72,5.86-32.42,12.11-44.13,36.33-69.91,23.44-25,50-38.68,93.75-46.88,32-6.25,36.32-6.25,72.26,0,36.72,6.64,58.2,13.28,78.9,23.83,5.47,3.12,12.11,4.3,14.46,2.73,4.29-2.73,7-73,3.12-83.59-2.34-5.47-11.72-10.54-44.92-22.65-8.59-3.13-38.67-5.47-80.07-6.25C1427.06,900.14,1418.47,900.53,1391.51,908.73Z"/><path class="cls-1" d="M1699.71,908c-6.64,3.51-7,18.36-7,219.52,0,162.89,1.17,217.18,4.68,220.7,7,7,202.34,6.25,243.75-1.17,33.2-5.86,62.88-19.14,80.07-35.55,27.73-26.56,43.75-93.75,29.3-123-3.52-6.64-6.25-14.46-6.25-16.41,0-7.42-26.56-36.33-40.63-43.75-7.81-4.29-14.06-9.37-14.06-11.72,0-2,6.64-10.54,14.84-18.35,39.07-37.89,36.72-106.64-5.07-149.61-24.61-25.39-45.31-34.76-89.84-40.23S1708.69,902.48,1699.71,908Zm229.68,95.31c10.15,8.2,11.32,11.32,11.32,32.81,0,18.75-1.56,25.39-7.81,31.64-10.54,10.54-43,15.62-98.43,15.62-53.12,0-52.73.39-51.17-51.95l1.17-35.94,50.78-2C1902,990.76,1915.72,992.32,1929.39,1003.26Zm-2,162.49c23.44,7,36.72,23.83,36.72,45.7,0,20.71-8.2,34.77-27.34,46.49-10.16,5.86-21.48,7-78.12,7.81-42.19.39-68-.78-71.09-3.52-3.52-2.73-5.08-16-5.08-43.75,0-62.1-5.86-57,67.57-57C1885.64,1161.45,1918.84,1163.41,1927.43,1165.75Z"/><path class="cls-1" d="M2232.89,907.56l-9,3.51v216.4c0,162.89,1.17,217.18,4.69,220.7,2.73,2.73,9.37,4.68,15.23,4.68,7.81,0,10.94-2.34,12.5-9,1.17-4.69,2-45.31,2-90.23,0-50.39,1.56-82.81,4.3-85.54,2.34-2.35,23.44-3.91,49.22-3.91,39.84,0,45.7.78,50.78,7.42,10.15,12.89,50.78,71.87,55.46,80.47,2.35,4.29,5.86,9,7.81,10.54,1.57,1.18,11.72,15.63,22.66,31.64,40.23,60.94,37.5,58.59,70.7,58.59,26.95,0,29.3-.78,33.59-9.76,6.64-14.45-1.56-21.48-24.21-21.48-21.49,0-19.53,2-66.8-68.36-34.37-50.78-47.65-69.53-50.78-72.26-1.56-1.18-3.51-5.86-5.08-10.94-2.34-6.25-1.17-9.38,4.3-11.33,46.09-16,73.83-37.89,89.84-70.7,9-18.75,10.55-27.34,10.55-53.51s-1.56-34.77-10.94-53.52c-10.94-23-45.31-57.81-57-57.81a17,17,0,0,1-10.55-4.3c-2.34-2.34-12.1-5.85-21.48-7.81C2386,906,2243.05,903.26,2232.89,907.56Zm178.9,35.54c29.3,11.33,41.41,21.1,54.3,43.75,9.76,17.19,11.72,24.61,11.72,47.66s-2,30.46-11.72,47.65c-12.5,21.87-23.44,30.86-52.34,43.75-16.8,7.42-26.17,8.2-84.77,8.2-38.28,0-66.4-1.56-68-3.9-3.91-6.25-5.08-180.86-1.18-188.67,3.13-5.86,10.55-6.64,67.58-6.64C2382.89,934.9,2394.22,936.07,2411.79,943.1Z"/><path class="cls-1" d="M2630.15,907.17l-9.77,2.73-1.17,212.49c-.39,117.19,0,216.79,1.17,221.48l1.95,9h112.5c109,0,112.89-.39,121.48-8.2,4.69-4.29,8.2-10.94,7.42-14.45-1.17-5.86-12.5-7-104.68-8.59l-103.52-2v-195.3l97.66-2,97.65-2V1097l-93.36-1.17c-61.71-.39-95.3-2.34-98.82-5.47-4.3-3.12-5.08-19.92-4.3-78.9l1.17-74.61,104.69-1.17,104.29-.78V921.62c0-8.59-2.34-14.06-6.25-15.63C2849.67,902.87,2642.25,903.65,2630.15,907.17Z"/><path class="cls-1" d="M3098.88,912.24c-43,5.08-9,13.29-10.55,18.75a97.24,97.24,0,0,1-7,19.53c-7,14.07-15.62,34.38-23.43,54.69-3.91,9.77-9.38,23.44-12.5,30.08-2.74,7-7.82,18.36-10.55,25.39-3.13,7-8.59,19.92-12.5,28.51-3.52,8.6-9,21.49-12.11,28.13-2.73,7-7.42,18.75-10.55,25.39-3.12,7-13.67,33.2-23.82,57.81s-21.1,50.78-23.83,57.42c-9.77,21.87-16.41,37.89-23.05,53.9-3.51,8.59-7.81,18.75-9.76,22.27-7.81,13.67-4.69,18.74,10.94,18.74,14.84,0,28.12-9,28.12-18.74,0-2.35,2.73-10.94,6.25-19.14s9-20.71,12.11-27.35c29.68-69.53,32.42-75.39,37.5-75.39,183.58-2,197.65-1.56,205.85,5.86,4.3,3.91,7.81,9.77,7.81,12.89,0,2.74,2.34,10.16,5.47,15.63a263.87,263.87,0,0,1,12.11,28.12c8.59,22.27,14.45,36.33,25.39,59.38,7.81,17.57,9.37,18.74,23.83,18.74,21.87,0,21.87-1.56-7.82-67.57-6.64-14.45-12.11-28.13-12.11-30.47s-2.34-9-5.07-14.45c-5.08-10.16-12.5-26.17-23.44-52.73-2.73-6.64-8.2-18.75-11.33-26.18-3.51-7.42-14.45-34-24.61-58.59-9.76-24.61-20.7-50.78-23.82-57.81-13.28-31.64-18.36-42.57-23.44-52.73-3.13-6.25-5.47-14.06-5.47-18,0-3.51-1.56-8.2-3.51-10.54-2-2-7.43-13.29-12.5-25C3126.61,902.48,3114.89,895.06,3098.88,912.24Zm23.44,64.46c0,3.12,2.34,10.54,5.07,16,7,13.67,15.63,33.59,24.22,55.47,3.91,9.76,9.38,23.82,12.89,31.25,3.13,7.42,8.21,19.53,10.94,26.56,5.86,14.06,12.89,30.47,22.65,52.73,3.52,8.2,5.47,16.8,4.3,18.75-1.56,2-39.45,3.52-88.28,3.52-97.65,0-95.7.78-81.24-30.08,10.54-23.05,16.4-36.72,25-59.77,3.9-9.76,9.37-23.43,12.49-30.07,2.74-7,8.21-19.53,11.72-27.35,3.52-8.2,8.6-19.53,11.72-25.39,2.74-5.46,5.08-14.06,5.08-18.35,0-9.38,14.06-25.39,19.53-21.88C3120.75,969.66,3122.32,973.18,3122.32,976.7Z"/><path class="cls-1" d="M3373.09,908.34c-5.47,5.47-7,431.23-1.56,439.83,2.73,3.51,26.95,4.68,108.2,3.9,94.52-1.17,105.07-2,109-8.2,3.12-4.69,3.12-8.59,0-13.67-3.91-5.86-14.07-7-93.75-8.59l-89.45-2-1.17-202.72c-.39-141.8-2.35-204.3-5.08-208.2C3393.79,902.48,3379.34,902.09,3373.09,908.34Z"/><path class="cls-1" d="M3557.07,907.56c-9.77,3.9-11.72,16-3.91,22.65,3.13,2.74,28.13,5.08,61.72,5.47l56.25,1.17,1.95,207,2,207,12.89,1.17c8.21.78,13.28-.78,14.85-4.29.78-2.74,2.34-96.48,2.73-208.2l.78-202.73,57.81-1.17c62.11-1.17,64.84-1.95,59.77-21.87l-2.35-9.77H3693.39C3623.08,904,3561.75,905.6,3557.07,907.56Z"/><path class="cls-1" d="M3862.14,909.12a13.94,13.94,0,0,0,2,11.72c2.34,2.73,8.59,12.89,13.67,22.26S3890.65,966.54,3895,974c4.68,7.42,12.89,22.27,18.36,33.2,5.46,10.55,13.67,24.61,17.57,31.25,3.91,6.25,11.72,19.53,16.8,29.3,5.47,9.76,13.28,23.83,18,31.25,4.29,7.42,9.76,17.57,11.72,22.26,2.34,4.69,9,16,14.84,25.39l10.94,16.8,1.95,93.74,2,93.75h27.34l1.18-93,.78-92.58,16-26.17c8.6-14.06,17.58-29.69,19.53-34a137.94,137.94,0,0,1,11.33-19.92c4.3-6.64,9.38-15.24,11.72-19.54,2-4.29,6.25-11.32,8.59-15.62,2.74-3.91,9.38-14.45,14.85-23.44,5.07-8.59,11.71-19.14,14.45-23.43s5.86-10.55,7.81-13.67c1.56-3.13,12.11-21.49,23.44-40.63,11.72-19.53,19.92-37.5,19.14-40.23-5.08-12.5-34.38-1.17-41.8,16-1.95,4.3-5.08,10.94-7.42,14.07-1.95,3.12-14.45,24.21-27.34,46.87s-25.39,43.75-27.34,46.87a90.44,90.44,0,0,0-7.82,13.67c-2.34,4.3-7.42,12.89-11.72,19.53a139.68,139.68,0,0,0-11.32,20.32c-8.21,18-24.22,40.23-28.91,40.23-3.12,0-9-7.42-14.06-16.8-4.69-9-11.72-21.87-15.62-28.12-3.91-6.64-14.46-25.78-23.83-43s-19.92-36.72-23.83-43c-3.91-6.64-11.72-20.7-17.19-31.24-25.39-49.22-30.07-54.69-48-58.6C3867.6,903.65,3864.09,904.43,3862.14,909.12Z"/></svg>