<svg id="Layer_1" data-name="Layer 1" xmlns="http://www.w3.org/2000/svg" viewBox="0 0 4121.76 2124.26"><defs><style>.cls-1{fill:#d4b300;}</style></defs><path class="cls-1" d="M2023,424.14c-146.07,3.47-146.07,3.47-183.62,24.34-47.3,25.74-66.78,50.78-153.72,191.28-39,63.29-81.38,129.37-94.59,148.15-13.22,18.08-23.65,36.16-23.65,40.34,0,13.21,118.24.69,139.11-13.91,15.3-11.13,122.41-176,138.41-212.84,15.3-34.78,35.47-43.82,104.33-46.6,67.47-2.09,82.77,3.48,61.9,25-20.17,20.86-50.77,62.6-50.77,69.55,0,11.13,98.77,5.57,123.11-7,11.13-5.57,27.82-22.26,37.56-36.17,9-13.91,40.34-60.51,68.86-102.94,27.82-43.12,49.38-80,47.29-82.07-2.78-2.09-18.77-3.48-36.16-2.79S2103.65,422.05,2023,424.14Z"/><path class="cls-1" d="M2294.23,578.55c-13.22,12.52-50.78,69.55-83.47,127.28-32.69,57-64,109.2-69.55,114.77-7,6.95-31.3,10.43-76.51,12.52-62.6,2.78-66.08,2.08-66.08-11.13,0-7.65,2.79-15.3,5.57-16.7,8.35-2.78,50.08-66.07,50.08-74.42,0-12.52-104.33-.69-130.07,14.61-13.91,8.34-36.17,36.17-58.42,73.72-20.17,33.39-48.69,78.6-63.3,100.86-14.6,21.56-25.73,42.43-23.65,45.21,1.39,2.78,80.69,3.48,176,1.39,165.53-3.48,173.88-4.17,207.27-20.87,54.25-26.43,91.81-71.64,166.23-201.7,38.26-66.08,77.9-132.16,89-146.76,10.43-14.61,19.48-29.91,19.48-34.08s-24.35-7-59.13-7C2320.66,556.29,2317.88,557,2294.23,578.55Z"/><path class="cls-1" d="M1431.76,1200.36c-35.47,13.22-75.82,52.17-94.6,92.51-22.25,48-17.38,125.2,11.13,171.8,55,88.33,181.54,106.41,253.88,35.47,68.85-66.77,70.25-197.53,2.78-265C1561.82,1192,1493,1178.1,1431.76,1200.36ZM1541,1288c36.86,42.43,34.08,121-5.57,162.76-21.56,23.64-25.73,25-52.86,20.86-16-2.78-33.38-8.34-39-12.52-32-27.12-42.43-117.54-17.39-160C1453.32,1253.22,1506.18,1247.66,1541,1288Z"/><path class="cls-1" d="M378,1199c-2.08,1.39-3.47,79.29-2.78,172.49l.7,169h89V1401.37l70.25-2.08c52.86-1.39,71.64.69,73.72,7,1.39,4.87.7,34.08-1.39,64.69-2.78,32.69-1.39,59.12,2.09,64.68,4.87,6.26,20.17,8.35,45.9,7l39-2.09V1199.67l-38.25-2.09c-20.87-.7-41.73.69-45.91,3.48-5.56,4.17-6.26,23-2.78,61.2,2.78,30.61,2.78,58.43,0,61.21s-35.47,4.18-73.73,3.48L465,1324.86V1199.67l-41.74-2.09C399.57,1196.19,379.4,1196.88,378,1199Z"/><path class="cls-1" d="M837.07,1203.84c-59.12,23.65-97.38,87.64-97.38,162.06,0,104.33,66.08,171.1,169,171.1,54.25,0,111.29-25.73,134.94-61.9,25-37.56,22.25-42.43-27.13-42.43-37.56,0-45.91,2.78-63.29,18.78-28.52,27.82-72.34,27.13-102.25-1.39-16-15.3-20.87-25.73-19.47-41l2.08-20.17,111.29-.69,111.29-.7-1.4-47.29c-2.08-93.21-56.33-144.68-150.93-143.29C876.72,1196.88,846.81,1200.36,837.07,1203.84Zm97.38,58.42c21.56,11.13,45.21,48,38.25,59.13-4.17,6.95-137,9.73-144,2.78-9.73-9,7.65-42.43,29.22-57C885.06,1249.05,906.62,1247.66,934.45,1262.26Z"/><path class="cls-1" d="M1172.32,1210.79c-55,27.13-57,35.48-59.12,192l-1.39,137.72h83.46l3.48-116.15c4.17-137,7-142.59,70.25-150.24l37.56-4.87v-69.55l-52.16-2.09C1212.66,1196.19,1196.67,1199,1172.32,1210.79Z"/><path class="cls-1" d="M1767,1201.06c-1.39,2.78-2.09,80.68-2.09,172.49l.7,166.93H1863l-2.78-68.16-2.09-67.47h107.12l-1.39,60.51c-.7,34.08-1.39,65.38-.7,70.25.7,6.26,13.22,8.35,47.3,7l46.6-2.09V1370.07l.7-170.4h-97.38l2.78,64,2.09,64.68H1858.12l2.09-64.68,2.78-64-46.6-2.09C1791.35,1196.19,1769.1,1198.27,1767,1201.06Z"/><path class="cls-1" d="M2210.07,1210.79C2143.3,1236.53,2103,1295,2103,1368c0,58.42,12.52,91.81,49.38,128.67,36.17,36.17,72.34,50.08,128,50.08,93.2-.69,165.54-66.08,175.27-159.28C2469.51,1256,2338.05,1161.41,2210.07,1210.79Zm123.11,87c41,39.64,43.12,102.24,5.56,145.37-26.43,29.9-60.51,37.55-93.89,21.56-67.47-32-68.86-148.15-2.79-183.63C2267.8,1267.83,2309.53,1275.48,2333.18,1297.74Z"/><path class="cls-1" d="M2506.37,1203.14V1537c0,10.44,90.42,9,91.12-2.08V1429.19c-1.4-106.41,4.86-128,43.81-153,15.31-10.44,18.78-10.44,37.56-.7,11.13,5.56,22.26,18.08,25,26.43,2.09,9,4.18,66.77,4.18,128.68V1544h45.21c25,0,45.21-2.09,45.21-5.57,0-2.78,1.39-54.25,2.08-114.06,1.39-105.73,2.09-109.2,18.78-127.29,25.74-27.82,38.95-33.38,57.73-23.65,30.61,16.7,32,25,32.69,150.24V1544H2955c31.3,0,45.21-2.78,45.91-9,0-4.18,0-59.82-.7-122.42-.69-84.16-4.17-121.72-11.82-141.19-11.82-29.91-49.38-66.08-75.81-72.34-32.69-8.35-79.3,1.39-109.2,23.65l-29.22,20.86L2751.9,1224c-29.22-26.43-71-32.69-115.46-17.39-30.61,10.43-34.78,10.43-45.91.7C2576.62,1194.8,2506.37,1191.32,2506.37,1203.14Z"/><path class="cls-1" d="M3160.87,1205.93c-139.8,45.9-146.06,276.13-9,329,37.56,14.6,104.33,14.6,157.89.69l34.78-9,4.17-41.73c2.09-23,2.09-43.82,0-46.6-2.78-2.79-23,4.17-45.91,16-50.77,25.74-93.89,25-127.28-1.39-23.65-18.78-41-45.9-34.08-52.86,2.78-2.08,56.34-3.48,119.63-2.78,130.76,2.09,121,8.35,105-66.77-13.91-64-31.3-93.2-68.16-112C3259,1198.27,3201.22,1193.41,3160.87,1205.93Zm77.21,70.25c25,10.43,50.77,41,43.82,52.16-6.26,9.74-135.63,8.35-135.63-2.09,0-20.86,32-49.38,66.77-60.51C3213.74,1265.74,3224.86,1270.61,3238.08,1276.18Z"/><path class="cls-1" d="M3471.09,1205.93c-47.3,17.38-74.43,52.86-74.43,96.68,0,34.08,25.74,67.46,69.56,90.42,58.42,29.9,69.55,39,69.55,53.55,0,29.22-64,35.48-102.94,9.74-26.43-17.39-36.17-8.35-36.17,34.78,0,38.25,0,38.25,26.43,45.9,96.68,27.13,177.37,1.39,202.41-64.68,20.86-55.65,0-92.51-73.73-128.68-61.21-29.91-75.12-45.21-54.25-61.2,15.3-11.83,50.07-9.74,84.85,4.86,12.52,4.87,23.65,7.66,25,6.26,2.09-2.08,5.57-20.17,8.35-39.64,4.87-35.47,4.17-36.87-14.61-43.82C3567.77,1196.88,3499.6,1194.8,3471.09,1205.93Z"/></svg>