<svg id="Layer_1" data-name="Layer 1" xmlns="http://www.w3.org/2000/svg" viewBox="0 0 4284.6 2208.18"><defs><style>.cls-1{fill:#d4b300;}</style></defs><path class="cls-1" d="M552.87,1179.38v188H585l1.63-86.1,1.64-85.56,15.26-1.63,14.71-1.64v174.93H651v-376h-32.7v174.38h-32.7V991.38H552.87Z"/><path class="cls-1" d="M422.08,1179.38v182.56h32.7V996.82h-32.7Z"/><path class="cls-1" d="M487.47,1179.38v182.56h32.7V996.82h-32.7Z"/><path class="cls-1" d="M684.74,1177.75l1.64,181.47,15.26,1.63,14.71,1.64V996.82H683.66Z"/><path class="cls-1" d="M751.77,1003.36c-1.63,3.82-2.18,85.56-1.63,181.47l1.63,174.39h32.7V999.55l-15.26-1.64C760.49,996.82,753.41,999,751.77,1003.36Z"/><path class="cls-1" d="M1304.35,1007.18c-70.3,27.25-100.27,79-100.27,172.2,0,120.44,58.86,182.56,171.66,182.56s171.66-63.21,171.66-185.28c0-70.85-12-102.45-52.32-138.42C1449.31,996.82,1364.84,983.2,1304.35,1007.18Zm112.81,49c80.1,36.52,80.65,209.81.54,246.32-82.83,37.06-154.76-34.88-143.32-143.87C1283.64,1068.76,1346.31,1024.07,1417.16,1056.22Z"/><path class="cls-1" d="M1344.13,1119.44c-21.79,27.25-22.34,89.37-2.18,117.16,15.26,20.17,52.86,19.62,68.67-1.63,16.35-21.8,16.35-89.37,0-111.17C1394.27,1101.45,1359.94,1099.27,1344.13,1119.44Z"/><path class="cls-1" d="M841.69,1179.38v177.11h70.84V1209.35h168.94v147.14h70.84V1002.27h-70.84v152.59H912.53V1002.27H841.69Z"/><path class="cls-1" d="M1601.89,1179.38v177.11H1676l-3.82-140.6c-2.18-76.83-2.18-138.41,0-136.78,1.64,1.64,12.54,37.06,24.52,79,11.45,41.42,29.43,103.54,39.24,136.78l18,61.58h78.48l6-18c18-58.31,56.13-186.92,65.4-221.8l10.89-40.87v140.05l.55,140.6h70.84V1001.73l-55.58,1.63-56.13,1.64-38.15,140c-20.71,77.38-39.23,140.6-40.87,140.6s-20.16-63.22-40.87-140.6l-38.15-140-57.22-1.64-57.22-1.63Z"/><path class="cls-1" d="M2051.48,1179.38v177.11h261.57V1302H2122.32v-92.65h168.93v-59.94H2122.32v-92.64H2307.6v-54.5H2051.48Z"/><path class="cls-1" d="M2356.65,1137.42c0,74.66,1.63,154.22,3.27,177.11l3.81,42h255l-1.64-28.88-1.63-28.34-87.19-1.09c-48-.54-89.37-1.09-92.64-1.63-3.27,0-4.91-51.77-3.82-147.14l2.18-147.14h-77.38Z"/><path class="cls-1" d="M2744.11,1014.26c-6,16.35-65.94,183.65-96.46,270.84-13.08,36.51-24,68.12-24,69.21s16.9,2.18,37.06,2.18h37.06l42-129.7c22.34-70.84,43.05-135.69,44.68-144.41,5.45-20.71,10.9-18.53,18.53,8.18,3.82,13.07,24,77.92,45.23,144.41l39.24,121.52h37.05c20.17,0,37.06-1.63,37.06-3.27s-24.52-73.57-55-159.12c-30-86.11-57.76-164.58-61-174.39l-5.45-17.44h-45.78C2752.28,1002.27,2748.47,1003.36,2744.11,1014.26Z"/><path class="cls-1" d="M2994.24,1179.38v177.11h70.84V1221.34l.55-134.6,33.24,62.67c18.53,34.33,50.68,94.28,71.93,133.51l38.69,70.85,50.68,1.63,50.14,1.64V1002.27h-70.84v275.2l-73-136.23-73-136.24-49.59-1.64-49.59-1.63Z"/><path class="cls-1" d="M3375.7,1179.38v177.11h86.1c97,0,127-6,163.49-32.7,82.83-59.94,86.65-228.33,6.54-286.64-38.15-27.79-72.48-34.88-170.57-34.88H3375.7Zm171.66-116.62c92.64,25.62,91,202.18-2.18,233.24-10.35,3.27-36.51,6-58.31,6h-40.32V1056.77h39.78C3507.58,1056.77,3535.37,1059.49,3547.36,1062.76Z"/><path class="cls-1" d="M2791.52,1207.17c-3.27,5.45-48,142.24-48,146.6,0,1.63,22.34,2.72,49.05,2.72,27.24,0,49-1.63,49-4.36C2841.11,1339.6,2794.24,1202.82,2791.52,1207.17Z"/></svg>