<svg id="Layer_1" data-name="Layer 1" xmlns="http://www.w3.org/2000/svg" viewBox="0 0 4280.29 2205.96"><defs><style>.cls-1{fill:#d4b300;}</style></defs><path class="cls-1" d="M629.33,636.46c-292.67,20.61-491.56,287.52-427.67,575,79.35,359.14,532.79,481.78,791.45,214.35,190.13-196.83,171.58-507-41.22-685.81C889,687.47,797.31,647.79,720.54,640.58,663.34,635.43,653,634.91,629.33,636.46Zm140.67,50c148.91,43.8,250.94,142.21,299.89,288.55,32.46,95.84,27.31,116.45-27.83,116.45-37.61,0-50,5.15-45.34,17.52,2.57,6.18,10.82,8.24,37.1,8.24,57.71,0,64.41,13.91,45.86,92.75-51,219-305.56,372-523,315.34-161.79-42.77-301.43-184-328.74-332.86-12.36-66.47-11.85-67,52.56-73.17,31.95-3.09,34.52-4.64,34.52-15.46,0-11.85-1.54-12.36-36.58-12.36-58.74,0-62.86-6.7-50.5-75.23C271.22,777.64,534.53,617.39,770,686.44Z"/><path class="cls-1" d="M598.42,854.42c0,2.57,2.06,5.15,4.12,5.15,2.58,0,9.27,4.64,15.46,10.3,11.33,10.82,11.33,10.82,11.33,232.39v222.08l-16,14.94-16,14.94h60.8c57.71-.51,60.28-1,46.89-8.24-23.19-12.37-24.22-22.67-23.7-225.17.51-212.81,2.57-242.69,19.06-256.6,17.52-13.92,14.94-15-45.34-15C620.57,849.26,598.42,851.32,598.42,854.42Z"/><path class="cls-1" d="M811.22,899.24c-11.85,2.06-11.85,3.1-11.85,94.81s0,92.75-12.88,105.12c-7.21,7.73-18.55,12.88-26.79,12.88-20.61,0-38.13,5.67-34.53,10.82,1.55,2.58,12.88,4.64,24.74,4.64,43.28,0,46.37,7.21,48.43,100l1.55,80.38h33.49c37.61,0,36.58,1,22.67-25.76-9.79-19.07-10.3-30.4-10.3-171.07,0-177.25,1-188.07,21.12-199.41,8.25-4.64,14.94-9.79,14.94-11.34C881.81,896.67,827.71,895.64,811.22,899.24Z"/><path class="cls-1" d="M443.84,909.55c7.21,4.64,14.43,11.33,16.49,13.91C473.72,943,462.9,1292.39,449,1292.39c-1.54,0-7.73,3.61-13.4,7.73-8.76,6.7-5.66,7.21,33,7.73h42.25V1241.9c0-98.94,7.22-114.39,54.11-114.39,27.82,0,26.27-9.79-2.58-13.4-48.44-6.18-49-7.21-50.5-117.48l-2.06-95.84H470.63C432,900.79,431.47,900.79,443.84,909.55Z"/><path class="cls-1" d="M1892.1,885.28c-151.44,54.08-202.81,265-92.84,381.29,120.78,128,342.52,79.32,390.3-84.73C2245.44,989.84,2075.08,819.48,1892.1,885.28ZM2039,988c75.71,54.08,85.63,146.93,22.53,216.33-72.11,80.23-191.1,46-219.94-62.19C1809.17,1022.29,1942.58,917.73,2039,988Z"/><path class="cls-1" d="M3207.23,886.18c-154.14,54.09-201,262.31-86.53,384.9,88.33,95.54,269.51,88.33,347-14.43C3612,1067.36,3428.07,807.76,3207.23,886.18Zm135.21,93.75c67.6,32.45,96.45,122.59,62.19,194.7-46,96.45-193.8,94.64-234.36-1.81C3116.19,1043.93,3224.36,923.14,3342.44,979.93Z"/><path class="cls-1" d="M3554.26,1099.81v231.66h101.86l-6.31-126.19c-3.6-74.82-2.7-126.2,2.71-126.2,4.5,0,71.21,58.59,147.82,130.7s142.42,130.7,145.13,130.7,5.41-103.66,5.41-229.85V880.77h-99.16V1144l-105.46-97.35c-58.59-53.18-125.29-115.38-148.73-137.91l-43.27-40.57Z"/><path class="cls-1" d="M1318.81,1106.12v225.35H1418V1151.19h189.29v180.28h95.55V880.77h-95.55v93.75c0,84.73-1.8,93.74-15.33,91-9-1.8-51.37-3.61-94.64-3.61l-79.32-.9V880.77h-99.16Z"/><path class="cls-1" d="M2238.23,1105.22v226.25h96.45l-.9-183-.9-182.08,51.38-2.71c123.49-6.31,137,118.08,14.42,130.7-28.84,2.71-52.28,6.31-52.28,8.12,0,3.6,95.55,176.67,114.48,208.22,10.81,18,19.83,20.73,65.8,20.73,29.74,0,54.08-1.8,54.08-3.61s-22.53-39.66-49.57-83.83c-57.69-94.64-57.69-93.74-21.64-110,80.23-35.16,82.93-173.07,4.51-229-25.24-18-40.56-19.83-151.44-22.53L2238.23,879Z"/><path class="cls-1" d="M2607.8,1106.12v226.25l46-2.7,45.07-2.71V885.28l-45.07-2.7-46-2.71Z"/><path class="cls-1" d="M2740.31,887.08c-3.61,2.71-6.31,23.44-6.31,45.07v38.76h90.14c49.57,0,90.14,2.71,90.14,5.41s-21.64,44.17-48.68,91.94C2752.93,1271.08,2725,1322.46,2725,1327c0,2.71,74.82,4.51,166.76,4.51H3058.5v-92.84l-90.14,5.4c-49.58,2.71-91,2.71-93.74-.9-1.81-3.6,23.43-55,56.78-114.47s77.52-139.72,99.16-178.48l37.85-69.41H2907.07C2818.73,880.77,2743,883.48,2740.31,887.08Z"/></svg>