<svg id="Layer_1" data-name="Layer 1" xmlns="http://www.w3.org/2000/svg" viewBox="0 0 4024.33 2074.04"><defs><style>.cls-1{fill:#d4b300;}.cls-2{fill:none;stroke:#ebd065;stroke-miterlimit:10;stroke-width:6px;}</style></defs><path class="cls-1" d="M736.82,666.9c-6.11,4.07,2.38,7.46,18.67,7.46,11.19,0,35.29,5.77,60.4,14.26,5.77,1.69,14.94,4.75,20.37,6.11,29.86,8.48,52.6,20.36,52.6,27.83,0,1.35-116.41,3.05-258.61,3.39l-258.94,1V989c0,205,1,263,4.41,266.41,3,3,4.07,2,4.07-6.79,0-9.84,1.7-11.54,17-18.32,9.5-4.08,17-8.49,17-10.19,0-1.35,1.7-2.71,3.73-2.71,3.74,0,24.44-8.48,33.6-13.58,19.69-11.53,58.71-28.5,81.45-35.63,10.18-3.39,20-7.47,21.72-8.82,2-1.7,7.47-3.06,12.22-3.06a31.51,31.51,0,0,0,15.61-5.09c3.4-2.71,11.2-5.09,17-5.09s18-2.38,27.15-5.09,21.38-5.09,27.15-5.09c17,0,40.73,9.5,45.48,18.66,2.37,4.42,7.13,8.83,10.86,9.51,5.09,1.35,6.11,3.73,4.41,9.16-1.36,4.75-.34,8.82,2.72,11.2,12.55,9.84,12.89,130.32.67,177.5-2.71,10.86-5.09,25.45-5.09,32.58,0,14.25-3.39,12.55,42.77,21.38,55.65,10.86,168.33,11.54,237.22,1.35,43.44-6.11,81.11-12.89,103.51-18.32,12.22-3.06,28.85-6.79,37.33-8.15,8.49-1.69,20-4.41,25.46-6.45,5.77-2,28.51-9.16,50.9-15.95,22.4-7.12,43.44-13.91,46.5-15.61,3.39-1.7,7.8-3,9.84-3,4.07,0,22.4-7.47,38-15.61,5.43-2.72,13.24-4.76,17.65-4.76,4.07,0,9.5-2.37,11.88-5.09s6.78-5.09,9.84-5.09c3.39,0,8.82-2.37,12.56-5.09a26.9,26.9,0,0,1,14.25-5.09c6.79,0,7.47,1.7,7.47,16,0,8.49,1,14.6,2,13.58,5.09-4.75,5.77-53.62,6.11-326.48l.34-285.08-149.33-1.7-149.32-1.7-11.88-8.48c-13.92-9.84-23.42-16-30.54-18.67-2.72-1.35-7.81-3.73-11.54-5.77-8.83-4.75-39.71-12.89-71.61-18.66C930.6,666.22,744.29,662.15,736.82,666.9ZM913.64,915.66c40.72,6.11,67.53,22.74,96.72,59.73,5.77,7.47,10.86,15.61,10.86,17.65,0,2.38,2.37,7.81,5.77,12.56,7.8,12.21,7.8,79.75-.34,94.68-3.06,5.43-5.43,12.22-5.43,14.6,0,7.12-49.21,54.64-60.75,58.71-5.77,2-10.52,5.09-10.52,6.79s-3.39,3-7.81,3-15.27,2.38-23.75,5.43c-21.72,7.47-55.66,2.72-87.22-11.88-37.67-17.64-68.56-57.35-78.4-101.81-4.75-21.72.34-57,11.54-81.79,7.47-16.63,53.62-64.48,62.11-64.48,2.71,0,8.48-2,12.55-4.07,6.11-3.4,29.19-9.51,47.52-12.56C888.18,912.27,900.4,913.63,913.64,915.66Z"/><path class="cls-1" d="M2541.64,728.66c-594.6,1-1083.64,3.06-1086.7,4.42-3,1.69-7.12,7.46-9.16,13.23-2.71,7.47-3.73,156.79-3.73,485.31,0,506.36-.68,490.07,15.61,496.18,3,1,503.64,2,1112.82,2,1111.81,0,1120.29,0,1134.55-11.2,3-2.37,4.07-103.85,4.07-486.67V748.35l-11.54-11.54L3686,725.27l-31.56.68C3636.81,726.63,3136.23,727.65,2541.64,728.66ZM2011.53,840.32c3.39,2,4.07,62.78,2.71,319.69-.68,174.45-3,329.88-4.75,345.83-3,28.17-7.81,45.48-19.34,73-7.47,17.65-46.84,56.34-66.18,64.82-8.49,4.07-21,9.5-28.17,12.56s-17,5.77-22.06,5.77-17.65,2.37-27.83,5.09c-21.72,5.77-49.55,6.44-70.93,1.35-7.81-1.69-23.08-4.41-33.94-6.1-27.49-4.42-63.8-18.33-69.23-26.82-1.36-2-4.41-4.07-6.45-4.07-7.47,0-38.69-36-47.17-54.64-21.72-45.81-27.49-78.06-26.14-145.59l1-56,76.36-1c42.09-.34,79.76,0,83.49,1,7.13,1.7,7.47,4.07,9.84,60.07,2.38,58.71,3.73,65.5,17,78.74,6.79,6.44,28.51,7.12,36.65,1,3.06-2,8.15-12.89,10.86-23.75,4.42-17,5.09-65.16,5.09-331.57,0-171.39,1-313.93,2-317,1.7-4.76,12.56-5.43,87.56-5.43C1968.76,837.27,2009.15,838.62,2011.53,840.32Zm302.72,319.36c1,176.47,2,320.71,2.72,320.71.34,0,44.46-.68,97.74-1,53.28-.68,100.79-.34,105.21.68l8.14,2-.68,84.16-1,83.83H2132.68l-1-402.17c-.34-221.27,0-404.2,1-406.57,1-3.4,21.05-4.07,90.62-3.4l89.26,1Zm544.71-319c13.23,2,34.61,4.41,47.51,5.43,13.23,1.36,27.83,4.41,32.92,6.79,5.09,2.71,12.22,4.75,15.61,4.75s13.24,3.73,21.38,8.48c8.15,4.41,18.33,9.84,22.06,11.54,14.25,6.11,47.17,43.44,58.37,65.16,5.77,11.88,10.86,22.74,10.86,24.1s1.7,6.45,4.08,11.88c10.52,25.45,13.91,49.55,15.27,107.58,1,49.21.34,63.46-4.07,74-2.72,7.13-5.1,17.31-5.1,22.4,0,5.43-2.37,12.56-5.09,16.29-2.71,3.4-5.09,9.51-5.09,13.24,0,4.07-1.69,8.82-3.39,10.52-2,2-7.13,9.84-11.2,17.65-10.18,19-35,47.17-49.55,56.67-22.06,13.58-51.92,28.85-57.69,28.85-3.06,0-9.85,2.38-15.62,5.43-7.46,3.73-26.47,5.43-77,7.13-37,1-67.54,2.37-67.88,2.37-.34.34-1.7,69.92-2.72,154.76l-1.69,154.42H2601l-1-402.17c-.34-221.27,0-404.2,1-406.57C2603.06,836.25,2822,835.57,2859,840.66Zm497.19,5.43c2,5.43,3.39,126.25,3.39,320.71,0,247.07,1,311.89,4.41,312.23h101.48c83.48-.34,98.08.68,102.49,5.09,4.75,4.41,5.43,17.31,5.43,82.47,0,55.32-1,78.06-4.07,81.11-5.77,5.77-386.56,5.77-392.33,0s-5.77-800.59,0-806.36c3.06-3.06,27.83-4.07,89.94-4.07h85.86Z"/><path class="cls-1" d="M2784.29,994.4c-1,2.37-1.36,46.15-1,97.4l1,93.33,31.56-1c23.76-.68,35-2.71,44.8-7.81,17-8.82,33.94-28.84,33.94-40.38,0-4.75,1.7-10.52,3.73-12.56s4.75-17.31,5.43-33.94c1.36-23.75.68-32.58-3.73-41.06-3.05-5.77-5.43-13.24-5.43-16.63,0-7.13-26.47-31.56-34.28-31.56-3,0-11.2-2.38-17.64-5.09C2827.39,988.63,2786.33,988.29,2784.29,994.4Z"/><path class="cls-1" d="M377.08,1261.49c-1.7,4.07-1,458.5,1,461.55,1,2,6.1,3.4,11.2,3.06l9.16-.34-8.49-2.38-8.48-2.37-.68-182.93C379.79,1353.8,378.44,1258.43,377.08,1261.49Z"/><path class="cls-1" d="M1376.89,1533.33c-.68,105.21-.68,192.09,0,192.77.34.68,1.36.68,2.71-.34,2-2.38,2-379.77-.34-382.14C1378.58,1342.6,1377.23,1428.12,1376.89,1533.33Z"/><polyline class="cls-2" points="1379.6 1338.53 1376.89 1721.01 381.49 1721.01 376.12 1241.69"/></svg>