<svg id="Layer_1" data-name="Layer 1" xmlns="http://www.w3.org/2000/svg" viewBox="0 0 4019.74 2071.68"><defs><style>.cls-1{fill:#d4b300;}</style></defs><path class="cls-1" d="M1023.32,327.46c-15.46,28,4.76,110.62,26.17,109.43,22-1.19,26.17-54.12,7.73-91C1041.76,315.57,1032.24,310.81,1023.32,327.46Z"/><path class="cls-1" d="M1208.28,339.36c-18.44,32.71-14.87,101.7,6,101.7,19.62,0,39.25-71.37,28.54-104.08C1233.85,310.22,1224.34,310.81,1208.28,339.36Z"/><path class="cls-1" d="M868.1,393.48c0,33.3,14.86,63,41,80.29,25.58,17.84,32.71,12.49,27.36-20.22-4.76-29.74-23.19-57.1-48.77-73.16L868.1,368.5Z"/><path class="cls-1" d="M1361.12,391.69c-29.73,25-49.36,91-26.76,91,24.38,0,63-54.72,63-89.21C1397.4,370.88,1386.7,370.28,1361.12,391.69Z"/><path class="cls-1" d="M1120.26,414.29c-19,29.74-13.08,110,8.33,110,18.43,0,32.11-76.13,19.62-108.84C1140.48,395.26,1132.75,395.26,1120.26,414.29Z"/><path class="cls-1" d="M1278.46,420.84c-22.6,19.62-35.69,47-35.69,76.72,0,26.16,10.71,27.35,35.09,3C1317.71,460.09,1318.9,387.53,1278.46,420.84Z"/><path class="cls-1" d="M957.31,436.3c0,38.06,39.84,91.59,58.28,79.69,14.27-8.92-5.35-69.58-29.74-92.78C965.63,404.18,957.31,407.75,957.31,436.3Z"/><path class="cls-1" d="M759.26,445.81c-10.7,17.25,22.6,67.8,56.5,85.05,26.17,13.08,30.33,8.92,22-22C827.06,471.39,771.16,426.19,759.26,445.81Z"/><path class="cls-1" d="M1464.61,453.55c-20.23,12.48-43.42,53.52-43.42,76.12,0,27.36,54.72-5.35,72-43.41C1514,441.06,1503.26,428.57,1464.61,453.55Z"/><path class="cls-1" d="M1046.51,488.63c-14.86,36.28,20.82,124.3,39.26,94.57,7.13-11.9,3.56-62.45-5.36-80.29C1064.36,472,1054.84,467.82,1046.51,488.63Z"/><path class="cls-1" d="M1194,480.9c-22.6,26.17-33.31,88.62-17.25,104.67C1191.63,600.44,1219,555.84,1219,516,1219,472.58,1211.25,461.28,1194,480.9Z"/><path class="cls-1" d="M862.15,502.91c0,33.3,41,86.83,66.61,86.83,7.73,0,5.35-35.09-4.16-52.93C905.56,498.74,862.15,476.15,862.15,502.91Z"/><path class="cls-1" d="M1370,499.93c-30.33,18.44-58.28,89.81-35.08,89.81s68.39-56.5,68.39-86.24C1403.35,485.66,1395,484.47,1370,499.93Z"/><path class="cls-1" d="M961.47,516.59c-13.68,13.08,4.16,71.36,29.73,95.15,23.79,22.6,31.52,20.82,31.52-7.13C1022.72,562.38,978.72,499.34,961.47,516.59Z"/><path class="cls-1" d="M1271.32,534.43c-28,30.33-41.63,91-20.82,91,22,0,51.75-50,51.75-86.83C1302.25,513.61,1292.14,512.42,1271.32,534.43Z"/><path class="cls-1" d="M725.36,552.27c0,28,39.85,66.61,79.1,76.12,20.82,5.36,22-10.11,3-38.65C781.27,551.68,725.36,526.1,725.36,552.27Z"/><path class="cls-1" d="M1493.75,552.27c-23.2,11.3-45.8,39.25-52.34,63.64-4.16,16.65-3.57,16.65,16.06,12.48,39.25-8.32,66.61-32.71,76.72-68.39C1540.14,538.59,1526.46,536.21,1493.75,552.27Z"/><path class="cls-1" d="M1115.5,576.65c-12.49,36.28-3.57,90.4,14.87,90.4s29.74-73.15,15.46-100.51C1133.94,542.75,1125.61,545.73,1115.5,576.65Z"/><path class="cls-1" d="M844.31,590.33c0,19.63,33.3,63,54.12,70.18,25.57,8.92,25,8.92,20.81-11.89-5.35-26.17-26.17-52.94-48.76-62.45C844.9,575.46,844.31,575.46,844.31,590.33Z"/><path class="cls-1" d="M1381.34,589.74c-29.73,17.84-55.9,77.31-34.49,77.31,28.55,0,65.42-36.28,72-70.77C1423.57,573.68,1411.08,571.3,1381.34,589.74Z"/><path class="cls-1" d="M1037,622.45c-8.92,35.68,19,106.45,42.22,105.86,17.25-.6,10.71-68.39-8.92-94C1050.68,608.17,1041.16,605.2,1037,622.45Z"/><path class="cls-1" d="M933.52,619.47c0,26.77,63,95.16,77.91,85.64,15.46-9.51-5.95-54.12-36.28-76.72C954.33,612.93,933.52,608.77,933.52,619.47Z"/><path class="cls-1" d="M1199.36,624.23c-14.28,16.06-22,41-22,73.15,0,33.31,4.17,35.69,23.2,13.68C1238.61,667.65,1237.42,582,1199.36,624.23Z"/><path class="cls-1" d="M1282,631.37c-22.59,20.22-43.41,63.63-34.49,72.55,17.25,17.25,84.45-52.33,84.45-87.42C1332,606.39,1299.87,616.5,1282,631.37Z"/><path class="cls-1" d="M796.73,670c0,19,42.22,54.71,70.18,59.47,31.52,5.35,34.49,3,22.6-19.63C871.07,674.19,796.73,642.67,796.73,670Z"/><path class="cls-1" d="M1407.51,673.59c-19.62,10.11-45.79,41-45.79,54.12,0,8.92,32.11,4.76,55.9-7.13,20.82-10.11,51.15-42.82,51.15-55.31C1468.77,656.94,1429.52,662.29,1407.51,673.59Z"/><path class="cls-1" d="M705.74,690.25c-29.15,11.3,35.09,54.12,80.88,54.12,35.09,0,38.06-6,14.27-28.55C771.75,687.87,736.07,678.35,705.74,690.25Z"/><path class="cls-1" d="M1326,691.44c-29.73,11.89-59.47,49.95-59.47,76.72,0,36.87,72.56-19.63,80.88-64.24C1351.61,683.7,1349.23,682.51,1326,691.44Z"/><path class="cls-1" d="M1492.56,693.81c-25,11.3-47.58,31.52-47.58,42.82,0,10.71,55.31,10.11,76.12-.59,19.63-10.11,46.39-38.06,41.64-42.82C1553.81,684.89,1512.18,685.49,1492.56,693.81Z"/><path class="cls-1" d="M915.67,696.79c0,26.17,35.69,68.39,67.21,79.1,13.08,4.75,13.68-13.09,1.19-37.47C968.6,708.68,915.67,676.57,915.67,696.79Z"/><path class="cls-1" d="M1115.5,717c-13.68,29.14-8.32,85.64,9.52,96.34,22,13.68,38.65-63.63,20.81-98.13C1135.13,693.81,1126.21,693.81,1115.5,717Z"/><path class="cls-1" d="M1016.78,744.37c0,28.54,32.11,67.2,61.25,74.34,20.22,5.35,22-12.49,3.57-42.23C1059,739.61,1016.78,718.79,1016.78,744.37Z"/><path class="cls-1" d="M1223.74,739.61a167.67,167.67,0,0,1-19.62,14.27c-17.25,9.52-38.66,43.42-38.66,60.07,0,16.06,13.08,14.87,40.44-3,11.89-7.74,42.82-60.07,42.82-73.16C1248.72,730.09,1233.26,731.28,1223.74,739.61Z"/><path class="cls-1" d="M840.74,757.45c-11.3,17.84,61.26,54.71,95.15,48.17,17.85-3.57,18.44-6.54,6-25C924,755.07,852,738.42,840.74,757.45Z"/><path class="cls-1" d="M1346.85,760.42c-48.17,25-51.74,43.42-8.33,43.42,39.26,0,82.67-23.79,82.67-45.8C1421.19,746.74,1369.45,748.53,1346.85,760.42Z"/><path class="cls-1" d="M741.42,780.64c-24.38,14.28,26.17,47,71.37,47,40.44,0,50-7.14,32.71-25.58C822.9,778.27,765.8,766.37,741.42,780.64Z"/><path class="cls-1" d="M1448,782.43c-25,10.7-42.82,31.52-34.49,39.85,19,19,94,1.18,111.21-26.17C1537.76,775.29,1486,765.78,1448,782.43Z"/><path class="cls-1" d="M1000.72,824.06c5.35,32.71,60.07,86.83,73.75,72.56,15.46-15.47-24.39-73.16-60.07-86.83l-17.25-6.55Z"/><path class="cls-1" d="M1219,825.25c-20.81,17.84-35.68,43.41-35.68,61.85,0,20.22,23.19,14.27,51.15-14.27C1279.05,828.22,1265.37,786.59,1219,825.25Z"/><path class="cls-1" d="M884.15,825.25c-6.54,7.14,15.47,32.71,38.07,44.6,23.19,11.9,67.79,15.47,73.15,5.95C1010.83,851.42,905.56,803.84,884.15,825.25Z"/><path class="cls-1" d="M1311.76,828.82c-52.33,30.33-57.69,54.71-11.89,49.36,41-4.16,79.69-29.74,79.69-52.93C1379.56,818.71,1323.06,821.68,1311.76,828.82Z"/><path class="cls-1" d="M1120.85,861.53c-15.46,36.87-12.48,88,6,108.24,20.82,22,35.69-65.42,17.84-100.51C1133.94,849,1126.8,846.66,1120.85,861.53Z"/><path class="cls-1" d="M611.77,898.4c-221.83,70.77-242.65,450.8-30.33,554.88,124.3,61.26,274.76-7.14,324.72-147.49C990,1069.09,818.73,832.39,611.77,898.4Zm138,25c67.2,33.3,97.53,117.75,96.34,267-1.78,126.08-25.57,196.26-82.07,239.08C703.36,1475.28,618.31,1464,569,1403.32c-78.5-97.53-74.34-365.16,7.14-452.58C615.93,907.32,693.84,895.43,749.75,923.38Z"/><path class="cls-1" d="M880,891.86c0,3.57,10.71,19.62,23.2,35.68,53.52,67.8,139.16,218.86,170.68,301.53,14.27,38.06,15.46,48.17,14.87,116-1.19,86.83-6,98.13-42.23,104.08-56.5,9.51-18.43,16.65,86.83,16.65,103.49.59,135.6-5.35,86.83-15.47-40.44-7.73-45.79-19-47.57-103.48-1.79-66-.6-77.91,11.3-107.64,36.87-93.37,118.35-237.3,176-310.45,48.18-61.85,26.17-52.33-52.33,22.6-61.26,57.69-118.95,126.68-151.06,179.61-11.9,19.62-23.2,35.68-25.58,35.68s-16-19.63-30.92-42.82c-31.52-51.74-77.91-108.24-127.27-155.22C920.43,918.62,880,885.32,880,891.86Z"/><path class="cls-1" d="M1013.8,906.13c-7.73,19,35.69,82.07,56.5,82.07,3,0,8.92,1.79,14.28,3.57,12.49,4.76,12.49-14.27,0-41C1070.3,921,1020.35,889.48,1013.8,906.13Z"/><path class="cls-1" d="M1204.71,916.84c-22.6,19.62-43.41,63.63-34.49,72.55s52.33-16.65,66-38.65C1264.78,904.94,1244,882.34,1204.71,916.84Z"/><path class="cls-1" d="M2555.93,915.65c-12.49,8.92-22,20.22-22.6,25,0,8.32-72,190.9-95.75,242.05-5.95,14.27-11.3,29.14-11.3,33.9s-2.38,10.11-5.36,11.89-7.13,10.71-9.51,19.63c-1.79,9.51-7.73,24.38-12.49,34.49-19,42.23-26.17,70.18-19.63,77.91,11.9,14.27,15.47,9.52,35.09-41,10.71-26.77,21.41-50.56,23.2-52.94,2.37-3,50.55-5.35,107.64-5.94l104.08-1.19,27.95,73.74c30.93,80.89,33.3,106.46,12.49,116-27.95,11.89-11.3,14.86,87.42,14.86,105.27,0,108.84-.59,89.21-16.65-11.89-9.51-12.49-17.25-14.87-240.86-1.19-126.68-.59-230.16,1.79-230.16,4.16,0,18.44,20.81,209.34,311,111.81,170.09,116.57,176,135.6,176l19,.59V1202.3c0-258.7,0-261.67,12.49-274.16,16.65-16.66,7.14-23.2-34.49-23.2-36.88,0-42.23,5.35-22.6,22.6l14.86,13.09v400.84l-130.24-196.85c-71.37-108.24-135-205.18-141-215.29-10.71-17.85-11.9-18.44-56.5-18.44-25,0-54.12-1.79-64.23-3.57-16.06-3.57-18.44-2.38-18.44,8.92,0,8.33,3.57,12.49,11.3,12.49,6.55,0,17.25,7.14,23.79,15.46,11.9,15.47,12.49,22,12.49,251.57,0,132.63-2.38,239.08-5.95,244.43-6.54,10.11-32.71-1.19-38.65-17.24-7.73-17.84-180.2-479.35-187.94-501.95C2583.28,895.43,2584.47,895.43,2555.93,915.65Zm21.41,143.92c12.49,34.49,31.52,87.42,42.82,117.76s20.22,56.49,20.22,57.68c0,1.79-42.82,3-95.16,3s-95.16-1.19-95.16-3c0-1.19,10.71-30.33,24.39-63.63,13.68-33.9,32.11-81.48,41-105.86C2551.17,970.36,2545.82,970.36,2577.34,1059.57Z"/><path class="cls-1" d="M213.9,913.86c0,4.17,11.3,9.52,25.57,12.49,45.2,9.52,45.8,13.68,45.8,255.14,0,218.86-4.17,274.17-23.79,312.23-14.87,28.55-45.8,52.93-73.75,57.69-37.47,5.95-27.95,22,9.52,17.25,89.8-11.9,144.51-73.75,158.79-177.83,3.57-25.57,6.54-132.62,6.54-237.89,0-220.05,0-218.26,43.41-226.59,15.47-3,27.36-7.73,26.77-10.7C429.78,907.32,213.9,905.54,213.9,913.86Z"/><path class="cls-1" d="M1700.71,908.51c-160.57,28.55-244.43,138-236.7,311.64,8.33,185.55,152.25,292.6,327.69,244.43,50-13.68,75.53-16.06,75.53-6.54,0,3,6.55,5.94,14.87,5.94H1897l1.19-120.73,1.78-120.13,19.63-5.95c10.11-3,19-8.92,19-13.08,0-5.95-18.44-7.73-77.91-7.73-79.69,0-98.72,7.13-54.12,20.22,25,7.13,25.58,11.89,23.79,119.54l-1.78,89.21-22,10.7c-60.66,29.74-146.3,17.25-185.55-25.57-139.76-154.63-65.42-463.89,114.78-479.95,69.58-6.54,110,18.44,129.06,77.32,7.73,25,13.08,33.9,21.41,33.9,10.11,0,10.7-5.35,9.51-67.21-1.78-63-2.38-66.6-13.68-64.23-19,4.17-79.69,3.57-124.89-.59C1734.61,907.92,1709,907.32,1700.71,908.51Z"/><path class="cls-1" d="M3371.29,910.89c-103.48,3.57-111.21,6-128.46,47-41.63,98.13,166.53,174.26,213.51,77.91,20.22-41-7.73-68.39-43.42-42.22l-17.24,13.08V928.73h47c108.24,0,170.09,51.15,199.83,163.55,27.36,106.46-10.11,274.76-72,322.34-41.63,31.52-155.23,45.2-168.9,20.22-3.57-7.13-6-72.55-6-171.87V1103L3363,1101.8l-32.71-1.19v328.28l-14.87,14.87c-8.33,8.33-14.87,16.66-14.87,19,0,6.55,224.81,2.38,259.9-4.75,162.95-33.9,227.78-335.43,102.29-478.16C3609.78,920.4,3546.74,905.54,3371.29,910.89Zm-44.6,27.36c1.78,5.35,3.57,29.73,3.57,54.12v45.2l-21.41-3.57c-31.52-5.36-44-19-44-49.37C3264.84,947.17,3315.39,909.1,3326.69,938.25Z"/><path class="cls-1" d="M1957,925.76c-38.06,32.11-36.88,88,3,120.73,54.12,45.2,157.6,41.63,186.75-6,23.78-38.66,4.16-68.39-33.31-50.55-11.3,5.35-22,10.11-23.19,10.11-4.17,0-3.57-30.93.59-53.53l4.16-19,60.07,2.38c101.1,4.76,146.3,43.42,146.3,124.89-.59,85-47,124.89-149.87,128.46l-64.23,2.38V1101.2h-62.44v334.24L2007,1449.71,1989.15,1464h64.23c67.8,0,70.78-1.19,50.55-17.84-13.08-10.7-13.67-13.68-13.67-126.08V1205.28l41,1.19c34.5,1.19,42.23,3,50.55,14.27,22.6,31.52,145.71,211.72,154.63,226.59,8.92,15.46,12.49,16.65,48.77,16.65,22,0,48.17,1.79,58.28,3.57,28,6,23.2-10.11-7.13-24.38-19.63-9.52-34.5-25.58-74.34-83.26-26.77-39.26-52.34-75.53-56.5-80.29-4.17-5.35-17.25-24.39-29.74-43.42l-22.6-33.9,28.55-12.48c117.75-50.56,121.92-206.37,6.54-263.47-30.33-15.46-32.12-15.46-171.88-15.46h-141Zm65.42,19c3,8.92,5.35,32.11,4.16,51.74-1.78,36.28-1.78,36.28-20.81,38.06-42.23,4.16-67.8-57.09-35.69-86.23C1995.7,924.57,2014.13,923.38,2022.46,944.79Z"/></svg>