<svg id="Layer_1" data-name="Layer 1" xmlns="http://www.w3.org/2000/svg" viewBox="0 0 4216.88 2173.28"><defs><style>.cls-1{fill:#d4b300;}</style></defs><path class="cls-1" d="M558,726c-25.51,12.42-53,41.2-65.41,70-2.62,7.2-7.2,128.21-9.16,268.18L480.15,1320l-22.89,45.13c-13.74,27.47-32.71,53-47.75,64.76-45.79,36.62-129.51,29.43-178.57-13.74-36.62-33.36-37.93-34-32.7-5.89,42.52,228.28,382,267.53,493.18,57.56,37.29-70.64,40.56-102,45.13-435,4.58-351.9,15.7-312-86.34-316.57C595.27,714.26,580.23,715.57,558,726Z"/><path class="cls-1" d="M1551.55,727.35c-66.06,34-67.37,41.2-69.34,489.25l-1.3,381.34,16.35,4.58c57.56,15.69,132.78-10.47,171.37-58.87l19.62-24.86,25.51,28.13c101.39,115.77,327.7,54.94,408.15-109.24,72-147.16,26.17-323.11-101.38-385.25-93.54-45.79-200.81-34.67-266.87,27.47-11.77,11.12-24.2,20.28-26.82,20.28s-3.92-83.73-2-185.11c3.27-215.85,12.43-194.27-83.72-198.84C1586.87,713.61,1575.75,714.92,1551.55,727.35Zm279.29,392.45c75.88,40.55,96.15,314,28.13,382-81.76,81.76-170.72-173.34-113.16-323.78C1767.4,1121.11,1796.18,1101.48,1830.84,1119.8Z"/><path class="cls-1" d="M2295.25,724.73c-45.14,19.62-71.95,60.83-71.95,109.89,0,136.7,185.76,177.25,242.66,53C2514.37,783.6,2403.17,677.63,2295.25,724.73Z"/><path class="cls-1" d="M2553.61,721.46l-26.16,5.89,2,381.33c2,412.07,2.62,416,37.94,455.9,36.63,39.9,114.46,53.63,189.68,33.36l26.82-7.2-1.31-381.33c-1.31-412.73-1.31-415.35-37.94-455.25C2711.25,717.53,2631.45,703.8,2553.61,721.46Z"/><path class="cls-1" d="M2288.71,1025c-64.11,29.43-68,40.55-72.61,242-3.27,153.71-5.23,174-18.31,206.69-19.63,51.67-71.3,84.38-133.44,84.38-45.13,0,24.2,37.93,85.69,46.44,146.51,20.93,264.9-60.83,302.84-208,18.32-72,19-364.33,1.31-371.52C2428.68,1014.49,2312.25,1014.49,2288.71,1025Z"/><path class="cls-1" d="M839.9,1024.3a187.1,187.1,0,0,1-24.2,6.54l-18.32,3.93V1216.6c0,196.23,4.58,232.86,35.33,281.26,73.25,115.77,248.55,143.9,334.23,53.64l19.63-20.93,3.27,32,3.27,31.39,116.43,1.31,115.77,2V1034.77H1173.49V1216c0,196.88-3.28,217.81-34.67,247.24-18.32,17-39.9,20.94-60.18,9.82-22.24-11.78-28.12-47.1-22.89-143.25,8.5-166.14-22.24-245.28-112.5-291.07C923,1028.88,853.64,1019.07,839.9,1024.3Z"/><path class="cls-1" d="M3063.15,1030.84c-217.82,49.71-306.77,310.69-165.49,488.61,128.86,162.86,440.2,122.31,519.35-68l9.81-24.2h-215.2l-9.81,34.67c-25.51,87.64-101.38,96.15-131.47,15-9.16-24.86-24.85-115.77-20.28-119.7.66-1.31,69.34-2.61,151.75-3.27,168.76-2,184.46-5.89,206.69-51C3481.76,1158.39,3262.64,985.71,3063.15,1030.84Zm99.42,92.23c21.58,14.39,42.51,72,46.44,124.93,4.58,58.87.65,61.48-94.19,61.48H3052l3.92-54.94C3063.8,1144.65,3110.89,1086.44,3162.57,1123.07Z"/><path class="cls-1" d="M3690.42,1028.23c-81.11,15-149.79,58.21-193.61,122.31-68,101.38-65.41,258.36,6.54,356.48,121,165.48,421.88,146.51,517.38-32.71,28.78-53.63,28.13-55.59-13.08-51-19,2-67.37,3.93-107.27,3.93h-72l-11.12,35.32c-15,46.44-36.63,69.33-65.41,69.33-46.44,0-73.91-45.13-81.11-134.08l-3.92-45.79,138.67,2c183.14,2.62,212.57-6.54,229.58-71.29C4073.71,1140.73,3876.83,995.52,3690.42,1028.23Zm83.72,91.57c17,9.81,39.24,54.29,49.06,101.38,17.66,80.45,10.46,88.3-86.34,88.3h-70l3.92-47.74C3680.6,1146,3720.5,1091.67,3774.14,1119.8Z"/></svg>