<svg id="Layer_1" data-name="Layer 1" xmlns="http://www.w3.org/2000/svg" viewBox="0 0 4186.55 2157.65"><defs><style>.cls-1{fill:#d4b300;}</style></defs><path class="cls-1" d="M467,411.72c-13.17,3.19-20.39,7.86-24.85,16.57-4.67,9.35-15.72,17.21-24.22,17.21-5.52,0-14,6.37-14,10.62,0,1.06,3,2.12,6.58,2.12,5.95,0,6.59.43,5.31,5.31-1.27,5.1-.85,5.31,7.22,5.31,10.2,0,13.17-4.46,7.44-10.62-2.13-2.34-3.4-4.67-3-4.88,4.68-3.83,19.54-8.71,25.92-8.71,9.13-.22,10.19-3.19,3.18-9.77l-4.67-4.25,4.46-4.46c2.34-2.55,9.13-6.16,14.65-8.07C488.42,412.36,485.24,407.26,467,411.72Z"/><path class="cls-1" d="M517.52,418.31c47.58,36.53,60.11,81.77,36.75,131.26-6.8,14.23-31.86,41.63-35.9,39.08q-1.9-1.27,0-3.82C525.59,576.12,537.27,522,532,522c-1.27,0-2.76,3-3.61,6.58C524.74,547,513.91,563,484.6,593.11,445.73,633.26,434.26,656,436.17,690c.85,15.08-2.34,15.5-6.16.64-7.64-29.53.85-62,24-92.82,11.47-14.87,10-15.3-6.58-1.7-41.63,34.19-55.23,87.72-34.84,135.72,4.89,11.47,3.83,13.59-3.61,6.59-27.61-25.49-34.19-73.49-15.5-110.66,2.34-4.46,3.18-8.29,2.12-9.14-5.73-3.4-25.27,34.62-27,52.25-1.91,17.63-3,18.91-7.65,8.29-18.48-42.48-3.4-98.56,33.35-125.11,7.86-5.73,17.84-10.19,58.41-27.18,8.71-3.83-4.46,6.79-22.09,17.84-25.91,15.93-32.29,21-40.78,32.07-8.29,10.83-9.56,16.14-2.34,9.56,7.65-7.22,39.3-27,62-38.87,30.8-16.36,37-22.94,41.63-44.61,2.13-9.55,6.16-14.86,11.68-14.86,2.77,0-.63,28.67-4.24,35.89-2.76,5.1-3,6.8-.85,6.16,5.73-1.91,17.41-28.88,18.26-42.69.43-7.22,2.13-16.14,3.83-20,9.55-21-8.07-37.8-32.5-31.22-7.86,2.12-5.74,4.46,5.1,5.74,15.29,1.69,20.18,12.53,11.47,25.48-6.59,10.2-12.53,13.38-16.15,8.71-4-5.52-4-5.73,3.4-9.77,15.08-8.71,2.55-21.45-13.38-13.59-3.61,1.91-8.49,3.4-10.83,3.4-3,0-3.61.85-2.55,3.61,8.28,20.18,3.82,40.57-11.68,51.61-8.5,5.95-9.13,5.31-4.25-3.61,4.25-7.86,6.37-34.62,2.76-34.62-1.06,0-4,3.4-6.8,7.43-4.46,6.59-21.87,20.18-25.91,20.18-.85,0-3.18-4.25-5.31-9.56l-4-9.34-7.65,7.43c-8.71,8.5-20.82,11.26-29.52,6.8-7.23-3.83-6.59-6.8,1.91-12.75,9.56-6.37,10.41-9.55,2.55-11.25-10.41-2.34-9.56-4.68,3.4-9.35l12.31-4.46-15.5.85c-21.45,1.49-21.45,1.49-20.82,28.46.43,12.53.85,24,1.07,25.28.63,5.94,12.32,9.13,31.43,8.49,18.27-.42,30.37,1.28,30.37,4.46,0,.85-6.37,4.89-14.44,8.71-51.19,26.34-77.74,90.91-62.23,151.66,9.77,37.8,38,75.4,67.54,89.63,7.22,3.61,13.17,7.43,13.38,8.71,0,4.67-8.71,49.06-12.95,65l-4.46,16.57h-8.5c-16.57,0-25.91,9.34-28.67,28.67l-1.28,9.56H253.08l-2.55,5.31c-1.91,4.46-1.7,5.95,1.49,9.56,3.61,4,6.59,4.25,58.84,4.25,76.46,0,87.72,2.33,164.82,35.25,98.76,42.27,160.78,41.85,264.44-2.12,71.57-30.37,84.32-32.92,159.93-33.13,60.54,0,61.39-.22,59.9-12.11l-.64-5.95-43.75-.64-43.76-.42V873.91c0-56.5-8.7-96-26.12-119.16-21-27.61-37-74.13-21.67-63.29,57.56,40.78,154.84,31.22,178-17.63,18.27-38.66-7.43-76.26-51.82-75.19-8.92,0-18.69-.64-21.67-1.91-3-1.07-6.16-1.7-7.43-1.28-1.06.21-4.67,1.06-7.86,1.7-7.43,1.7-7.86,5.52-.85,5.52,7.86,0,8.29,3,1.28,8.29-7.86,5.73-8.5,9.55-1.07,6.16,7.65-3.4,9.14-.43,3,5.94-5.31,5.74-16.14,11.47-22.09,11.47-3,0-3-.63-.43-5.94,4-7.86,6.16-17.42,4-17.42-1.06,0-4.89,4.25-8.71,9.56S878.6,632.41,875.2,635c-8.07,5.94-7.86,7.43,1.91,10,11.9,3.4,19.54,2.76,31.23-2.76,11-5.1,26.55-20.18,26.55-25.7,0-15.08,40.35-4.46,52.46,13.59,18.69,27.83-10,60.54-57.56,65.85-39.93,4.67-66.91-4.25-100.89-33.56-31.44-27-67.76-42.7-98.13-42.7-11.68,0-10,1.28,10.83,8.5,17,6,40.36,19.33,40.36,23.15,0,1.06-5.52-.21-12.32-3-12.11-4.89-34.41-9.35-34.41-6.8,0,.64,4.25,3.19,9.35,5.52,29.94,13.17,52.67,39.94,63.93,74.56,5.52,17.41,14.87,33.77,25.7,45.66,11.26,12.32,18.48,26.55,22.94,45,3.82,16.78,3.18,16.78-6.37-1.49-9.77-18.69-10.84-17.84-5.31,4.68,5.73,23.79,9.34,58.62,7.43,75.4l-1.27,13.59-17.42-.63L817,903.22l.64-8.5c1.06-11.26,5.52-19.54,13.6-24.42,6.37-3.83,6.37-3.83,1.91-6.8-4.25-2.55-4.46-4.46-4.46-29.31,0-29.31-3.19-40.36-16.36-55.44-3.61-4-11-15.29-16.35-25.27-10.62-18.91-25.92-40.36-29.1-40.36-2.55,0-2.55.21,3,10.83,14.87,27.83,20,47.79,11.68,45.46-36.32-10.62-76-53.74-76-82.2,0-14.23-4-12.53-9.34,3.82-7.44,23.15-10.41,28.67-21.88,39.08-16.57,15.29-48.64,25.49-69.67,22.52-12.74-2.13-12.1-4.46,2.77-8.71,16.35-4.67,34.4-14.66,43.11-23.58,9.14-9.34,7.22-10.62-6.37-4-14.65,7.43-43.33,12.53-58.41,10.83-10.41-1.49-12.53-2.55-18.48-10-4.67-5.95-7.43-7.86-8.92-6.38s-1.49,3,0,4.89c7,8.71,20.39,58.62,25.06,93.88L584.85,820l-10.62-11.47c-13-13.81-15.29-13-6.8,2.55,10,18.69,13.39,35.68,12.11,60.32-1.7,32.92-1.7,32.92-24.85,32.92-19.12,0-19.33,0-17.84-4.89,3.18-10.4,7.86-16.77,14.65-20,7.86-3.82,8.5-4.89,5.53-10.83-1.07-1.91-3-11.9-4.25-21.88-2.76-22.09-8.5-39.93-19.12-61.81l-8.07-16.35,13-.64,13-.64-.63-6.37c-1.49-12.74-20.39-58.41-23.15-55.65-.43.43,1.69,11,4.88,23.58,3,12.74,4.89,23.36,4.25,24-1.91,1.91-21.45-5.74-31.86-12.11-7.44-4.88-11.26-9.34-15.08-17.63-6.8-14.23-6.8-20,.21-44l1.49-5.31-4.68,4.24c-12.31,10.84-17.41,32.29-13.16,54.38,3.39,16.57,2.33,17.42-6.38,4.88-22.94-33.56-10-78.37,28.47-97.7,19.32-10,22.3-10.2,31-2.55,9.34,8.28,25.7,15.72,40.14,18.27,13.17,2.33,14.23.42,2.55-4.89-13-5.73-31.65-23.79-27.61-26.55,5.31-3.4,11.68-2.33,16.56,2.76,20.39,21.67,77.1,23.79,122.56,4.89,12.74-5.31,6.58-8.07-8.5-4-21.45,6-71.36,5.1-85.38-1.06-19.54-8.92-20.18-11-6.37-25.7,17.41-18.9,21.45-30.8,21.45-63.93.42-52-23.15-92.82-65.21-113.21C516.67,413.64,508.39,411.51,517.52,418.31Zm159.3,346.21c3.4,4.89,13.81,16.57,23.15,25.7,20.18,19.54,20.82,22.09,9.77,49.28-8.28,20.6-9.56,22.3-17.41,22.3-15.3,0-25.07,12.32-25.07,31.65v10.83H626.69c-37.8,0-40.56-.21-39.08-3.82,9.14-20.82,11-52.47,6.8-112.79l-.43-7,25.49-7c14-3.82,30.8-9.34,37.17-12.32C671.51,754.54,670,754.11,676.82,764.52Zm95.79,19.54c12.75,7.44,26.13,15.29,29.53,17.63,9.77,5.95,14.44,17.84,15.5,39.29l.85,18.7h-6.16c-14.44,0-25.27,13.8-29.31,36.53l-1.27,8.07h-63.3L725.88,892c14.45-23.79,33.56-68,36.11-83.47,1.06-6-.21-10.62-6.37-22.73-4.25-8.5-7.43-15.29-7-15.29S759.66,776.63,772.61,784.06ZM520.28,797.44c9.35,13.38,22.3,45.46,24.22,59.9.63,4.67-.64,5.52-9.56,7.86-18.69,4.67-29.1,15.93-29.1,31v8.07H463.36c-23.37,0-42.48-.42-42.48-1.06s4.67-8.07,10.19-16.57c15.51-23.36,23.37-38.23,34.62-66.27l10.2-25.49,14.44-1.27C516.88,791.5,515.82,791.28,520.28,797.44Zm287.17,94.1c0,12.32-.22,12.74-5.53,12.74s-5.52-.42-4.46-7.65c1.28-7,6.59-17.84,8.92-17.84C807,878.79,807.45,884.53,807.45,891.54Zm-279.73,3.61c1.06,8.92.85,9.13-5.1,9.13-7.44,0-8.07-4-1.7-13.17C526.23,883.68,526.23,883.68,527.72,895.15Z"/><path class="cls-1" d="M301.93,961.63c-77.1,16.57-114.9,86-82.41,151,26.34,52.89,110.45,76.68,170.56,48.43,47.37-22.3,62.45-83.47,28.25-116-26.76-25.49-76.89-18.9-86.87,11.68-3,9.35-1.49,10.41,6.58,4.25,11.68-8.49,33.77-7.22,43.76,3,21.24,21.24,5.09,56.29-26.77,58.63-41.84,3-62.44-51.4-32.7-86.24,18.69-21.87,60.74-28.25,90.48-13.59,51.61,25.27,59.47,99.61,15.29,143.79C414.72,1180.19,388,1194,368,1198c-15.5,3.19-21,9.13-14.65,15.72,4,4,499.14,5.31,503.17,1.27,1.28-1.27,1.91-4.88,1.49-8.28-.64-5.52-1.49-6.16-11.68-7.65-64.15-9.13-107.05-73.49-87.73-131.26,27.19-81.14,159.52-64.36,142.31,18.05-9.56,45.67-70.51,51.4-80.5,7.65-6.58-29.31,21-47.79,49.7-33.14,12.54,6.16,13,5.95,8.5-4.46-8.07-19.32-22.94-27.18-49.49-26.12-56.07,2.55-75.19,71.58-31.86,115.12,39.93,39.93,127,37,173.74-6.16,40.36-37.6,41.85-102.38,3.19-142.95-42.27-44.39-122.77-50.33-213.89-15.93-50.55,19.12-60.32,22.52-81.13,27.4-67.55,16.57-130.63,10.84-206.24-18.69C395.6,958.44,349.94,951.22,301.93,961.63Zm214.53,94.52c52.67,15.5,120.64,15.93,176.93.63,12.74-3.4,17.2-3.82,19.11-1.91,1.7,1.7,3,17,4,44.39.85,22.94,2.12,47.79,2.76,55,1.27,12.54,1.27,13.17-3.61,14.45-2.55.64-55,.85-116.4.64l-111.51-.64-.63-8.07c-.43-4.46.85-12.53,2.55-18.06,2.54-7.43,3.39-19.11,3.39-50.76,0-31.44.64-41,2.77-41C497.13,1050.84,506.48,1053.38,516.46,1056.15Z"/><path class="cls-1" d="M329.33,1239.66c-3.82,3-5.09,6.16-5.09,13,0,18.69-26.34,17,281.21,17H876.9l4.46-4.89c6.37-6.79,6.16-18.48-.21-24.42l-4.89-4.68h-271C342.5,1235.62,334.22,1235.84,329.33,1239.66Z"/><path class="cls-1" d="M354.18,1290c-4.24,4-4.46,10.19-.42,13.38,2.12,1.7,69.88,2.12,253.18,1.91l250.42-.64.64-5.94c1.48-13,18.48-12.11-252.55-12.11C382.86,1286.6,357.16,1287,354.18,1290Z"/><path class="cls-1" d="M391.14,1346.07c0,19.75.43,23.37,3.19,23.37,8.07,0,13.8,9.77,13.8,23.36v12.74h40.36l-.42-14c-.43-16.15,3.82-22.09,15.5-22.09,10.41,0,14.66,6.37,14.66,22.3v13.8h40.35v-13.38c0-16.35,4.46-22.72,15.93-22.72q15.93,0,15.93,23.57v12.53H590L589.1,1393c-1.06-15.08,4.88-23.57,16.57-23.57,10.62,0,14.86,6.37,14.86,22.3v13.8h40.36v-13.38c0-16.35,4.46-22.72,15.93-22.72q15.93,0,15.93,23.57v12.53H731V1393c0-15.72,5.31-23.57,15.72-23.57,11.68,0,16.14,6.37,16.14,22.3v13.8h37.81c.85,0,1.91-6.37,2.55-14.23,1.06-13.38,1.49-14.65,7.86-18.69l6.79-4.25.22-22.94v-22.72H391.14Z"/><path class="cls-1" d="M393.9,1426.36c-3.82,3.82-3.39,10,.64,14,5.74,5.94,415.46,5.09,421.4-.85,4.89-4.89,5.31-9.14,1.28-12.53C812.54,1423.17,397.73,1422.54,393.9,1426.36Z"/><path class="cls-1" d="M408.13,1533v72.22h19.12c16.78,0,19.12-.43,19.33-3.82,0-1.92.64-34.41,1.06-72.22l1.06-68.39H408.13Z"/><path class="cls-1" d="M478.23,1533v72.22h40.35V1460.77H478.23Z"/><path class="cls-1" d="M550.44,1533v72.22h38.23l.43-64.78c.21-35.69.42-68,.42-71.79l.22-6.8-19.54-.64-19.76-.63Z"/><path class="cls-1" d="M620.53,1533v72.22h40.36V1460.77H620.53Z"/><path class="cls-1" d="M692.75,1461.62c-.64.42-.85,32.92-.42,72.21l.63,71.37h38v-70.09c0-38.66.21-70.73.64-71.79C732,1461.83,694.24,1459.92,692.75,1461.62Z"/><path class="cls-1" d="M762.84,1533v72.22H803.2V1460.77H762.84Z"/><path class="cls-1" d="M1265,1045.61l-20.22,4.23v572.79l16.45,3.29c8.94,1.41,24,1.41,33.86-.47l16.93-2.82-2.35-223.85c-1.41-122.74-1.41-221.49.94-219.14,3.76,4.23,30.1,53.61,103,195.16,44.68,86.06,62.55,111.92,78.07,111.92,15,0,34.33-27.27,96.4-139.67,37.15-66.77,73.36-132.61,80.89-146.25,7.52-13.17,15-24.45,16-24.45,1.41,0,1.88,88.88,1.88,197.51-.47,185.28,0,198.92,8,213,25.87,44.21,85.59,51.26,145.78,17.4l24.46-14.11,13.64,13.64c33.86,33.86,101.57,26.81,158.48-16.46l16.46-12.23,9.4,10.82c4.7,6.11,8.94,12.7,9.41,14.58,0,1.41,7.52,8,16.93,13.64,34.33,21.16,94.52,10.81,138.73-24.46l18.34-14.58v19.28c0,16.93,1.41,19.76,13.16,22.58,16.46,4.7,74.78,4.7,91.71,0l12.69-3.29V1466c0-126.5.94-148.13,7.06-153.31,10.34-8.93,28.21.47,38.09,19.76,30.57,60.66,105.34,50.78,105.34-13.64,0-61.61-89.35-78.54-151.9-29.16-8.46,6.11-13.17,7.53-15.52,3.76-6.58-10.81-44.2-23-79.94-26.33l-36.21-2.82,7.52,11.28c12.23,17.4,12.23,267.12-.47,277.93-12.23,10.82-36.68,22.57-47.5,22.57-22.57,0-24-7.52-24-119,0-90.77-1.41-106.75-8.93-123.21-43.74-96.88-255.83-94.06-287.34,3.29-15,48.44,34.8,90.76,80,67.25,30.56-16,38.56-57.38,16.46-87-19.28-25.87-12.7-38.09,20.69-38.57,37.15-.47,57.84,15.05,64,49.38,7.53,39.51-14.57,66.31-71.48,87.47-98.75,36.21-133.55,72-127.44,129.8,2.82,24-3.29,30.56-28.68,30.56-24,0-24,.47-24-271.81,0-208.33-.94-254.42-6.11-256.3-17.4-6.58-60.67-8.46-83.71-3.76l-25.39,5.64-37.63,68.66c-96.4,176.82-120.85,220.56-124.15,223.85-1.88,1.88-39.5-63-83.23-144.37L1360,1049.84l-22.57-5.17C1311.12,1039,1292.31,1039.5,1265,1045.61Zm788.64,428.89v63l-16,9.88c-55.49,34.33-94.53-39.5-48.91-91.7,11.29-12.7,56-43.74,64-44.21C2053.21,1411.48,2053.68,1439.7,2053.68,1474.5Z"/><path class="cls-1" d="M2542.75,1045.14l-16.45,4.7v276.05c0,215.38-1.42,278.4-6.12,286.4-7,13.16,8.94,14.57,51.73,5.64,41.86-8.94,43.27-10.82,28.69-32.92-27.28-41.85-16.46-102,22.1-122.74l16.46-8.47,2.35-72,2.35-71.48,32.92-1.41c73.36-2.82,110.51,43.27,110.51,138.26,0,82.3-47,169.3-82.29,153.31-15.05-7.06-15.05-19.28,0-41.39,41.38-61.13-41.86-123.21-89.35-66.77-11.29,13.63-12.7,18.34-10.82,43.73,2.35,37.62,14.11,54.08,52.67,72.89,89.82,44.21,211.62-12.22,242.66-112.39,44.67-143-72.89-264.29-222.44-229-17.87,4.23-32.92,7.52-34.33,7.52-.94,0-1.88-50.79-1.88-112.86v-112.4l-17.4-4.7C2603,1039,2565.33,1039,2542.75,1045.14Z"/><path class="cls-1" d="M3225.75,1042.32c-2.35.94-10.34,2.82-17.4,4.23l-13.17,2.82v445.35l-12.69,16.46c-73.37,91.7-188.11,93.11-227.14,2.82-26.34-61.61-8-202.22,30.09-227.14,54.56-35.74,54.56,103.46,0,175.41-22.57,29.16-8,34.33,47.5,15,166.48-56.43,135.91-225.73-39-215.38-132.15,7.52-208.8,145.78-150.49,270.87,49.85,105.81,225.26,123.21,326.84,32l24-21.63,3.3,17.87c13.16,77.59,120.85,86.53,188.1,15.51l13.64-14.57,9.88,19.75c26.8,55,112.86,56.9,173.05,3.76,9.88-8.47,18.34-14.58,19.29-13.64s5.17,8.94,9.4,17.4c23.51,46.09,96.41,48.44,159.89,5.65l27.28-18.82,18.34,20.7c22.1,24.92,45.61,32.44,83.24,26.33s63.95-22.57,65.83-40.44l1.41-15.05-19.28,5.64c-35.27,9.41-37.62,2.35-37.62-119,0-116.15-2.82-127-37.15-156.59-53.61-46.09-176.82-46.09-231.37-.47-49.85,41.85-30.1,119,29.15,113.33,54.56-5.64,68.66-48.44,33.39-103.46-11.28-17.87-.94-28.22,28.69-28.22,51.73,0,79.48,45.62,56.9,92.65-9.4,19.75-20.69,27.27-67.25,44.67-91.23,33.39-127.44,67.72-127.44,120.86,0,13.64-33.86,39-52.2,39-28.21,0-28.21,4.24-27.74-272.28.47-290.63,7.05-261.47-56.44-261.47-63,0-56.9-27.75-56.43,249.71,0,186.7-.94,241.25-5.64,247.36-11.76,14.58-48,36.68-60.2,36.68-25.39,0-24.92,6.12-24-269.93l.94-255.83-24-5.17C3266.66,1040.44,3236.1,1039,3225.75,1042.32Zm561.5,502.25c-48.91,40-95.93-22.58-60.19-80.89,4.7-8,22.1-23.51,38.09-33.86l29.63-18.81,1.41,62.55C3897.6,1532.81,3897.13,1536.57,3887.25,1544.57Z"/></svg>