<svg id="Layer_1" data-name="Layer 1" xmlns="http://www.w3.org/2000/svg" viewBox="0 0 4190.78 2159.82"><defs><style>.cls-1{fill:#d4b300;}</style></defs><path class="cls-1" d="M682.28,1030.07q49.89-.12,99.78-.17l11.79,0h2.37q19,0,38-.07l39-.06q12,0,24,0,8.25,0,16.5,0c3.17,0,6.34,0,9.51,0q4.35,0,8.72,0h3.14c9-.09,15.94,1.72,22.5,8,6.09,6.06,10.22,13.38,14.39,20.82,4.32,7.68,9.15,15,14,22.41l1.27,2q4.56,7,9.16,14,1.56,2.39,3.13,4.77c9.35,14.25,18.74,28.47,28.36,42.55,2.6,3.8,5.17,7.62,7.75,11.43q13.38,19.77,26.86,39.47c1.09,1.59,2.17,3.18,3.26,4.76q6.46,9.45,12.94,18.88c1.53,2.21,3,4.43,4.58,6.65.61.89,1.23,1.78,1.84,2.68l18.39,26.75.92,1.34c.61.89,1.23,1.78,1.84,2.68l4.55,6.61q6.6,9.58,13.16,19.19l3.23,4.73q5.16,7.53,10.3,15.07l2.55,3.74,6.1,9a243.92,243.92,0,0,0,17.54,23.31c1.85,2.12,3.61,4.26,5.27,6.53,1.34,2.13,1.34,2.13,2.93,2.8.14-.54.29-1.08.44-1.64a42.62,42.62,0,0,1,4.53-8.27l1-1.49q1.71-2.67,3.43-5.32l1.6-2.48q7.29-11.3,14.7-22.52l1.26-1.9q11.34-17.22,22.93-34.28l1.19-1.76,1.17-1.72q5.19-7.7,10.32-15.43,9.25-13.92,18.68-27.73l5.08-7.49q13.45-19.85,27-39.64l4.32-6.31,3.26-4.77,4.4-6.43q6-8.79,12-17.57l3.5-5.09q6.1-8.91,12.29-17.76,4.27-6.14,8.48-12.3,4.93-7.24,10-14.42,4.51-6.42,9-12.88,2.67-3.84,5.35-7.69l1.24-1.79q7.31-10.49,14.79-20.82,3.51-4.86,7-9.76l.81-1.07a21.56,21.56,0,0,0,2-3.29c2-3.18,3.5-5.62,7.22-6.81a70.09,70.09,0,0,1,8.57-.23l3.33,0c3,0,6.07,0,9.11.06,3.28,0,6.56,0,9.83,0q8.52,0,17,.07,12.32.09,24.63.09,20,0,40,.15,19.4.12,38.8.17h2.42l12,0q49.77.13,99.55.41v1.37q.08,74.61.16,149.22v2.28l.06,49,0,24v2.42q0,38.32.08,76.67l.09,79.2v11.34c0,1.12,0,1.12,0,2.26l0,30.77.06,52v2q.09,66.41.56,132.8,0,7.17.1,14.33c0,.51,0,1,0,1.56q.18,25.89.2,51.8v1.66q0,31,0,62.08v26.09q0,14.73,0,29.44v4.73c0,3.5,0,7,0,10.5,0,20.24-.07,40.48-.37,60.72l-.06,4.13q-.21,14.07-.61,28.14c0,.75,0,1.49-.06,2.26-.25,7.89-1,15.63-1.67,23.55H1387.21c-1.58-26.71-1.58-26.71-1.75-37,0-.65,0-1.29,0-2-.39-21-.35-41.94-.35-62.92v-9.29c0-49.16.37-98.31.8-147.46l0-2.73c0-.68,0-.68,0-1.37q.18-19.38.34-38.77c0-.86,0-1.72,0-2.6q.36-43.53.4-87.07v-8c0-16.14-.06-32.26-.65-48.38-.21-6-.21-11.93-.14-17.9a41.58,41.58,0,0,0-6.52,8.24l-2.33,3.43-1.24,1.83c-2.21,3.25-4.47,6.48-6.72,9.7q-4.49,6.45-8.94,12.92-5.17,7.54-10.43,15-3.84,5.51-7.63,11c-5.22,7.61-10.51,15.18-15.79,22.75-4.62,6.65-9.25,13.29-13.82,20-3.17,4.61-6.38,9.21-9.58,13.8q-3.82,5.5-7.63,11-5.17,7.56-10.43,15.06-3.82,5.51-7.62,11-5.19,7.55-10.44,15-3.82,5.51-7.62,11-5.19,7.56-10.43,15.06-3.84,5.49-7.63,11-5.17,7.56-10.43,15.06-3.84,5.51-7.63,11-5.17,7.55-10.43,15-3.82,5.51-7.63,11c-5.22,7.61-10.51,15.18-15.78,22.75-9.09,13-9.09,13-18,26.07-7-3.07-11.81-12.39-16.16-18.37-1.19-1.63-2.38-3.25-3.59-4.87-5.21-7-10.27-14.14-15.26-21.32q-2.55-3.64-5.12-7.27-6.12-8.65-12.18-17.34c-1.2-1.73-2.41-3.45-3.61-5.17q-5.74-8.19-11.42-16.42c-2.72-4-5.48-7.94-8.24-11.9q-5.94-8.55-11.84-17.13l-4.54-6.61c-.62-.89-1.23-1.79-1.84-2.68l-.92-1.33-2.76-4-.92-1.33c-.61-.9-1.23-1.79-1.84-2.68l-4.55-6.62q-5.52-8-11-16.08-3.45-5-6.91-10.07l-9.14-13.33q-3.45-5.05-6.91-10.08l-9.14-13.33q-3.9-5.7-7.81-11.39l-4.79-7q-6.66-9.73-13.41-19.41-4.28-6.15-8.49-12.33c-2.92-4.29-5.89-8.53-8.9-12.76-2.18-3.08-4.31-6.18-6.42-9.31l-.84-1.24c-1.37-2-2.75-4.07-4.11-6.11a159.29,159.29,0,0,0-13.78-18.28c-.81-.91-.81-.91-1.65-1.83l-1.25-1.39c0,1.22,0,1.22,0,2.47q-.16,54.13-.35,108.27v1.67l-.12,35.94-.06,17.64v1.77l-.18,56.38q-.09,29.09-.19,58.17l0,8.31v1.65l-.09,25.8q0,13.11-.08,26.24,0,7-.05,14.1c-.1,35.7-.5,71.39-.85,107.09H682.94a132.53,132.53,0,0,1-.75-13.48v-23.75c0-5.2,0-10.4,0-15.6q0-13.3,0-26.59V1786.84q0-31.1,0-62.2v-65.46q0-48.59,0-97.16,0-16.85,0-33.71v-2.11q0-48.6,0-97.21v-48.12q0-41.61,0-83.21v-4q0-89.19,0-178.39v-1.69Q682.27,1071.84,682.28,1030.07Z"/><path class="cls-1" d="M2748.52,1027.93h9.35c28.9,0,57.8.08,86.7.43l1.81,0,30.8.4c29.65.39,59.3.68,89,.68h2.09q22.13,0,44.23,0l16.35,0h1.75c55.71-.09,112.45.59,284.84,65.56l2,1.55c5.41,4.31,10.41,9.06,15.4,13.83l1.92,1.83a110.58,110.58,0,0,1,9.27,10.33c1,1.26,2.05,2.5,3.1,3.72,10.35,12,18.44,26,25.17,40.31l.67,1.4c26.23,55.95,29.34,126.43,8.36,184.56a214.76,214.76,0,0,1-42.39,70q-1.9,2.1-3.76,4.28a117.32,117.32,0,0,1-15.71,14.67l-2.2,1.78c-8.49,6.84-17.57,12.52-26.89,18.15-7.14,4.33-14.14,8.64-20.4,14.18h-1.34c4.85,5.54,14.28,8.41,20.81,11.41,19.56,9,38.21,19,55.43,32.06l1.27,1c12.84,9.75,25.62,20.63,36.15,32.89q1.56,1.8,3.15,3.6c12.63,14.31,22.56,30.41,31,47.49l.82,1.66c15.52,31.52,20.9,67.43,20.79,102.26,0,.75,0,1.51,0,2.29-.12,46.71-10.44,93.47-37,132.56l-.77,1.13a212.54,212.54,0,0,1-22.64,27.62c-.39.42-.79.83-1.2,1.26a146.18,146.18,0,0,1-14.42,13.4c-1.85,1.46-3.62,3-5.4,4.53-47.36,39.43-111,57.66-348.83,76.46l-1.44,0q-53.65.76-107.31.73h-147.2c-99,0-99,0-117.25-1.43-1.28-1.28-.75-3.19-.75-4.89v-68.26q0-13.58,0-27.15v-73.73q0-31.34,0-62.67V1663.8q0-48.93,0-97.87,0-17,0-34v-2.13q0-49,0-97.91v-48.47q0-41.89,0-83.79v-4q0-89.86,0-179.71v-1.7q0-42.09,0-84.18l14.06-.55,4.76-.19c12.8-.5,25.6-1,38.4-1.16l2.07,0C2711.61,1027.89,2730.07,1027.93,2748.52,1027.93Zm154.89,222.85v138.44c31.09,1.2,31.09,1.2,62.2,2l1.39,0c39.22.65,87.74,1.43,118.16-27.17,12-12.51,16.37-29.42,16.21-46.42-.48-14.55-4.81-28.52-14.71-39.46l-1.32-1.52c-20.44-22-56.75-26-85-27.24-7.58-.24-15.16-.2-22.75-.18h-6.87C2948.27,1249.21,2925.9,1250.05,2903.41,1250.78Zm1.33,347.78c-.24,14.44-.24,14.44-.47,28.88l0,1.54q-.31,21-.54,42.06l0,2q-.41,36-.27,72c28.94.56,57.88.76,86.83.79l9.32,0c54.42,1.71,54.42,1.71,106.5-11.51l2.05-.91a62.72,62.72,0,0,0,32.72-35.21,82.82,82.82,0,0,0,4-30.09l-.09-1.32c-1-15-4.88-29.54-15.3-40.82l-1.58-1.73c-19.22-20-49-24.29-75.46-25.77l-1.51-.08c-18.31-1-36.68-.68-55-.64H2985C2958.21,1597.76,2931.48,1598,2904.74,1598.56Z"/><path class="cls-1" d="M1709.57,1030.07c494.46,0,494.46,0,567.83,24.74l2.3.78a480.66,480.66,0,0,1,52.54,22l1.87.9c9.19,4.42,18.06,9.37,26.89,14.49l1.66,1a413.55,413.55,0,0,1,62.59,44.19c1.84,1.57,3.71,3.09,5.6,4.6,3.35,2.72,6.51,5.63,9.66,8.59,1.88,1.77,3.78,3.51,5.75,5.18,4.11,3.57,7.9,7.48,11.74,11.33,1.35,1.36,2.71,2.71,4.06,4.06,4.13,4.13,8.19,8.27,12,12.72,1.18,1.31,2.39,2.6,3.59,3.89,3.42,3.71,6.62,7.56,9.78,11.5l2,2.37a455.59,455.59,0,0,1,50.58,76.07q1.45,2.71,2.92,5.42c24.35,45.39,39.54,95.75,50.22,173,.08.81.15,1.62.24,2.46a446.92,446.92,0,0,1-.91,87.16l-.17,1.65a465.48,465.48,0,0,1-37.95,141.48c-.28.6-.28.6-.55,1.22a442.58,442.58,0,0,1-53,89.07l-1,1.3q-6,7.83-12.38,15.42l-.85,1q-6.23,7.47-12.83,14.56c-.76.83-1.5,1.66-2.24,2.5-4.33,4.9-8.91,9.52-13.54,14.14l-4,4c-4.1,4.11-8.22,8.15-12.65,11.9l-3.56,3.26c-3.61,3.29-7.35,6.38-11.16,9.45l-2.37,2c-44.37,36.56-95.68,64.37-150.16,82.55l-3.7,1.24c-35,11.67-71.57,18.6-108.28,21.76l-1.39.12c-149.82,12.71-300.71,1.39-451.07,1.39Zm345.8,251.07-3.79.09-9.95.22-7.87.18q-26.65.6-53.32,1.25l-.33,118.7c0,2.26,0,4.53,0,6.79-.27,99.81-.27,99.81-.37,237.38v2.69q0,32.25,0,64.49c4,.44,8,.76,12,.86l1.49,0,4.9.12,3.52.09,11.48.27,2,0c19.58.44,39.16.73,58.74.75H2079c19.1.05,38.22-.47,57.21-2.64l1.45-.17a250.39,250.39,0,0,0,50.76-10.74l1.88-.62a170,170,0,0,0,50.29-26.81c.8-.6,1.6-1.2,2.39-1.81,12.37-9.44,24.3-20.59,33.73-33l1.56-2c36.44-45.87,51.67-106.22,45.84-164.12-4.86-42.22-20.32-83.14-47.4-116.16l-1.63-2c-9.22-11.31-20-22.16-31.81-30.73l-4.14-3.31c-40.5-31.35-93.88-38.64-143.64-39.84-1.66,0-3.31-.08-5-.12l-3.29-.08-1.44,0C2075.66,1280.72,2065.52,1280.9,2055.37,1281.14Z"/></svg>