<svg xmlns="http://www.w3.org/2000/svg" viewBox="0 0 3801.16 778.37"><g id="Layer_2" data-name="Layer 2"><g id="Layer_1-2" data-name="Layer 1"><path d="M345.15,2.47c-4,1.2-5.21,24-5.21,93.63v91.64h32v32.41L357.15,219c-14.81-1.2-15.21-.8-16.41,13.61-1.2,16,1.6,17.61,24.41,16,5.21-.4,6.81,2.41,6.81,15.21,0,15.21-.4,15.61-14.81,16.81l-15.21,1.2L340.74,313l-1.2,31.21-14.8-1.2-14.81-1.2V310.59l.4-30.81H179.08c-72,0-131.25-1.2-131.25-2.4,0-7.61,34.41-74,49.62-95.24,39.61-55.62,118-115.25,171.67-130.85l10.8-3.2V215.75h-8.8c-5.21,0-34,.8-64,2-66.83,2.4-66.83,2-27.21-38,33.21-32.82,35.21-33.62,36.81-11.21,1.21,16.81,1.61,17.21,16.41,18.41l14.81,1.2V141.72c0-54,2.8-52.42-40.82-22.41C164.67,148.12,95.85,225.36,95.85,244.56c0,2.8,112.84,5.61,187.67,4.4l26-.4-1.2-119.24c-.4-66-1.6-120-2-120.45-.4-.8-18,4.4-38.82,11.2C149.87,58.49,59.43,149.73,17.42,273c-14.41,41.62-18,38.82,50,38.82h59.62l-1.2,12.8c-.8,7.21-1.2,14.81-1.6,16.41-.4,2-27.21,2.8-60,2L4.61,341.8l-2.4,14c-3.2,18.4-2.8,59.62.4,71.22,2.4,9.21,3.6,9.61,34.81,8.41,18-.4,45.62-.4,61.23-.4l29.21.8-1.6,12.8c-.8,7.21-1.6,14.81-2,16.81s-24.81,2.4-58.42,1.2c-65.63-2.8-62-5.6-50,33.21,32,102.44,103.64,187.28,200.47,238.5,17.61,9.2,88.44,33.61,92,31.21,1.2-.8,2.4-55.62,2.4-121.65l-.4-120H203.09c-58.82,0-107.24.8-107.24,2,0,5.6,14.8,30.41,32.41,54,29.61,40,52,60,104.84,91.63l14.81,9.21V591.5l-14.81,1.2c-14.8,1.2-15.2,1.6-17.21,19.21l-2,18L182.68,599.5c-16.81-16.8-30.81-32.81-30.81-35.21,0-3.2,19.61-4.4,64-4.4h64V728.35l-8.8-2.4C208.69,708,127.46,643.12,87,579.89c-18.4-28.81-39.61-76-36.81-80.83,1.6-2.4,48-3.2,122.05-2,151.66,2,138,5.2,136.45-31.61l-1.6-29.61h32.81v60h32v32H339.54l1.2,14.81c1.2,14.41,2,15.21,16.41,16.41s14.81,1.6,14.81,17.2,0,15.61-16,15.61h-16V774.77l24,2.4a240.8,240.8,0,0,0,48,0l24-2.4V591.9H404v-32h32v-32H404V495.46l15.2,1.2,14.81,1.2v-30l.4-30,17.21-1.2,17.2-1.2-1.2,31.21L466,497.86H594.84c70.83,0,129.65,1.2,130.86,2.4,1.6,1.2-8,22.81-20.41,48-40.42,79.23-131.65,161.27-198.08,177.27L496,728V559.89H628.86l-12.81,16c-6.8,8.81-22,24-33.21,34L562,628.31l-2-19.2-2-19.21-14,1.2c-18,2-16.4-2.8-15.2,48.42l1.2,44.42,27.61-16.81c45.62-27.21,122.45-111.64,122.45-134.85,0-3.21-29.21-4.41-106.84-3.61L466,529.88l-.8,118.84c-.4,66.43.8,120,2.8,121.25s19.21-3.2,38.82-10c133.65-46.42,231.29-154.06,260.5-287.72l2-9.6-58.82,2-58.42,1.6V435.84h59.62c58.42,0,59.62,0,62-9.21,2.81-11.2,3.21-58.42,0-73.22l-2.4-11.61-59.62,1.6-59.62,1.2V311.79h58c70,0,66.83,7.6,33.21-80C709.69,143.32,616.85,58.49,511.61,19.67,461.19.87,466-10.74,466,128.52V249.76H573.24c80,.41,106.84-.8,106.84-4.4C680.08,217,558.83,95.7,530,95.7c-1.2,0-2,20.81-2,46.42v46l15.2-1.2c14.41-1.2,14.81-1.6,16-18.41.8-9.2,2.4-16.8,4-16.8,5.2,0,62.43,59.62,60,62-2.8,2.8-9.6,3.2-76,2.4l-51.22-.4v-82c0-94.44-2.4-89.64,38-70.83,78,37.22,146.06,106,179.67,182.47,16.41,37.22,26.81,34-118.45,35.22L466,281.78v60l-14.8,1.2-14.81,1.2L435.18,313,434,281.78l-14.81-1.2c-14.4-1.2-15.2-2-15.2-16,0-14.4.4-14.81,14.8-14.81,15.21,0,15.21,0,16.41-17.6l1.2-17.61-16,2.8-16.4,2.4v-32h32v-90c0-84.84-.4-90-7.6-94C420.37-.33,354.35-1.53,345.15,2.47Zm58,92,1.2,61.23H372V31.28l15.2,1.2L402,33.68ZM279.92,343v31.21h31.21c16.81,0,30.41,1.2,30,2.81-.8,1.6-1.2,8-1.2,14.8v12h-60v64h-124v-32h92v-32h92v-32H279.92Zm123.25,45.62L402,465.85l-14.81.8-15.2.4V311.79h32ZM620.05,327.8v16H528v92h92v32.41l-60.82-1.2L498,465.85l-1.2-31.21-1.21-30.81H466c-32.81,0-35.21-1.61-31.61-20,2.4-11.61,4-12.41,17.21-11.61,8,.4,21.21.4,29.61,0l14.8-.4v-60h124Zm-405,60.82,1.2,15.21H31.82V390.62c0-19.61-2.4-19.21,93.64-18l88.43,1.2Zm528.21.8,1.2,14.41H560V390.62c0-19.61-1.2-19.61,94-17.61l88,2ZM404,683.94v60H372V623.91h32Z"/><path d="M2156.51,88.54v18l21.21-1.2,20.81-1.21,1.2-17.2,1.2-16.81h-44.42Z"/><path d="M2216.54,170.17v100h36V106.55l28.81-1.2,28.41-1.21.4-16,.4-16-46.82-1.2-47.21-1.2Z"/><path d="M2340.58,169.77V270.21h34l-.4-98.84V72.13l-16.81-1.2-16.81-1.2Z"/><path d="M2448.63,115.75v46.42h-56V191l28-1.6,28-1.2v82.43l16.4-1.2,16.41-1.2.4-98,.4-98-16.81-1.2-16.8-1.2Z"/><path d="M2528.66,170.17v100h140.05v-28h-112l.8-70.83,1.2-70.43,55.22.8,54.82.8V70.13H2528.66Z"/><path d="M1783.56,165c-98.83.8-155.26,2.8-155.26,5.2s1.2,4,3.2,4c114.45,1.2,341.74,4.4,396.16,6l72.83,2v-20l-80.83.8C1974.84,163.77,1868.8,164.57,1783.56,165Z"/><path d="M2576.68,176.17v14h92v-28h-92Z"/><path d="M2728.74,171v10.41l73.23-1.61c40-.8,144.85-2.4,232.49-3.2,101.64-1.6,161.26-3.6,164.06-6.4s-31.61-4-109.64-4c-62.83,0-169.27-1.2-236.89-2.8L2728.74,161Z"/><path d="M1024.07,483.09V654.36h56l.8-104.84,1.2-104.84,50,56.82c27.61,31.21,51.22,56.82,52.42,56.82,1.6,0,18.41-16.8,37.21-37.61l34.42-37.22V450.68c0-17.61-1.2-32.41-2.8-32.41-2,.4-14.81,14.8-29.22,32.41s-28.81,34.81-32.41,38c-5.6,5.2-13.6-2.4-76-73.23-38.41-43.22-74.43-84.44-80.43-90.84l-10.8-12.4Z"/><path d="M1320.18,339c-12,14-23.61,28-26.81,31.21-3.6,4.8-5.2,38.41-5.6,144.06l-.8,138.05,28.41,1.2,28.81,1.2V484.29c0-93.63-.8-170.06-1.6-170.06C1342.19,314.23,1331.79,325.43,1320.18,339Z"/><path d="M1422.62,483.09V652.36h235.7l-.41-22v-22l-92.83-1.2-92.84-.8V362.25l92.44-.8,92.43-1.2.8-22,.41-22-118-1.2-118-.8Z"/><path d="M1712.34,349.84v36.42h52v-24h35.21c85.23,0,138.06,46.81,138.46,122,0,72.43-48.82,117.65-130.46,121.25l-42.81,2-1.2-15.2-1.2-14.81-24-.8-24-.4v76l60,1.2c91.24,1.6,130.45-10.8,170.47-54.42,79.63-87.23,52.82-218.89-55.22-270.11-27.21-12.8-27.61-12.8-102-14l-75.23-1.6Z"/><path d="M2176.52,362.65c-41.22,82.43-124.45,244.49-136.45,266.1-15.21,26.81-16,25.61,16.8,25.61h28L2101.29,620l16-34.42,64.82.8c35.22.8,65.63.8,67.63.4,1.6,0-1.6-9.6-7.2-20.4l-10-20h-46c-25.21,0-46-1.6-46-3.6,0-4.8,60.42-129.25,62-127.65.4.4,26.41,54.42,57.22,119.24l56,118.05,28.42,1.2c15.6.8,28.41-.4,28.41-2.4s-38.42-78.83-85.64-170.87L2201.33,313Z"/><path d="M2428.62,484.29V654.36h56V314.23h-56Z"/><path d="M2719.53,483.09l.8,169.27,28.41,1.2,28,1.2V314.23h-58Z"/><path d="M3008.85,484.29V654.76l28-1.2,28.41-1.2V316.23l-28.41-1.2-28-1.2Z"/><path d="M3261.75,318.23c-44.82,9.6-91.24,47.62-114.85,94.44-11.2,22.41-12,26.41-12,71.62s.8,49.22,12,71.63c24.41,48.42,75.63,88.44,123.25,96.84l14.81,2.4V630.75c0-16.4-1.6-25.21-4.81-26-66-18.81-100.44-60.42-100.84-120.45-.4-90.83,98.44-150.86,177.67-107.64,93.24,50.82,82.44,188.48-17.2,222.09l-20.81,7.2-2,22.41c-2.8,27.61-1.2,28.81,31.21,18.41,180.87-56,149.26-321.73-39.21-330.93C3292.56,315.43,3271.35,316.23,3261.75,318.23Z"/><path d="M3533.05,483.49V654.76l29.22-1.2,28.81-1.2-1.6-103.24c-1.2-70.43,0-102.84,2.8-102.84a6.27,6.27,0,0,1,5.6,3.6c2.4,6.8,108.44,124.45,111.64,124.45,2,0,3.6-14,3.6-31.21l-.4-30.81-66.82-74.43c-36.82-40.82-77.23-86-89.64-100l-22.81-25.61Z"/><path d="M3744.34,463.09l-1.6,149.25,17.6,20.81c13.61,16.81,20,21.21,29.21,21.21h11.61V314.23h-55.22Z"/><path d="M1504.25,488.3v22l70,.8c38.42.41,73.23.81,77.23.81,5.6.4,6.81-3.21,6.81-21.61v-22l-76.84-1.2-77.23-.8Z"/><path d="M2516.65,626.35v28h148.06v-56H2516.65Z"/><path d="M2808.77,626.35v28h148.06v-56H2808.77Z"/></g></g></svg>