<svg id="Layer_1" data-name="Layer 1" xmlns="http://www.w3.org/2000/svg" viewBox="0 0 4166.81 2147.47"><defs><style>.cls-1{fill:#d4b300;}</style></defs><path class="cls-1" d="M2565.25,325.25,2520,366.06l45.25,54.56,45.24,54.11,1.33-48.35c.45-26.61.45-69.64,0-95.37l-1.33-46.57Z"/><path class="cls-1" d="M2474.76,415.29l-20.41,22.18,73.19,89.16c40.37,49.24,75.85,92.26,79,95.81,5.32,5.32,6.21-1.33,6.21-44.36l-.44-51-55.45-67.86c-30.61-36.82-56.78-67-58.55-67C2496.49,392.67,2485.85,402.87,2474.76,415.29Z"/><path class="cls-1" d="M2639.77,493.81c.44,43.91,2.22,79.84,4,78.95s19.52-20.85,39.48-44.8l35.93-43-31.5-30.16C2634,404.65,2638.88,400.66,2639.77,493.81Z"/><path class="cls-1" d="M2412.22,491.14c-12,15.09-21.3,29.28-21.3,31.05s14.64,19.52,32.38,39.48,67,78.07,109.57,129.08l77.62,93.15,1.33-51.9,1.33-52.34-45.24-54.11c-24.84-29.72-64.76-78.52-89.16-108.68-23.95-29.72-44.36-54.11-44.8-54.11S2423.75,475.62,2412.22,491.14Z"/><path class="cls-1" d="M2692.55,559c-23.06,28.39-44.8,55.89-47.46,60.77-6.21,10.65-6.65,89.6-.44,83.39,2.21-2.22,32.82-38.59,67.86-81.17l63.88-77.18-18.63-19.08c-9.76-10.2-19.52-18.63-20.85-18.63S2715.62,530.18,2692.55,559Z"/><path class="cls-1" d="M2352.78,583c-18.63,37.26-19.52,32.38,19.07,77.19,16.86,19.51,78.07,90.93,135.73,158.79l105.13,122.87V887.7l-.44-54.56-77.63-90.93c-42.58-50.13-96.25-113.11-118.43-140.62-22.62-27.5-42.14-49.68-43.92-50.12C2370.52,551.47,2361.65,565.66,2352.78,583Z"/><path class="cls-1" d="M2723.16,652.16c-90.93,110-83.84,98-83.84,144.16,0,21.74,1.78,39,3.55,39s44.8-48.8,95.37-108.68l92.26-109.12-8.87-14.19c-10.64-16-25.28-34.16-28.39-34.16C2792.36,569.21,2760.86,606.47,2723.16,652.16Z"/><path class="cls-1" d="M2826.51,664.14c-10.2,13.3-54.56,66.09-98.47,117.54s-81.18,97.15-83.39,101.58c-4.88,9.76-7.1,89.6-2.22,89.16,1.77,0,19.52-19.52,39-43s71.86-85.16,116.66-137.5l80.73-94.48-16-28.39c-8.42-16-16.41-28.84-16.41-28.84C2846,640.18,2837.16,650.83,2826.51,664.14Z"/><path class="cls-1" d="M2312,678.33c-17.3,59-17.3,58.11,2.66,79,13.75,14.64,172.55,198.72,279,324.25l18.63,22.18.44-56.34V991.05L2507.14,867.74C2449.48,799.87,2386,725.35,2367,702.29c-19.52-23.07-37.7-44.81-40.81-48.35C2321.73,649.06,2319.06,653.49,2312,678.33Z"/><path class="cls-1" d="M2874.42,743.54c-6.21,8-50.13,59.88-97.59,115.77s-97.58,114.89-110.89,130.85l-24.4,29.72-1.33,45.69c-.89,27.5,0,45.25,2.66,44.36,2.22-.89,31.94-34.6,66.1-75,34.59-40.36,93.59-109.11,131.74-153,76.73-88.71,72.74-79.84,57.66-130.41C2890.83,725.35,2889.06,724.46,2874.42,743.54Z"/><path class="cls-1" d="M2293.34,799c-.89,131.74,113.55,281.23,280.34,365.06,41.69,20.85,39,20.85,39,1.78,0-12.42-4-20.41-19.07-36.82-15.53-16.85-194.29-224.89-281.23-326.91l-18.63-22.18Z"/><path class="cls-1" d="M2893.93,860.64c-14.63,17.74-203.15,238.2-242.19,282.56-11.09,12.86-16.85,38.14-8.87,38.14,2.22,0,20-8.87,39.92-19.51,135.29-73.19,218.69-177.88,229.78-290.54C2916.11,834,2915.67,834,2893.93,860.64Z"/><path class="cls-1" d="M1250.5,958.23c-22.62,3.55-58.55,29.27-72.3,51.45-65.21,105.57,79,217.8,173.43,134.4C1437.69,1068.23,1368.05,940,1250.5,958.23Zm62.54,20.4c42.14,28,49.24,118.88,12.87,160.57-23.07,26.17-64.32,31-90.49,10.21-44.8-35.05-42.59-144.16,3.55-172.11C1259.37,964.88,1294,965.32,1313,978.63Z"/><path class="cls-1" d="M962.62,1063.8c0,98,.44,104.24,8,104.24,8,0,8-4.88,6.21-83.4-1.77-82.94-1.77-82.94,7.1-74.07,4.88,4.88,38.15,42.58,74.08,84.28,35.93,41.25,67.86,75.85,71.41,76.73,5.33,1.34,6.21-15.52,6.21-105.12,0-103.35-.44-106.9-8.87-106.9s-8.87,3.55-9.76,75.85l-1.33,75.41-67.86-75.41c-43.92-49.24-71-75.85-76.3-75.85C963.06,959.56,962.62,963.11,962.62,1063.8Z"/><path class="cls-1" d="M1419.5,1063.35V1168h60.33c46.57,0,63.87-1.78,75.4-7.1,43.47-20.85,45.25-75.85,2.66-93.59l-15.52-6.66,12.42-8c24.84-16.41,31-43.47,15.08-63.88-16.86-21.73-32.38-26.17-93.59-28.39l-56.78-1.77Zm103.8-80.73c19.51,10.21,26.17,33.27,16,52.34-7.09,12.87-17.74,16.86-52.34,20L1455,1058v-86.5l29.27,3.11C1500.67,976.41,1518,980,1523.3,982.62Zm-5.33,87.83c20.41,5.77,34.6,23.07,34.6,42.58,0,27.06-26.17,41.7-74.08,41.7H1455V1066h23.5C1490.91,1066,1509.1,1068.23,1518,1070.45Z"/><path class="cls-1" d="M1623.54,1063.8V1168h71c60.33,0,71-.89,71-6.66s-8.88-6.65-53.23-6.65H1659V959.56h-35.49Z"/><path class="cls-1" d="M1795.21,962.66c-1.78,1.33-3.11,48.35-3.11,104.24V1168h73.19c62.1,0,73.19-.89,73.19-6.66s-9.32-6.65-55.45-6.65h-55.44v-93.15h37.7c30.61,0,37.7-1.33,37.7-6.65s-7.09-6.66-37.7-6.66h-37.7V972l54.11,1.33c49.24,1.77,54.56.89,55.89-6.21s-4-7.54-69.2-7.54C1829.8,959.56,1796.54,960.89,1795.21,962.66Z"/><path class="cls-1" d="M1059.76,1255.86c-182.31,49.24-170.33,299.42,16.41,334,55.89,10.21,114.89-7.54,152.15-46.13,27.06-27.94,30.16-34.15,20-41.69-11.53-8.43-12.86-7.54-27.5,12-58.11,79-167.67,70.53-211.59-16-19.07-37.7-20-115.77-1.33-150.37,47.91-90.49,159.69-101.13,211.59-20.4,14.19,21.73,14.64,22.18,25.28,15.52,14.64-9.75,13.75-12.42-13.75-41.69C1186.18,1254.53,1125,1238.12,1059.76,1255.86Z"/><path class="cls-1" d="M1412.85,1257.19c-1.78,4.88-34.16,74.08-71.86,153.92s-71.86,151.71-75,159.25l-6.21,14.63h13.31c13.31,0,14.64-2.21,39.92-55.44l26.17-55.45h141.06l24.4,54.12,24.39,54.56,28,1.33c22.18.88,27,0,25.28-4.88-1.33-3.11-35.93-79-76.74-168.56C1430.15,1247,1420.83,1231.47,1412.85,1257.19Zm27.94,131.75c15.08,33.26,27.5,62.1,27.5,63.87,0,2.22-27.06,3.55-59.88,3.55s-59.88-.89-59.88-1.78,11.09-25.28,24.84-54.11c13.75-29.28,26.61-57.22,28.83-63C1408.41,1321.07,1412,1325.5,1440.79,1388.94Z"/><path class="cls-1" d="M2314.63,1253.65c-42.58,12.42-65.65,41.25-65.65,82.94,0,42.14,19.07,62.55,97.14,103.8,60.77,32.38,80.29,51.45,80.29,79.4,0,42.14-55.89,65.65-104.24,43.47-16-7.1-46.58-35.93-46.58-43.91-.44-10.65-7.54-14.2-21.29-9.32-17.3,5.77-17.3,6.21-1.33,31.49,61.22,96.7,243.52,47.91,220-59.43-4.87-22.18-43-55.89-90.93-80.73-70.08-36.38-93.15-56.78-93.15-82.07,0-39.92,54.12-61.65,100.69-40.8,18.19,8.42,45.69,39.92,45.69,52.34,0,8,17.74,4.88,30.16-5.33,3.11-2.66-14.19-31.93-27.5-45.68C2412.66,1252.76,2359,1241.23,2314.63,1253.65Z"/><path class="cls-1" d="M2850.46,1288.69c-53.67,115.33-128.19,272.8-133.95,283.88-6.21,12.42-6.21,12.42,8,12.42,14.64,0,15.08-.88,39.92-54.55l24.84-54.12h143.28l23.95,53.23,23.95,53.23,28.83,1.33,28.39,1.33-74.07-161c-40.81-88.71-75.41-164.56-77.19-169C2880.18,1238.56,2869.54,1248.32,2850.46,1288.69Zm41.26,98.91c14.63,32.83,27.06,61.66,27.06,64.32s-20.41,4.44-57.67,4.44c-37.7,0-57.66-1.78-57.66-4.88,0-6.65,55-123.76,58.1-123.76C2863.33,1327.72,2876.64,1354.78,2891.72,1387.6Z"/><path class="cls-1" d="M2142.52,1418.65V1585h57.67V1252.32h-57.67Z"/><path class="cls-1" d="M1623.54,1420.87V1585h221.79v-22.17H1676.77V1256.75h-53.23Z"/><path class="cls-1" d="M1885.25,1420.87V1585H2102.6v-22.17H1938.48V1256.75h-53.23Z"/><path class="cls-1" d="M2479.64,1267.84v11.09H2599.4V1585h53.23V1278.93H2772.4v-22.18H2479.64Z"/></svg>