<svg id="Layer_1" data-name="Layer 1" xmlns="http://www.w3.org/2000/svg" viewBox="0 0 4277.72 2204.63"><defs><style>.cls-1{fill:#d4b300;}</style></defs><path class="cls-1" d="M651.43,813.29l-11.5,1.5v489.48h252c163,0,253-2,254-5,1-2.5.5-113.5-1-246l-2.5-241.49h-240C770.43,811.79,657.43,812.29,651.43,813.29Zm473.48,16c3,0,5,38,5,105,0,84.49-1.5,105-6.5,105-4,0-33-24-64.5-54-73-68-128.49-116-134.49-116-2.5,0-4.5,36.5-4.5,87.5,0,84-.5,87.49-10,87.49s-10-3.5-10-107c0-81,1.5-108,6.5-110,3-1,52.5-1.5,109.49,0C1073.41,828.29,1121.91,829.29,1124.91,829.29Zm-243,8c4,10,4,189,0,199-2.5,7-16.5,8-102.49,8-96,0-99.5.5-99.5,10s4,10,101.5,11l101,1.5,1.5,77.5c1,42.49,0,91.49-1.5,108.49l-3.5,31.5h-219v-85c0-81.49.5-85,10-85s10,3.5,10,77.49v77.5l91.5-1,91-1.5,1.5-91.5,1-91h-205v-60h205v-175h-185v75c0,71.49-.5,75-10,75s-10-3.5-10-85v-85h109.5C864.42,829.29,879.42,830.29,881.92,837.29Zm117.5,133c9.5,17-4.5,40.5-25.5,43-13.5,1.5-34-18-34-33C939.92,952.79,985.42,945.29,999.42,970.28Zm75.49,64c0,9.5-3.5,10-64.49,10-38,0-66-2-68-5-7.5-12,6-15,68-15C1071.41,1024.28,1074.91,1024.78,1074.91,1034.28Zm50,140v110h-225l1-89c1.5-74.49,2.5-88.49,9-88.49s7.5,13,9,81.49l1,81,94-1,93.5-1.5,1.5-91.5,1-91h-105c-84,0-105-1.5-105-6.5,0-12.5,7-13.5,116-13.5h109Z"/><path class="cls-1" d="M942.42,849.29c-1.5,2.5,155.49,145.49,163.49,149,2,1,4-32,4-73.49s-1.5-75.5-3.5-75.5C1028.41,846.79,943.92,846.79,942.42,849.29Z"/><path class="cls-1" d="M959.42,972.28c-7.5,9-1,23.5,12,26,12.5,2.5,20-16.5,10.5-26C972.42,962.29,967.92,962.29,959.42,972.28Z"/><path class="cls-1" d="M1214.9,1059.28v245H3637.79l-1-244-1.5-243.49-1209.94-1.5-1210.45-1Zm382.49-164.49c82,25,118,76,118.49,167.49,0,114.49-83,177.49-226,170.49-131-6.5-196-65-196.49-176C1292.9,921.79,1436.39,845.29,1597.39,894.79Zm354.48-5c1,1,15,46.5,31,100.49,16,54.5,30.5,99,32,99,2,0,16.49-44.5,32.49-99,16-54,31-99.49,33-101s39-2.5,83-2.5h79l1.5,171.49,1,171.49-51-1.5-51.5-1.5,2-127.49c1-87,0-126-3.5-122.5-3,2.5-21,58.5-40.5,124-19.5,66-37,121.49-38.5,124-3.5,6-90.49,6-94,0-1.5-2.5-18.5-56.5-37.5-120.49s-37.5-119-40.5-122c-4.5-4-5.5,25.5-4,119.5l1.5,125-51,1.5-51.49,1.5V1060.28c0-93,1-170.49,2.5-171.49C1789.88,885.79,1949.37,887.29,1951.87,889.79Zm624.47-1c2,.5,6,6,8.5,12.5,8.5,23,141,315.48,144.49,319,4.5,5,141.49-166,139-173-1.5-3-29.49-39-63-80s-60.5-76.49-60.5-79,31-3.5,69-3l68.49,1.5,35,51c19.5,28,36.5,51,38.5,51,1.5.5,17.5-22,35-49,18-28.5,36-51,41.5-52.5,12.5-3.5,132.49-4,132.49-.5,0,1.5-28.5,39-63.5,83-53.49,68-62.49,82-57.49,89.5,3,5,33.49,44,68,86.5,34.5,43,63,79,63,80.49s-31.5,3-70,3h-70l-40.5-55c-22.5-30-41-55-41.5-55-1,0-19,25-41,55l-39.5,55-137-1-137.49-1.5-10.5-27-10-27.5h-69.5c-80-.5-74-3-85,30.5l-9,26.5h-64.5c-35.5,0-64.5-.5-64.5-1.5s15-34,33-74c18-39.5,52-115,75.5-167,23.5-52.49,44.49-96,46.49-97.49C2443.34,887.29,2561.84,886.79,2576.34,888.79Zm976.95,2c3.5,2,5.5,15.5,5,35l-1,31-106,1.5-106.5,1v55l98.5,1,98.49,1.5.5,32.5v32.5l-98.49,1.5-99,1v67.5l110-2,110.49-1.5-1.5,39-1.5,39.5h-345l-1.5-165c-.5-90.5-.5-167,1-170C3218.81,885.79,3543.79,884.79,3553.29,890.79Z"/><path class="cls-1" d="M1477.39,964.78c-39,9.5-57.5,39-57.5,93.5,0,67,29.5,98,91,95,63-3.5,91.5-52.5,77-131.5-6.5-34-52.5-67-87-62C1498.89,960.29,1488.39,962.29,1477.39,964.78Z"/><path class="cls-1" d="M2500.84,987.78c-3,7.5-13.5,36-23,62.5l-17.5,49h44.5c30,0,45-2,45-5.5,0-5-39.5-114-42.5-118.5C2506.84,974.78,2503.84,980.28,2500.84,987.78Z"/></svg>