<svg xmlns="http://www.w3.org/2000/svg" viewBox="0 0 2032.13 1340.87">
  <path fill="#ffffff" d="M421.26,522.88c-14.84-5.14-66.21-17.13-114.16-26.83-130.72-26.83-156.41-42.24-143.85-86.77,17.7-61.08,160.4-74.2,268.86-24.54,17.7,8,32.54,14.27,33.68,14.27S480.63,373.89,496,342.5L524.58,286l-32.53-14.27c-17.7-8-47.95-18.83-66.79-24-45.67-13.13-194.08-17.13-235.18-6.28C81.05,268.86,20,336.79,20,430.4c0,107.89,55.37,151.27,235.75,184.38,121,22.26,143.85,34.82,143.85,77.06,0,76.49-166.68,91.9-299.11,27.4C75.34,706.68,53.65,697,53.65,697.55,50.23,702.69,0,810.57,0,812.86s19.4,12.55,42.24,23.4c117,53.66,283.13,61.08,384.16,16C580.52,784.32,577.1,575.39,421.26,522.88ZM731.22,0c-1.71,0-35.39,29.68-73.63,65.08L586.8,130.15V502.9l.57,372.75h68.5l69.07.57V808.86l21.12,18.27c78.21,68.5,234.61,74.2,332.22,12C1281.5,708.4,1250.67,380.74,1026.91,295.69ZM975,738.08c-41.09,20.55-107.88,21.12-150.12,1.14-127.3-58.8-125-264.86,2.85-322.52,32-14.84,103.89-16.55,135.29-3.42C1093.13,467.51,1100.55,675.29,975,738.08ZM1691.92,294c-6.85,415c-71.92,70.21-203.21,57.65-255.16-24.55-58.22-91.9-28.54-220.34,61.08-264.86,61.65-30.83,151.84-16,196.94,31.39C1750.72,517.17,1749,646.75,1685.07,709Zm18.26,151.27-6.85-91.34L1938,155.27c-44-6.85-85.06-12.56-91.33-12.56-10.28-.57-108.46,89.62-99.9,91.33,1.71.57,41.67,6.28,88.48,13.13l85.62,12,4.57,85.62c2.85,46.81,6.85,87.34,8.56,89.62,2.29,1.71,25.12-16,50.81-40l47.37-43.95Z" />
</svg>